<?xml version="1.0" encoding="utf-8"?>
<!-- Generator: Adobe Illustrator 30.3.0, SVG Export Plug-In . SVG Version: 9.03 Build 0)  -->
<svg version="1.1" xmlns="http://www.w3.org/2000/svg" xmlns:xlink="http://www.w3.org/1999/xlink" x="0px" y="0px"
	 viewBox="0 0 46.57 70.75" style="enable-background:new 0 0 46.57 70.75;" xml:space="preserve">
<g id="Layer_1">
</g>
<g id="Layer_2">
	<path d="M21.07,24.06c0,0-0.58-0.66-0.58-1.25c0-0.6-0.08-7.73-0.08-8.81c0-1.07-0.12-4.51-0.9-5.7C18.44,6.63,15,6.75,13.55,6.75
		c-1.16,0-3.43,0-5.25,1.19c-1.92,1.26-2.15,4.42-2.15,4.42h3.94c0,0-0.37-1.57,0.6-2.21c0.75-0.49,4.48-0.5,5.31,0
		c0.84,0.51,0.54,2.33,0.54,2.33s-3.49,0.92-7.76,1.61c-1.48,0.24-3.58,1.72-3.58,5.13c0,2.69,2.21,4.24,3.76,4.84
		c1.55,0.6,3.65,0.32,4.66,0c2.27-0.72,3.04-1.67,3.04-1.67l-0.06,1.67H21.07z M16.48,19.16c0,0-5.1,3.65-7.07,1.88
		c-2.37-2.13-0.63-4.66,2.64-4.93c2.55-0.21,4.43-1.07,4.43-1.07V19.16z"/>
	<path d="M35.8,17.25c-0.62,1.94-2.27,3.36-4.28,3.42c-2.59,0.07-4.75-2.14-4.83-4.96c-0.08-2.81,1.95-5.15,4.54-5.23
		c1.84-0.05,3.44,1.06,4.26,2.71h3.9c-1-3.93-4.36-6.77-8.28-6.66c-4.6,0.13-8.21,4.29-8.06,9.28c0.14,4.99,3.99,8.93,8.59,8.8
		c3.99-0.12,7.24-3.27,7.93-7.36H35.8z"/>
	<polygon style="fill:#D25733;" points="15.7,27.28 15.7,42.21 9.79,42.21 9.79,27.28 5.19,27.28 5.19,42.21 5.19,46.81 5.19,61.73 
		9.79,61.73 9.79,46.81 15.7,46.81 15.7,61.73 20.3,61.73 20.3,27.28 	"/>
	<path style="fill:#D25733;" d="M41.73,65.67l-5.84-5.22c1.71-1.47,2.79-3.64,2.79-6.07V34.63c0-4.42-3.58-8-8-8h0
		c-4.42,0-8,3.58-8,8v19.76c0,4.42,3.58,8,8,8h0c0.69,0,1.36-0.1,1.99-0.26l4.1,3.54H41.73z M27.06,53.48V36.26
		c0-2.56,1.07-4.63,3.63-4.63c2.56,0,3.63,2.07,3.63,4.63v17.22c0,2.56-1.07,4.63-3.63,4.63C28.13,58.1,27.06,56.03,27.06,53.48z"/>
</g>
</svg>
