<?xml version="1.0" encoding="UTF-8"?>
<svg xmlns="http://www.w3.org/2000/svg" version="1.1" viewBox="0 0 2743.02 1402.48">
  <defs>
    <style>
      .cls-1 {
        stroke: #086090;
      }

      .cls-1, .cls-2, .cls-3, .cls-4 {
        stroke-miterlimit: 10;
        stroke-width: 10px;
      }

      .cls-1, .cls-4 {
        fill: #1d1d1b;
      }

      .cls-5, .cls-3, .cls-6 {
        fill: #fff;
      }

      .cls-7 {
        fill: #9d9d9c;
      }

      .cls-8 {
        fill: #231f20;
      }

      .cls-9 {
        fill: #00a6e1;
      }

      .cls-2 {
        fill: none;
      }

      .cls-2, .cls-3 {
        stroke: #fff;
      }

      .cls-10 {
        display: none;
      }

      .cls-11 {
        fill: #086090;
      }

      .cls-4 {
        stroke: #000;
      }

      .cls-12, .cls-6 {
        font-family: StagSans-Light, 'Stag Sans';
        font-size: 268px;
        font-weight: 300;
      }

      .cls-13 {
        opacity: .5;
      }
    </style>
  </defs>
  <!-- Generator: Adobe Illustrator 28.7.4, SVG Export Plug-In . SVG Version: 1.2.0 Build 166)  -->
  <g>
    <g id="color_horizontal_FINAL">
      <g>
        <polygon class="cls-9" points="811.89 638.37 812.14 638.02 1193.48 637.3 1003.23 906.16 841.07 1135.33 649.86 867.35 811.89 638.37"/>
        <polygon class="cls-11" points="454.19 637.78 455.02 638.9 833.05 1144.42 832.13 1145.67 641.01 1146.03 449.89 1146.38 449.48 1145.83 73.25 638.49 74.03 637.44 454.97 636.73 454.19 637.78"/>
      </g>
      <g>
        <polygon class="cls-11" points="813.31 594.45 812.48 593.3 434.41 67.05 435.33 65.75 626.45 65.39 817.57 65.03 817.98 65.6 1194.25 593.74 1193.48 594.84 812.53 595.55 813.31 594.45"/>
        <polygon class="cls-9" points="455.61 593.4 455.36 593.76 74.02 594.49 264.25 314.63 426.39 76.08 617.62 355.05 455.61 593.4"/>
      </g>
      <line class="cls-1" x1="806.94" y1="616.34" x2="2646.97" y2="616.34"/>
      <g>
        <g>
          <path class="cls-8" d="M546.86,1301.7c0,12.2,2.46,19.1,4.1,21.68h-30.27c-1.88-2.82-2.46-9.48-2.46-12.53-11.03,8.92-23.93,13.61-38.71,13.61-22.52,0-40.36-14.31-40.36-37.31s18.54-33.55,36.13-37.07l11.97-2.35c10.32-2.11,23.7-4.46,30.97-7.04v-3.52c0-11.73-10.09-15.02-22.52-15.02-16.66,0-21.86,6.81-21.86,17.96h-28.69c0-27.92,20.37-41.24,50.56-40.02,25.55,1.03,51.15,5.16,51.15,38.95v62.65ZM518.23,1262.28c-3.75,1.88-8.45,3.28-13.61,4.22l-15.72,3.28c-10.79,2.11-19.71,5.16-19.71,16.42,0,8.92,8.21,14.78,18.54,14.78,13.37,0,30.5-6.57,30.5-21.82v-16.89Z"/>
          <path class="cls-8" d="M649.48,1237.74c-15.86-10.31-19.82-13.08-32.71-14.17-13.33-1.13-21.82,4.46-21.82,11.5,0,20.65,74.85,3.05,74.85,47.86,0,28.63-25.57,41.53-52.79,41.53s-46.93-9.62-57.48-21.59l18-13.99c13.08,9.91,22.6,12.11,37.85,12.11,13.61,0,22.99-7.51,22.99-13.84,0-20.18-73.44-3.52-73.44-48.57,0-26.75,23.23-38.48,52.56-38.48s43.41,14.55,49.04,21.59l-17.04,16.05Z"/>
          <path class="cls-8" d="M786.65,1301.7c0,12.2,3.13,18.8,4.77,21.38h-30.27c-1.88-2.82-3.13-9.18-3.13-12.23-11.03,8.92-23.93,13.61-38.71,13.61-22.52,0-40.36-14.31-40.36-37.31s18.54-33.55,36.13-37.07l11.97-2.35c10.32-2.11,23.7-4.46,30.97-7.04v-3.52c0-11.73-10.09-15.02-22.52-15.02-16.66,0-21.99,7.11-21.99,18.41l-28.69-.15c0-27.92,20.96-41.53,50.68-40.31,25.55,1.05,51.15,5.16,51.15,38.95v62.65ZM758.02,1262.28c-3.75,1.88-8.45,3.28-13.61,4.22l-15.72,3.28c-10.79,2.11-19.71,5.16-19.71,16.42,0,8.92,8.21,14.78,18.54,14.78,13.37,0,30.5-6.57,30.5-21.82v-16.89Z"/>
          <path class="cls-8" d="M828.84,1269.09c.47,17.6,15.26,28.45,30.74,29.09,21.9.91,31.49-6.67,38.88-14.35l19.54,11.54c-8.92,13.61-26.04,29.09-58.42,29.09-38.48,0-60.77-26.75-60.77-62.18s22.29-62.18,60.77-62.18,57.02,26.51,57.02,68.98h-87.75ZM886.56,1247.03c0-6.34-7.74-23.46-26.98-23.46-16.66,0-27.69,10.79-30.74,23.46h57.72Z"/>
        </g>
        <path class="cls-8" d="M967.75,1215.77c0,9.07-7.03,16.15-16.15,16.15s-16.15-7.08-16.15-16.15,7.03-16.15,16.15-16.15,16.15,7.08,16.15,16.15ZM937.97,1215.77c0,7.73,5.82,13.85,13.63,13.85s13.63-6.12,13.63-13.85-5.82-13.85-13.63-13.85-13.63,6.12-13.63,13.85ZM948.04,1225.11h-2.3v-18.67h7.16c4.21,0,6.08,1.82,6.08,5.17s-2.17,4.78-4.69,5.21l5.56,8.29h-2.69l-5.25-8.29h-3.87v8.29ZM951.08,1214.86c2.82,0,5.6-.09,5.6-3.26,0-2.61-2.17-3.21-4.43-3.21h-4.21v6.47h3.04Z"/>
        <text/>
        <path class="cls-8" d="M428,1208.61l-67.19.05c-9.81-15.14-21.42-23.07-27.32-26.37l6.64-19.7-10.46,17.78-.04-.02.03.02-16.67,28.32-70.9-.17,67.05,6.61-6.63,11.95c-25.77-11.61-60.5-18.45-60.5-18.45,0,0,29.35,11.53,55.83,27.28l-47.66,87.7,86.19-55.74c17.76,21.56,39.96,55.11,39.96,55.11,0,0,9.35-38.34-1.28-80.12l52.96-34.25ZM333.14,1183.32c6.77,8.46,10.51,15.56,14.65,25.35l-23.2.02,8.55-25.37ZM297.44,1276.06l13.05-32.07c4.67,3.21,9.07,6.53,12.94,9.91,1.14.99,2.37,2.18,3.66,3.49l-29.64,18.67ZM314.55,1233.11l7.29-17.02,28.72,1.53c1.77,2.96,6.73,17.75,7.3,20.31l-19.22,10.51c-6.27-5.33-22.95-14.67-24.09-15.33ZM362.56,1273.39s-2.19-5.61-11.88-14.55l9.98-6.4c2.32,16.06,1.9,20.95,1.9,20.95ZM368.85,1224.04c-.83-2.02-1.7-3.95-2.61-5.8l21.35,1.03-16.58,10.44c-.68-1.89-1.39-3.78-2.16-5.67Z"/>
      </g>
      <g>
        <path d="M1283.35,761.09c0-63.25,38.86-94.34,87.64-94.34,26.26,0,42.34,6.43,54.94,14.74v12.33h-6.97c-9.65-9.38-24.66-15.54-47.97-15.54-41.54,0-72.36,25.73-72.36,82.28s26.26,84.42,71.02,84.42c24.39,0,37.52-5.09,47.71-10.45v-59.23h-41.54v-11.79h55.75v77.72c-12.86,7.5-31.62,15.28-61.91,15.28-52.8,0-86.3-31.89-86.3-95.41Z"/>
        <path d="M1460.5,785.48c0-43.95,26.26-71.29,64.86-71.29s65.12,27.34,65.12,71.29-26,71.02-65.12,71.02-64.86-26.8-64.86-71.02ZM1576.81,785.48c0-38.06-19.56-60.84-51.46-60.84s-51.19,22.78-51.19,60.84,19.56,60.57,51.19,60.57,51.46-22.25,51.46-60.57Z"/>
        <path d="M1603.61,720.63v-4.82h12.06l47.97,121.41h.54l47.71-121.41h10.99v4.82l-53.06,134.81h-12.6l-53.6-134.81Z"/>
        <path d="M1801.39,845.52c22.24,0,35.91-6.97,43.42-14.47h5.9v9.92c-9.92,7.77-25.19,15.54-50.65,15.54-42.08,0-65.39-27.07-65.39-70.49s26.26-71.83,61.91-71.83,57.35,19.83,57.35,65.39c0,2.68-.27,5.9-.27,6.43h-105.33c0,39.13,18.22,59.5,53.06,59.5ZM1748.6,775.83h91.93c-.8-37.25-17.96-51.46-43.95-51.46s-44.76,17.15-47.97,51.46Z"/>
        <path d="M1894.92,739.92c10.72-12.86,26-25.19,45.83-25.19,3.48,0,5.9.54,6.43.8v10.99s-3.48-.27-5.9-.27c-20.37,0-35.11,13.13-46.36,26.26v102.91h-13.4v-139.63h6.16c5.9,0,7.24,1.61,7.24,15.28v8.84Z"/>
        <path d="M1984.16,738.05c15.81-12.6,36.72-23.85,61.37-23.85,19.56,0,36.18,8.04,36.18,37.25v103.99h-13.4v-102.38c0-22.24-12.06-27.6-27.87-27.6-20.64,0-40.47,11.52-56.28,23.58v106.4h-13.4v-139.63h6.16c5.9,0,7.24,1.61,7.24,13.94v8.31Z"/>
        <path d="M2200.17,836.4c-11.79,12.33-24.66,20.37-47.71,20.37-26,0-45.02-14.2-45.02-40.47,0-28.14,23.32-41,56.01-41,13.4,0,25.19,1.34,36.72,4.29v-25.19c0-21.71-13.94-29.48-34.3-29.48s-34.57,5.36-43.42,12.33h-5.63v-10.99c11.26-6.16,26.8-12.06,49.58-12.06,28.41,0,47.17,10.45,47.17,39.4v101.84h-3.75c-7.77,0-9.65-2.41-9.65-13.67v-5.36ZM2200.17,823.54v-34.3c-10.72-2.41-22.51-4.29-35.91-4.29-24.66,0-43.15,8.84-43.15,30.28s14.47,31.09,33.23,31.09c22.51,0,34.84-9.65,45.83-22.78Z"/>
        <path d="M2264.49,738.05c15.81-12.6,36.72-23.85,61.37-23.85,19.56,0,36.18,8.04,36.18,37.25v103.99h-13.4v-102.38c0-22.24-12.06-27.6-27.87-27.6-20.64,0-40.47,11.52-56.28,23.58v106.4h-13.4v-139.63h6.16c5.9,0,7.24,1.61,7.24,13.94v8.31Z"/>
        <path d="M2388.84,785.21c0-44.22,27.34-71.02,66.2-71.02,23.05,0,35.64,6.97,43.69,13.4v10.72h-6.97c-6.43-6.43-17.15-13.4-36.98-13.4-31.09,0-52.26,22.24-52.26,60.3s19.56,60.57,52.26,60.57c21.71,0,33.77-8.84,40.2-16.08h6.16v10.18c-7.77,7.5-22.78,16.62-46.9,16.62-41,0-65.39-27.34-65.39-71.29Z"/>
        <path d="M2584.21,845.52c22.25,0,35.91-6.97,43.42-14.47h5.9v9.92c-9.92,7.77-25.19,15.54-50.65,15.54-42.08,0-65.39-27.07-65.39-70.49s26.26-71.83,61.91-71.83,57.35,19.83,57.35,65.39c0,2.68-.27,5.9-.27,6.43h-105.33c0,39.13,18.22,59.5,53.06,59.5ZM2531.41,775.83h91.93c-.8-37.25-17.96-51.46-43.95-51.46s-44.76,17.15-47.97,51.46Z"/>
        <path d="M1295.68,1127.43v-187.6h14.47v187.6h-14.47Z"/>
        <path d="M1366.43,1010.05c15.81-12.6,36.72-23.85,61.37-23.85,19.56,0,36.18,8.04,36.18,37.25v103.99h-13.4v-102.38c0-22.24-12.06-27.6-27.87-27.6-20.64,0-40.47,11.52-56.28,23.58v106.4h-13.4v-139.63h6.16c5.9,0,7.24,1.61,7.24,13.94v8.31Z"/>
        <path d="M1491.32,1115.37v-10.99h5.36c6.7,6.16,19.03,13.67,39.13,13.67,25.73,0,38.06-10.72,38.06-30.02,0-16.35-9.11-23.05-37.52-27.6-26.8-4.29-43.69-13.67-43.69-37.25s19.03-36.99,46.9-36.99c20.37,0,32.7,5.36,40.47,10.45v10.99h-5.36c-7.5-6.16-16.88-10.99-34.84-10.99-22.78,0-34.57,8.58-34.57,25.46s9.38,22.24,36.45,26.8c29.21,4.56,45.29,13.4,45.29,38.06s-15.81,41.54-50.65,41.54c-23.85,0-36.98-7.24-45.03-13.13Z"/>
        <path d="M1602.26,987.8h18.49v-38.86h13.4v38.86h37.25v10.18h-37.25v97.55c0,16.88,7.77,21.98,24.12,21.98h16.08v9.38c-4.29.8-12.33,1.61-20.64,1.61-21.44,0-32.96-9.11-32.96-31.36v-99.16h-18.49v-10.18Z"/>
        <path d="M1696.33,957.25c0-4.82,4.02-9.11,9.11-9.11s9.11,4.29,9.11,9.11c0,5.09-4.02,9.11-9.11,9.11s-9.11-4.02-9.11-9.11ZM1698.47,1127.43v-139.63h4.29c8.04,0,9.11,1.61,9.11,14.47v125.16h-13.4Z"/>
        <path d="M1735.19,987.8h18.49v-38.86h13.4v38.86h37.25v10.18h-37.25v97.55c0,16.88,7.77,21.98,24.12,21.98h16.08v9.38c-4.29.8-12.33,1.61-20.64,1.61-21.44,0-32.96-9.11-32.96-31.36v-99.16h-18.49v-10.18Z"/>
        <path d="M1925.47,1107.06c-15.54,11.79-36.45,21.98-58.16,21.98s-37.79-8.84-37.79-36.45v-104.79h13.67v103.45c0,21.44,11.26,26.8,26,26.8,21.17,0,40.47-10.72,56.28-22.25v-108.01h13.4v139.63h-6.16c-5.9,0-7.24-1.88-7.24-15.01v-5.36Z"/>
        <path d="M1961.91,987.8h18.49v-38.86h13.4v38.86h37.25v10.18h-37.25v97.55c0,16.88,7.77,21.98,24.12,21.98h16.08v9.38c-4.29.8-12.33,1.61-20.64,1.61-21.44,0-32.96-9.11-32.96-31.36v-99.16h-18.49v-10.18Z"/>
        <path d="M2111.19,1117.52c22.24,0,35.91-6.97,43.42-14.47h5.9v9.92c-9.92,7.77-25.19,15.54-50.65,15.54-42.08,0-65.39-27.07-65.39-70.49s26.26-71.83,61.91-71.83,57.35,19.83,57.35,65.39c0,2.68-.27,5.9-.27,6.43h-105.33c0,39.13,18.22,59.5,53.07,59.5ZM2058.39,1047.83h91.93c-.8-37.25-17.96-51.46-43.95-51.46s-44.76,17.15-47.97,51.46Z"/>
      </g>
      <g>
        <path d="M1281.23,536.17l65.93-181.71h16.88l65.12,181.71v5.9h-12.6l-21.17-58.69h-81.21l-20.9,58.69h-12.06v-5.9ZM1318.21,471.58h73.17l-36.18-101.31h-.54l-36.45,101.31Z"/>
        <path d="M1446.58,530.01v-10.99h5.36c6.7,6.16,19.03,13.67,39.13,13.67,25.73,0,38.06-10.72,38.06-30.02,0-16.35-9.11-23.05-37.52-27.6-26.8-4.29-43.69-13.67-43.69-37.25s19.03-36.99,46.9-36.99c20.37,0,32.7,5.36,40.47,10.45v10.99h-5.36c-7.5-6.16-16.88-10.99-34.84-10.99-22.78,0-34.57,8.58-34.57,25.46s9.38,22.24,36.45,26.8c29.21,4.56,45.29,13.4,45.29,38.06s-15.81,41.54-50.65,41.54c-23.85,0-36.98-7.24-45.02-13.13Z"/>
        <path d="M1561.02,530.01v-10.99h5.36c6.7,6.16,19.03,13.67,39.13,13.67,25.73,0,38.06-10.72,38.06-30.02,0-16.35-9.11-23.05-37.52-27.6-26.8-4.29-43.68-13.67-43.68-37.25s19.03-36.99,46.9-36.99c20.37,0,32.7,5.36,40.47,10.45v10.99h-5.36c-7.5-6.16-16.88-10.99-34.84-10.99-22.78,0-34.57,8.58-34.57,25.46s9.38,22.24,36.45,26.8c29.21,4.56,45.29,13.4,45.29,38.06s-15.81,41.54-50.65,41.54c-23.85,0-36.98-7.24-45.02-13.13Z"/>
        <path d="M1674.91,472.12c0-43.95,26.26-71.29,64.86-71.29s65.12,27.34,65.12,71.29-26,71.02-65.12,71.02-64.86-26.8-64.86-71.02ZM1791.23,472.12c0-38.06-19.56-60.84-51.46-60.84s-51.19,22.78-51.19,60.84,19.56,60.57,51.19,60.57,51.46-22.25,51.46-60.57Z"/>
        <path d="M1822.58,471.85c0-44.22,27.34-71.02,66.2-71.02,23.05,0,35.64,6.97,43.69,13.4v10.72h-6.97c-6.43-6.43-17.15-13.4-36.98-13.4-31.09,0-52.26,22.24-52.26,60.3s19.56,60.57,52.26,60.57c21.71,0,33.77-8.84,40.2-16.08h6.16v10.18c-7.77,7.5-22.78,16.62-46.9,16.62-41,0-65.39-27.34-65.39-71.29Z"/>
        <path d="M1960.06,371.88c0-4.82,4.02-9.11,9.11-9.11s9.11,4.29,9.11,9.11c0,5.09-4.02,9.11-9.11,9.11s-9.11-4.02-9.11-9.11ZM1962.21,542.07v-139.63h4.29c8.04,0,9.11,1.61,9.11,14.47v125.16h-13.4Z"/>
        <path d="M2096.21,523.04c-11.79,12.33-24.66,20.37-47.71,20.37-26,0-45.02-14.2-45.02-40.47,0-28.14,23.32-41,56.01-41,13.4,0,25.19,1.34,36.72,4.29v-25.19c0-21.71-13.94-29.48-34.3-29.48s-34.57,5.36-43.42,12.33h-5.63v-10.99c11.26-6.16,26.8-12.06,49.58-12.06,28.41,0,47.17,10.45,47.17,39.4v101.84h-3.75c-7.77,0-9.65-2.41-9.65-13.67v-5.36ZM2096.21,510.18v-34.3c-10.72-2.41-22.51-4.29-35.91-4.29-24.66,0-43.15,8.84-43.15,30.28s14.47,31.09,33.23,31.09c22.51,0,34.84-9.65,45.83-22.78Z"/>
        <path d="M2131.04,402.44h18.49v-38.86h13.4v38.86h37.25v10.18h-37.25v97.55c0,16.88,7.77,21.98,24.12,21.98h16.08v9.38c-4.29.8-12.33,1.61-20.64,1.61-21.44,0-32.96-9.11-32.96-31.36v-99.16h-18.49v-10.18Z"/>
        <path d="M2225.11,371.88c0-4.82,4.02-9.11,9.11-9.11s9.11,4.29,9.11,9.11c0,5.09-4.02,9.11-9.11,9.11s-9.11-4.02-9.11-9.11ZM2227.25,542.07v-139.63h4.29c8.04,0,9.11,1.61,9.11,14.47v125.16h-13.4Z"/>
        <path d="M2269.6,472.12c0-43.95,26.26-71.29,64.86-71.29s65.13,27.34,65.13,71.29-26,71.02-65.13,71.02-64.86-26.8-64.86-71.02ZM2385.91,472.12c0-38.06-19.56-60.84-51.46-60.84s-51.19,22.78-51.19,60.84,19.56,60.57,51.19,60.57,51.46-22.25,51.46-60.57Z"/>
        <path d="M2441.11,424.68c15.81-12.6,36.72-23.85,61.37-23.85,19.56,0,36.18,8.04,36.18,37.25v103.99h-13.4v-102.38c0-22.24-12.06-27.6-27.87-27.6-20.64,0-40.47,11.52-56.28,23.58v106.4h-13.4v-139.63h6.17c5.9,0,7.24,1.61,7.24,13.94v8.31Z"/>
      </g>
    </g>
    <g id="BW_horizontal_FINAL" class="cls-10">
      <polygon class="cls-7" points="811.89 638.37 812.14 638.02 1193.48 637.3 1003.23 906.16 841.07 1135.33 649.86 867.35 811.89 638.37"/>
      <polygon points="454.19 637.78 455.02 638.9 833.05 1144.42 832.13 1145.67 641.01 1146.03 449.89 1146.38 449.48 1145.83 73.25 638.49 74.03 637.44 454.97 636.73 454.19 637.78"/>
      <polygon points="813.31 594.45 812.48 593.3 434.41 67.05 435.33 65.75 626.45 65.39 817.57 65.03 817.98 65.6 1194.25 593.74 1193.48 594.84 812.53 595.55 813.31 594.45"/>
      <polygon class="cls-7" points="455.61 593.4 455.36 593.76 74.02 594.49 264.25 314.63 426.39 76.08 617.62 355.05 455.61 593.4"/>
      <line class="cls-4" x1="806.94" y1="616.34" x2="2646.97" y2="616.34"/>
      <g>
        <g>
          <path class="cls-8" d="M546.86,1301.7c0,12.2,2.46,19.1,4.1,21.68h-30.27c-1.88-2.82-2.46-9.48-2.46-12.53-11.03,8.92-23.93,13.61-38.71,13.61-22.52,0-40.36-14.31-40.36-37.31s18.54-33.55,36.13-37.07l11.97-2.35c10.32-2.11,23.7-4.46,30.97-7.04v-3.52c0-11.73-10.09-15.02-22.52-15.02-16.66,0-21.86,6.81-21.86,17.96h-28.69c0-27.92,20.37-41.24,50.56-40.02,25.55,1.03,51.15,5.16,51.15,38.95v62.65ZM518.23,1262.28c-3.75,1.88-8.45,3.28-13.61,4.22l-15.72,3.28c-10.79,2.11-19.71,5.16-19.71,16.42,0,8.92,8.21,14.78,18.54,14.78,13.37,0,30.5-6.57,30.5-21.82v-16.89Z"/>
          <path class="cls-8" d="M649.48,1237.74c-15.86-10.31-19.82-13.08-32.71-14.17-13.33-1.13-21.82,4.46-21.82,11.5,0,20.65,74.85,3.05,74.85,47.86,0,28.63-25.57,41.53-52.79,41.53s-46.93-9.62-57.48-21.59l18-13.99c13.08,9.91,22.6,12.11,37.85,12.11,13.61,0,22.99-7.51,22.99-13.84,0-20.18-73.44-3.52-73.44-48.57,0-26.75,23.23-38.48,52.56-38.48s43.41,14.55,49.04,21.59l-17.04,16.05Z"/>
          <path class="cls-8" d="M786.65,1301.7c0,12.2,3.13,18.8,4.77,21.38h-30.27c-1.88-2.82-3.13-9.18-3.13-12.23-11.03,8.92-23.93,13.61-38.71,13.61-22.52,0-40.36-14.31-40.36-37.31s18.54-33.55,36.13-37.07l11.97-2.35c10.32-2.11,23.7-4.46,30.97-7.04v-3.52c0-11.73-10.09-15.02-22.52-15.02-16.66,0-21.99,7.11-21.99,18.41l-28.69-.15c0-27.92,20.96-41.53,50.68-40.31,25.55,1.05,51.15,5.16,51.15,38.95v62.65ZM758.02,1262.28c-3.75,1.88-8.45,3.28-13.61,4.22l-15.72,3.28c-10.79,2.11-19.71,5.16-19.71,16.42,0,8.92,8.21,14.78,18.54,14.78,13.37,0,30.5-6.57,30.5-21.82v-16.89Z"/>
          <path class="cls-8" d="M828.84,1269.09c.47,17.6,15.26,28.45,30.74,29.09,21.9.91,31.49-6.67,38.88-14.35l19.54,11.54c-8.92,13.61-26.04,29.09-58.42,29.09-38.48,0-60.77-26.75-60.77-62.18s22.29-62.18,60.77-62.18,57.02,26.51,57.02,68.98h-87.75ZM886.56,1247.03c0-6.34-7.74-23.46-26.98-23.46-16.66,0-27.69,10.79-30.74,23.46h57.72Z"/>
        </g>
        <path class="cls-8" d="M967.75,1215.77c0,9.07-7.03,16.15-16.15,16.15s-16.15-7.08-16.15-16.15,7.03-16.15,16.15-16.15,16.15,7.08,16.15,16.15ZM937.97,1215.77c0,7.73,5.82,13.85,13.63,13.85s13.63-6.12,13.63-13.85-5.82-13.85-13.63-13.85-13.63,6.12-13.63,13.85ZM948.04,1225.11h-2.3v-18.67h7.16c4.21,0,6.08,1.82,6.08,5.17s-2.17,4.78-4.69,5.21l5.56,8.29h-2.69l-5.25-8.29h-3.87v8.29ZM951.08,1214.86c2.82,0,5.6-.09,5.6-3.26,0-2.61-2.17-3.21-4.43-3.21h-4.21v6.47h3.04Z"/>
        <text/>
        <path class="cls-8" d="M428,1208.61l-67.19.05c-9.81-15.14-21.42-23.07-27.32-26.37l6.64-19.7-10.46,17.78-.04-.02.03.02-16.67,28.32-70.9-.17,67.05,6.61-6.63,11.95c-25.77-11.61-60.5-18.45-60.5-18.45,0,0,29.35,11.53,55.83,27.28l-47.66,87.7,86.19-55.74c17.76,21.56,39.96,55.11,39.96,55.11,0,0,9.35-38.34-1.28-80.12l52.96-34.25ZM333.14,1183.32c6.77,8.46,10.51,15.56,14.65,25.35l-23.2.02,8.55-25.37ZM297.44,1276.06l13.05-32.07c4.67,3.21,9.07,6.53,12.94,9.91,1.14.99,2.37,2.18,3.66,3.49l-29.64,18.67ZM314.55,1233.11l7.29-17.02,28.72,1.53c1.77,2.96,6.73,17.75,7.3,20.31l-19.22,10.51c-6.27-5.33-22.95-14.67-24.09-15.33ZM362.56,1273.39s-2.19-5.61-11.88-14.55l9.98-6.4c2.32,16.06,1.9,20.95,1.9,20.95ZM368.85,1224.04c-.83-2.02-1.7-3.95-2.61-5.8l21.35,1.03-16.58,10.44c-.68-1.89-1.39-3.78-2.16-5.67Z"/>
      </g>
      <g>
        <path d="M1283.35,761.09c0-63.25,38.86-94.34,87.64-94.34,26.26,0,42.34,6.43,54.94,14.74v12.33h-6.97c-9.65-9.38-24.66-15.54-47.97-15.54-41.54,0-72.36,25.73-72.36,82.28s26.26,84.42,71.02,84.42c24.39,0,37.52-5.09,47.71-10.45v-59.23h-41.54v-11.79h55.75v77.72c-12.86,7.5-31.62,15.28-61.91,15.28-52.8,0-86.3-31.89-86.3-95.41Z"/>
        <path d="M1460.5,785.48c0-43.95,26.26-71.29,64.86-71.29s65.12,27.34,65.12,71.29-26,71.02-65.12,71.02-64.86-26.8-64.86-71.02ZM1576.81,785.48c0-38.06-19.56-60.84-51.46-60.84s-51.19,22.78-51.19,60.84,19.56,60.57,51.19,60.57,51.46-22.25,51.46-60.57Z"/>
        <path d="M1603.61,720.63v-4.82h12.06l47.97,121.41h.54l47.71-121.41h10.99v4.82l-53.06,134.81h-12.6l-53.6-134.81Z"/>
        <path d="M1801.39,845.52c22.24,0,35.91-6.97,43.42-14.47h5.9v9.92c-9.92,7.77-25.19,15.54-50.65,15.54-42.08,0-65.39-27.07-65.39-70.49s26.26-71.83,61.91-71.83,57.35,19.83,57.35,65.39c0,2.68-.27,5.9-.27,6.43h-105.33c0,39.13,18.22,59.5,53.06,59.5ZM1748.6,775.83h91.93c-.8-37.25-17.96-51.46-43.95-51.46s-44.76,17.15-47.97,51.46Z"/>
        <path d="M1894.92,739.92c10.72-12.86,26-25.19,45.83-25.19,3.48,0,5.9.54,6.43.8v10.99s-3.48-.27-5.9-.27c-20.37,0-35.11,13.13-46.36,26.26v102.91h-13.4v-139.63h6.16c5.9,0,7.24,1.61,7.24,15.28v8.84Z"/>
        <path d="M1984.16,738.05c15.81-12.6,36.72-23.85,61.37-23.85,19.56,0,36.18,8.04,36.18,37.25v103.99h-13.4v-102.38c0-22.24-12.06-27.6-27.87-27.6-20.64,0-40.47,11.52-56.28,23.58v106.4h-13.4v-139.63h6.16c5.9,0,7.24,1.61,7.24,13.94v8.31Z"/>
        <path d="M2200.17,836.4c-11.79,12.33-24.66,20.37-47.71,20.37-26,0-45.02-14.2-45.02-40.47,0-28.14,23.32-41,56.01-41,13.4,0,25.19,1.34,36.72,4.29v-25.19c0-21.71-13.94-29.48-34.3-29.48s-34.57,5.36-43.42,12.33h-5.63v-10.99c11.26-6.16,26.8-12.06,49.58-12.06,28.41,0,47.17,10.45,47.17,39.4v101.84h-3.75c-7.77,0-9.65-2.41-9.65-13.67v-5.36ZM2200.17,823.54v-34.3c-10.72-2.41-22.51-4.29-35.91-4.29-24.66,0-43.15,8.84-43.15,30.28s14.47,31.09,33.23,31.09c22.51,0,34.84-9.65,45.83-22.78Z"/>
        <path d="M2264.49,738.05c15.81-12.6,36.72-23.85,61.37-23.85,19.56,0,36.18,8.04,36.18,37.25v103.99h-13.4v-102.38c0-22.24-12.06-27.6-27.87-27.6-20.64,0-40.47,11.52-56.28,23.58v106.4h-13.4v-139.63h6.16c5.9,0,7.24,1.61,7.24,13.94v8.31Z"/>
        <path d="M2388.84,785.21c0-44.22,27.34-71.02,66.2-71.02,23.05,0,35.64,6.97,43.69,13.4v10.72h-6.97c-6.43-6.43-17.15-13.4-36.98-13.4-31.09,0-52.26,22.24-52.26,60.3s19.56,60.57,52.26,60.57c21.71,0,33.77-8.84,40.2-16.08h6.16v10.18c-7.77,7.5-22.78,16.62-46.9,16.62-41,0-65.39-27.34-65.39-71.29Z"/>
        <path d="M2584.21,845.52c22.25,0,35.91-6.97,43.42-14.47h5.9v9.92c-9.92,7.77-25.19,15.54-50.65,15.54-42.08,0-65.39-27.07-65.39-70.49s26.26-71.83,61.91-71.83,57.35,19.83,57.35,65.39c0,2.68-.27,5.9-.27,6.43h-105.33c0,39.13,18.22,59.5,53.06,59.5ZM2531.41,775.83h91.93c-.8-37.25-17.96-51.46-43.95-51.46s-44.76,17.15-47.97,51.46Z"/>
        <path d="M1295.68,1127.43v-187.6h14.47v187.6h-14.47Z"/>
        <path d="M1366.43,1010.05c15.81-12.6,36.72-23.85,61.37-23.85,19.56,0,36.18,8.04,36.18,37.25v103.99h-13.4v-102.38c0-22.24-12.06-27.6-27.87-27.6-20.64,0-40.47,11.52-56.28,23.58v106.4h-13.4v-139.63h6.16c5.9,0,7.24,1.61,7.24,13.94v8.31Z"/>
        <path d="M1491.32,1115.37v-10.99h5.36c6.7,6.16,19.03,13.67,39.13,13.67,25.73,0,38.06-10.72,38.06-30.02,0-16.35-9.11-23.05-37.52-27.6-26.8-4.29-43.69-13.67-43.69-37.25s19.03-36.99,46.9-36.99c20.37,0,32.7,5.36,40.47,10.45v10.99h-5.36c-7.5-6.16-16.88-10.99-34.84-10.99-22.78,0-34.57,8.58-34.57,25.46s9.38,22.24,36.45,26.8c29.21,4.56,45.29,13.4,45.29,38.06s-15.81,41.54-50.65,41.54c-23.85,0-36.98-7.24-45.03-13.13Z"/>
        <path d="M1602.26,987.8h18.49v-38.86h13.4v38.86h37.25v10.18h-37.25v97.55c0,16.88,7.77,21.98,24.12,21.98h16.08v9.38c-4.29.8-12.33,1.61-20.64,1.61-21.44,0-32.96-9.11-32.96-31.36v-99.16h-18.49v-10.18Z"/>
        <path d="M1696.33,957.25c0-4.82,4.02-9.11,9.11-9.11s9.11,4.29,9.11,9.11c0,5.09-4.02,9.11-9.11,9.11s-9.11-4.02-9.11-9.11ZM1698.47,1127.43v-139.63h4.29c8.04,0,9.11,1.61,9.11,14.47v125.16h-13.4Z"/>
        <path d="M1735.19,987.8h18.49v-38.86h13.4v38.86h37.25v10.18h-37.25v97.55c0,16.88,7.77,21.98,24.12,21.98h16.08v9.38c-4.29.8-12.33,1.61-20.64,1.61-21.44,0-32.96-9.11-32.96-31.36v-99.16h-18.49v-10.18Z"/>
        <path d="M1925.47,1107.06c-15.54,11.79-36.45,21.98-58.16,21.98s-37.79-8.84-37.79-36.45v-104.79h13.67v103.45c0,21.44,11.26,26.8,26,26.8,21.17,0,40.47-10.72,56.28-22.25v-108.01h13.4v139.63h-6.16c-5.9,0-7.24-1.88-7.24-15.01v-5.36Z"/>
        <path d="M1961.91,987.8h18.49v-38.86h13.4v38.86h37.25v10.18h-37.25v97.55c0,16.88,7.77,21.98,24.12,21.98h16.08v9.38c-4.29.8-12.33,1.61-20.64,1.61-21.44,0-32.96-9.11-32.96-31.36v-99.16h-18.49v-10.18Z"/>
        <path d="M2111.19,1117.52c22.24,0,35.91-6.97,43.42-14.47h5.9v9.92c-9.92,7.77-25.19,15.54-50.65,15.54-42.08,0-65.39-27.07-65.39-70.49s26.26-71.83,61.91-71.83,57.35,19.83,57.35,65.39c0,2.68-.27,5.9-.27,6.43h-105.33c0,39.13,18.22,59.5,53.07,59.5ZM2058.39,1047.83h91.93c-.8-37.25-17.96-51.46-43.95-51.46s-44.76,17.15-47.97,51.46Z"/>
      </g>
      <text class="cls-12" transform="translate(1273.19 542.07)"><tspan x="0" y="0">Association</tspan></text>
    </g>
    <g id="KO_horizontal_FINAL" class="cls-10">
      <g class="cls-13">
        <polygon class="cls-5" points="811.89 638.37 812.14 638.02 1193.48 637.3 1003.23 906.16 841.07 1135.33 649.86 867.35 811.89 638.37"/>
      </g>
      <polygon class="cls-5" points="454.19 637.78 455.02 638.9 833.05 1144.42 832.13 1145.67 641.01 1146.03 449.89 1146.38 449.48 1145.83 73.25 638.49 74.03 637.44 454.97 636.73 454.19 637.78"/>
      <polygon class="cls-5" points="813.31 594.45 812.48 593.3 434.41 67.05 435.33 65.75 626.45 65.39 817.57 65.03 817.98 65.6 1194.25 593.74 1193.48 594.84 812.53 595.55 813.31 594.45"/>
      <g class="cls-13">
        <polygon class="cls-5" points="455.61 593.4 455.36 593.76 74.02 594.49 264.25 314.63 426.39 76.08 617.62 355.05 455.61 593.4"/>
      </g>
      <line class="cls-2" x1="806.94" y1="616.34" x2="2646.97" y2="616.34"/>
      <g>
        <g>
          <path class="cls-5" d="M546.86,1301.7c0,12.2,2.46,19.1,4.1,21.68h-30.27c-1.88-2.82-2.46-9.48-2.46-12.53-11.03,8.92-23.93,13.61-38.71,13.61-22.52,0-40.36-14.31-40.36-37.31s18.54-33.55,36.13-37.07l11.97-2.35c10.32-2.11,23.7-4.46,30.97-7.04v-3.52c0-11.73-10.09-15.02-22.52-15.02-16.66,0-21.86,6.81-21.86,17.96h-28.69c0-27.92,20.37-41.24,50.56-40.02,25.55,1.03,51.15,5.16,51.15,38.95v62.65ZM518.23,1262.28c-3.75,1.88-8.45,3.28-13.61,4.22l-15.72,3.28c-10.79,2.11-19.71,5.16-19.71,16.42,0,8.92,8.21,14.78,18.54,14.78,13.37,0,30.5-6.57,30.5-21.82v-16.89Z"/>
          <path class="cls-5" d="M649.48,1237.74c-15.86-10.31-19.82-13.08-32.71-14.17-13.33-1.13-21.82,4.46-21.82,11.5,0,20.65,74.85,3.05,74.85,47.86,0,28.63-25.57,41.53-52.79,41.53s-46.93-9.62-57.48-21.59l18-13.99c13.08,9.91,22.6,12.11,37.85,12.11,13.61,0,22.99-7.51,22.99-13.84,0-20.18-73.44-3.52-73.44-48.57,0-26.75,23.23-38.48,52.56-38.48s43.41,14.55,49.04,21.59l-17.04,16.05Z"/>
          <path class="cls-5" d="M786.65,1301.7c0,12.2,3.13,18.8,4.77,21.38h-30.27c-1.88-2.82-3.13-9.18-3.13-12.23-11.03,8.92-23.93,13.61-38.71,13.61-22.52,0-40.36-14.31-40.36-37.31s18.54-33.55,36.13-37.07l11.97-2.35c10.32-2.11,23.7-4.46,30.97-7.04v-3.52c0-11.73-10.09-15.02-22.52-15.02-16.66,0-21.99,7.11-21.99,18.41l-28.69-.15c0-27.92,20.96-41.53,50.68-40.31,25.55,1.05,51.15,5.16,51.15,38.95v62.65ZM758.02,1262.28c-3.75,1.88-8.45,3.28-13.61,4.22l-15.72,3.28c-10.79,2.11-19.71,5.16-19.71,16.42,0,8.92,8.21,14.78,18.54,14.78,13.37,0,30.5-6.57,30.5-21.82v-16.89Z"/>
          <path class="cls-5" d="M828.84,1269.09c.47,17.6,15.26,28.45,30.74,29.09,21.9.91,31.49-6.67,38.88-14.35l19.54,11.54c-8.92,13.61-26.04,29.09-58.42,29.09-38.48,0-60.77-26.75-60.77-62.18s22.29-62.18,60.77-62.18,57.02,26.51,57.02,68.98h-87.75ZM886.56,1247.03c0-6.34-7.74-23.46-26.98-23.46-16.66,0-27.69,10.79-30.74,23.46h57.72Z"/>
        </g>
        <path class="cls-5" d="M967.75,1215.77c0,9.07-7.03,16.15-16.15,16.15s-16.15-7.08-16.15-16.15,7.03-16.15,16.15-16.15,16.15,7.08,16.15,16.15ZM937.97,1215.77c0,7.73,5.82,13.85,13.63,13.85s13.63-6.12,13.63-13.85-5.82-13.85-13.63-13.85-13.63,6.12-13.63,13.85ZM948.04,1225.11h-2.3v-18.67h7.16c4.21,0,6.08,1.82,6.08,5.17s-2.17,4.78-4.69,5.21l5.56,8.29h-2.69l-5.25-8.29h-3.87v8.29ZM951.08,1214.86c2.82,0,5.6-.09,5.6-3.26,0-2.61-2.17-3.21-4.43-3.21h-4.21v6.47h3.04Z"/>
        <text/>
        <path class="cls-5" d="M428,1208.61l-67.19.05c-9.81-15.14-21.42-23.07-27.32-26.37l6.64-19.7-10.46,17.78-.04-.02.03.02-16.67,28.32-70.9-.17,67.05,6.61-6.63,11.95c-25.77-11.61-60.5-18.45-60.5-18.45,0,0,29.35,11.53,55.83,27.28l-47.66,87.7,86.19-55.74c17.76,21.56,39.96,55.11,39.96,55.11,0,0,9.35-38.34-1.28-80.12l52.96-34.25ZM333.14,1183.32c6.77,8.46,10.51,15.56,14.65,25.35l-23.2.02,8.55-25.37ZM297.44,1276.06l13.05-32.07c4.67,3.21,9.07,6.53,12.94,9.91,1.14.99,2.37,2.18,3.66,3.49l-29.64,18.67ZM314.55,1233.11l7.29-17.02,28.72,1.53c1.77,2.96,6.73,17.75,7.3,20.31l-19.22,10.51c-6.27-5.33-22.95-14.67-24.09-15.33ZM362.56,1273.39s-2.19-5.61-11.88-14.55l9.98-6.4c2.32,16.06,1.9,20.95,1.9,20.95ZM368.85,1224.04c-.83-2.02-1.7-3.95-2.61-5.8l21.35,1.03-16.58,10.44c-.68-1.89-1.39-3.78-2.16-5.67Z"/>
      </g>
      <g>
        <path class="cls-5" d="M1283.35,761.09c0-63.25,38.86-94.34,87.64-94.34,26.26,0,42.34,6.43,54.94,14.74v12.33h-6.97c-9.65-9.38-24.66-15.54-47.97-15.54-41.54,0-72.36,25.73-72.36,82.28s26.26,84.42,71.02,84.42c24.39,0,37.52-5.09,47.71-10.45v-59.23h-41.54v-11.79h55.75v77.72c-12.86,7.5-31.62,15.28-61.91,15.28-52.8,0-86.3-31.89-86.3-95.41Z"/>
        <path class="cls-5" d="M1460.5,785.48c0-43.95,26.26-71.29,64.86-71.29s65.12,27.34,65.12,71.29-26,71.02-65.12,71.02-64.86-26.8-64.86-71.02ZM1576.81,785.48c0-38.06-19.56-60.84-51.46-60.84s-51.19,22.78-51.19,60.84,19.56,60.57,51.19,60.57,51.46-22.25,51.46-60.57Z"/>
        <path class="cls-5" d="M1603.61,720.63v-4.82h12.06l47.97,121.41h.54l47.71-121.41h10.99v4.82l-53.06,134.81h-12.6l-53.6-134.81Z"/>
        <path class="cls-5" d="M1801.39,845.52c22.24,0,35.91-6.97,43.42-14.47h5.9v9.92c-9.92,7.77-25.19,15.54-50.65,15.54-42.08,0-65.39-27.07-65.39-70.49s26.26-71.83,61.91-71.83,57.35,19.83,57.35,65.39c0,2.68-.27,5.9-.27,6.43h-105.33c0,39.13,18.22,59.5,53.06,59.5ZM1748.6,775.83h91.93c-.8-37.25-17.96-51.46-43.95-51.46s-44.76,17.15-47.97,51.46Z"/>
        <path class="cls-5" d="M1894.92,739.92c10.72-12.86,26-25.19,45.83-25.19,3.48,0,5.9.54,6.43.8v10.99s-3.48-.27-5.9-.27c-20.37,0-35.11,13.13-46.36,26.26v102.91h-13.4v-139.63h6.16c5.9,0,7.24,1.61,7.24,15.28v8.84Z"/>
        <path class="cls-5" d="M1984.16,738.05c15.81-12.6,36.72-23.85,61.37-23.85,19.56,0,36.18,8.04,36.18,37.25v103.99h-13.4v-102.38c0-22.24-12.06-27.6-27.87-27.6-20.64,0-40.47,11.52-56.28,23.58v106.4h-13.4v-139.63h6.16c5.9,0,7.24,1.61,7.24,13.94v8.31Z"/>
        <path class="cls-5" d="M2200.17,836.4c-11.79,12.33-24.66,20.37-47.71,20.37-26,0-45.02-14.2-45.02-40.47,0-28.14,23.32-41,56.01-41,13.4,0,25.19,1.34,36.72,4.29v-25.19c0-21.71-13.94-29.48-34.3-29.48s-34.57,5.36-43.42,12.33h-5.63v-10.99c11.26-6.16,26.8-12.06,49.58-12.06,28.41,0,47.17,10.45,47.17,39.4v101.84h-3.75c-7.77,0-9.65-2.41-9.65-13.67v-5.36ZM2200.17,823.54v-34.3c-10.72-2.41-22.51-4.29-35.91-4.29-24.66,0-43.15,8.84-43.15,30.28s14.47,31.09,33.23,31.09c22.51,0,34.84-9.65,45.83-22.78Z"/>
        <path class="cls-5" d="M2264.49,738.05c15.81-12.6,36.72-23.85,61.37-23.85,19.56,0,36.18,8.04,36.18,37.25v103.99h-13.4v-102.38c0-22.24-12.06-27.6-27.87-27.6-20.64,0-40.47,11.52-56.28,23.58v106.4h-13.4v-139.63h6.16c5.9,0,7.24,1.61,7.24,13.94v8.31Z"/>
        <path class="cls-5" d="M2388.84,785.21c0-44.22,27.34-71.02,66.2-71.02,23.05,0,35.64,6.97,43.69,13.4v10.72h-6.97c-6.43-6.43-17.15-13.4-36.98-13.4-31.09,0-52.26,22.24-52.26,60.3s19.56,60.57,52.26,60.57c21.71,0,33.77-8.84,40.2-16.08h6.16v10.18c-7.77,7.5-22.78,16.62-46.9,16.62-41,0-65.39-27.34-65.39-71.29Z"/>
        <path class="cls-5" d="M2584.21,845.52c22.25,0,35.91-6.97,43.42-14.47h5.9v9.92c-9.92,7.77-25.19,15.54-50.65,15.54-42.08,0-65.39-27.07-65.39-70.49s26.26-71.83,61.91-71.83,57.35,19.83,57.35,65.39c0,2.68-.27,5.9-.27,6.43h-105.33c0,39.13,18.22,59.5,53.06,59.5ZM2531.41,775.83h91.93c-.8-37.25-17.96-51.46-43.95-51.46s-44.76,17.15-47.97,51.46Z"/>
        <path class="cls-5" d="M1295.68,1127.43v-187.6h14.47v187.6h-14.47Z"/>
        <path class="cls-5" d="M1366.43,1010.05c15.81-12.6,36.72-23.85,61.37-23.85,19.56,0,36.18,8.04,36.18,37.25v103.99h-13.4v-102.38c0-22.24-12.06-27.6-27.87-27.6-20.64,0-40.47,11.52-56.28,23.58v106.4h-13.4v-139.63h6.16c5.9,0,7.24,1.61,7.24,13.94v8.31Z"/>
        <path class="cls-5" d="M1491.32,1115.37v-10.99h5.36c6.7,6.16,19.03,13.67,39.13,13.67,25.73,0,38.06-10.72,38.06-30.02,0-16.35-9.11-23.05-37.52-27.6-26.8-4.29-43.69-13.67-43.69-37.25s19.03-36.99,46.9-36.99c20.37,0,32.7,5.36,40.47,10.45v10.99h-5.36c-7.5-6.16-16.88-10.99-34.84-10.99-22.78,0-34.57,8.58-34.57,25.46s9.38,22.24,36.45,26.8c29.21,4.56,45.29,13.4,45.29,38.06s-15.81,41.54-50.65,41.54c-23.85,0-36.98-7.24-45.03-13.13Z"/>
        <path class="cls-5" d="M1602.26,987.8h18.49v-38.86h13.4v38.86h37.25v10.18h-37.25v97.55c0,16.88,7.77,21.98,24.12,21.98h16.08v9.38c-4.29.8-12.33,1.61-20.64,1.61-21.44,0-32.96-9.11-32.96-31.36v-99.16h-18.49v-10.18Z"/>
        <path class="cls-5" d="M1696.33,957.25c0-4.82,4.02-9.11,9.11-9.11s9.11,4.29,9.11,9.11c0,5.09-4.02,9.11-9.11,9.11s-9.11-4.02-9.11-9.11ZM1698.47,1127.43v-139.63h4.29c8.04,0,9.11,1.61,9.11,14.47v125.16h-13.4Z"/>
        <path class="cls-5" d="M1735.19,987.8h18.49v-38.86h13.4v38.86h37.25v10.18h-37.25v97.55c0,16.88,7.77,21.98,24.12,21.98h16.08v9.38c-4.29.8-12.33,1.61-20.64,1.61-21.44,0-32.96-9.11-32.96-31.36v-99.16h-18.49v-10.18Z"/>
        <path class="cls-5" d="M1925.47,1107.06c-15.54,11.79-36.45,21.98-58.16,21.98s-37.79-8.84-37.79-36.45v-104.79h13.67v103.45c0,21.44,11.26,26.8,26,26.8,21.17,0,40.47-10.72,56.28-22.25v-108.01h13.4v139.63h-6.16c-5.9,0-7.24-1.88-7.24-15.01v-5.36Z"/>
        <path class="cls-5" d="M1961.91,987.8h18.49v-38.86h13.4v38.86h37.25v10.18h-37.25v97.55c0,16.88,7.77,21.98,24.12,21.98h16.08v9.38c-4.29.8-12.33,1.61-20.64,1.61-21.44,0-32.96-9.11-32.96-31.36v-99.16h-18.49v-10.18Z"/>
        <path class="cls-5" d="M2111.19,1117.52c22.24,0,35.91-6.97,43.42-14.47h5.9v9.92c-9.92,7.77-25.19,15.54-50.65,15.54-42.08,0-65.39-27.07-65.39-70.49s26.26-71.83,61.91-71.83,57.35,19.83,57.35,65.39c0,2.68-.27,5.9-.27,6.43h-105.33c0,39.13,18.22,59.5,53.07,59.5ZM2058.39,1047.83h91.93c-.8-37.25-17.96-51.46-43.95-51.46s-44.76,17.15-47.97,51.46Z"/>
      </g>
      <text class="cls-6" transform="translate(1273.19 542.07)"><tspan x="0" y="0">Association</tspan></text>
    </g>
    <g id="KO_horizontal_IconOnly" class="cls-10">
      <rect x="0" y="-16.21" width="3035.29" height="1364.71"/>
      <g>
        <g class="cls-13">
          <polygon class="cls-5" points="806.01 667.78 806.26 667.43 1187.6 666.72 997.35 935.57 835.18 1164.74 643.98 896.76 806.01 667.78"/>
        </g>
        <polygon class="cls-5" points="448.31 667.2 449.14 668.31 827.17 1173.83 826.25 1175.09 635.13 1175.44 444.01 1175.8 443.6 1175.24 67.37 667.9 68.14 666.85 449.09 666.14 448.31 667.2"/>
        <polygon class="cls-5" points="807.43 623.87 806.6 622.71 428.53 96.46 429.45 95.16 620.57 94.8 811.69 94.44 812.1 95.02 1188.37 623.15 1187.6 624.25 806.65 624.96 807.43 623.87"/>
        <g class="cls-13">
          <polygon class="cls-5" points="449.73 622.81 449.48 623.18 68.14 623.9 258.37 344.04 420.51 105.49 611.74 384.46 449.73 622.81"/>
        </g>
        <line class="cls-3" x1="801.06" y1="645.75" x2="2852.18" y2="645.75"/>
      </g>
    </g>
  </g>
</svg>