<svg xmlns="http://www.w3.org/2000/svg" viewBox="50 50 1170 1120">
  <polygon fill="#00a6e1" points="811.89 638.37 812.14 638.02 1193.48 637.3 1003.23 906.16 841.07 1135.33 649.86 867.35 811.89 638.37"/>
  <polygon fill="#086090" points="454.19 637.78 455.02 638.9 833.05 1144.42 832.13 1145.67 641.01 1146.03 449.89 1146.38 449.48 1145.83 73.25 638.49 74.03 637.44 454.97 636.73 454.19 637.78"/>
  <polygon fill="#086090" points="813.31 594.45 812.48 593.3 434.41 67.05 435.33 65.75 626.45 65.39 817.57 65.03 817.98 65.6 1194.25 593.74 1193.48 594.84 812.53 595.55 813.31 594.45"/>
  <polygon fill="#00a6e1" points="455.61 593.4 455.36 593.76 74.02 594.49 264.25 314.63 426.39 76.08 617.62 355.05 455.61 593.4"/>
</svg>
