<?xml version="1.0" encoding="utf-8"?>
<!-- Generator: Adobe Illustrator 30.3.0, SVG Export Plug-In . SVG Version: 9.03 Build 0)  -->
<svg version="1.1" id="Layer_1" xmlns="http://www.w3.org/2000/svg" xmlns:xlink="http://www.w3.org/1999/xlink" x="0px" y="0px"
	 viewBox="0 0 158.9 60.22" style="enable-background:new 0 0 158.9 60.22;" xml:space="preserve">
<g>
	<path d="M143.85,55.39l-10.75,0l-0.74-0.26c-1.2-0.28-1.9-1.14-2.31-2.32l-5.72-24.98l-0.77,0l-5.72,24.98
		c-0.29,1.28-1.32,2.1-2.45,2.36l-0.6,0.22l-10.87,0l-0.79-0.33c-1.04-0.31-1.79-1.42-2.03-2.52l-2.88-12.85l-7.43,0.03
		c-0.15,2.75-0.42,5.18-1.08,7.72c-0.91,2.82-2.53,5.37-5.28,6.67c-1.29,0.61-2.89,1.02-4.4,1.02l-20.28-0.01
		c-1.58,0-3.26-0.53-4.54-1.26c-5.01-2.87-5.55-8.68-5.95-14.16l-4.83,0l-0.02,15.48l-12.67,0l0-15.48l-15.53,0l0,15.48L3.48,55.2
		l0.01-15.5l12.72,0l0.02-14.56l15.52,0c0-1.09-0.13-2.16-0.39-3.25c-0.48-0.92-1.14-1.68-2.25-1.79c-4.61-0.49-8.73-0.38-12.9,1.72
		l0,3.33L3.49,25.13L3.48,9.73l12.72,0l0.05,5.88c3-2.48,6.38-5.79,9.92-5.84c3.43-0.05,6.72-0.13,10.08,0.06
		c2.94,0.17,5.53,1.69,6.89,4.21c1.48,2.73,1.22,7.51,1.29,11.09l4.82,0.01c0.37-4.8,0.79-10.17,4.7-13.33c1.63-1.31,3.76-2,5.95-2
		l19.8-0.03c1.79,0,3.61,0.41,5.12,1.22c4.9,2.62,5.65,8.82,5.95,14.13l4.2-0.02l-3.4-15.37l12.79-0.03l5.37,31.4
		c0.26,0.06,0.58,0.03,0.84-0.08l6.61-28.88c0.31-1.5,1.48-2.57,3.07-2.57l8.16-0.01c1.44,0,2.7,0.98,3.04,2.42l6.86,29.15l0.8-0.04
		l5.21-31.39l11.97,0.01l-9.53,42.92c-0.38,1.09-0.96,2.08-2.03,2.4L143.85,55.39z M78.19,25.13l-0.4-3.68
		c-0.35-1.05-1.11-1.57-2.24-1.67l-10.94,0c-2.66,0.14-2.55,2.59-2.73,5.36L78.19,25.13z M70.43,27.28
		c-0.01-0.36-0.01-0.78-0.17-0.78l-0.73,0.01c-0.16,0-0.13,0.43-0.13,0.75c0,0.31,0.2,0.57,0.48,0.56
		C70.19,27.81,70.44,27.54,70.43,27.28z M75.47,45.12c2.5,0,2.67-2.87,2.71-5.42l-16.33,0l0.4,3.52c0.14,1.21,1.17,1.84,2.36,1.92
		L75.47,45.12z"/>
	<path style="fill:#FFFFFF;" d="M103.91,55.39l-100.62,0l0-46.05l153.11,0l0,46.05l-12.54,0l0.89-0.33c1.08-0.32,1.65-1.31,2.03-2.4
		l9.53-42.92l-11.97-0.01l-5.21,31.39l-0.8,0.04l-6.86-29.15c-0.34-1.44-1.6-2.42-3.04-2.42l-8.16,0.01c-1.59,0-2.76,1.07-3.07,2.57
		l-6.61,28.88c-0.25,0.11-0.57,0.14-0.84,0.08l-5.37-31.4L91.58,9.75l3.4,15.37l-4.2,0.02c-0.29-5.32-1.05-11.51-5.95-14.13
		c-1.51-0.81-3.34-1.22-5.12-1.22l-19.8,0.03c-2.19,0-4.33,0.69-5.95,2c-3.91,3.16-4.33,8.53-4.7,13.33l-4.82-0.01
		c-0.08-3.58,0.18-8.36-1.29-11.09c-1.36-2.52-3.95-4.03-6.89-4.21c-3.36-0.2-6.65-0.11-10.08-0.06c-3.54,0.05-6.92,3.36-9.92,5.84
		L16.2,9.74l-12.72,0l0.01,15.4l12.73,0.01l0-3.33c4.16-2.1,8.29-2.21,12.9-1.72c1.1,0.12,1.77,0.87,2.25,1.79
		c0.26,1.09,0.39,2.16,0.39,3.25l-15.52,0L16.21,39.7l-12.72,0L3.48,55.2l12.74-0.02l0-15.48l15.53,0l0,15.48l12.67,0l0.02-15.48
		l4.83,0c0.41,5.48,0.94,11.3,5.95,14.16c1.28,0.73,2.96,1.26,4.54,1.26l20.28,0.01c1.51,0,3.12-0.41,4.4-1.02
		c2.75-1.3,4.37-3.85,5.28-6.67c0.66-2.54,0.93-4.97,1.08-7.72l7.43-0.03l2.88,12.85c0.25,1.1,0.99,2.21,2.03,2.52L103.91,55.39z"/>
	<path style="fill:#FFFFFF;" d="M133.1,55.39h-18.32l0.6-0.22c1.13-0.26,2.16-1.08,2.45-2.36l5.72-24.98l0.77,0l5.72,24.98
		c0.41,1.18,1.11,2.04,2.31,2.32L133.1,55.39z"/>
	<path style="fill:#FFFFFF;" d="M78.19,25.13l-16.31,0.01c0.18-2.76,0.06-5.21,2.73-5.36l10.94,0c1.14,0.1,1.89,0.62,2.24,1.67
		L78.19,25.13z"/>
	<path style="fill:#FFFFFF;" d="M75.47,45.12l-10.86,0.02c-1.18-0.08-2.22-0.71-2.36-1.92l-0.4-3.52l16.33,0
		C78.13,42.25,77.96,45.12,75.47,45.12z"/>
</g>
<rect x="3.49" y="25.13" style="fill:#F8EF24;" width="12.72" height="14.56"/>
<polygon style="fill:#E6194C;" points="16.21,25.13 94.99,25.13 98.21,39.69 16.21,39.69 "/>
<polygon points="56.54,28 56.5,26.73 55.53,26.73 55.53,28 "/>
<path d="M68.47,36.79c-0.48,0.02-1.3-0.11-1.59-0.48l-0.03-5.96l2.35-0.04l0.01-0.69l-2.34,0l0-1.96l-0.79,0l0,1.96l-1.34,0.01
	l0.01,0.68l1.33,0.04l-0.01,5.84c0,0.38,0.34,1.12,0.75,1.19c2.36,0.39,2.68-0.66,2.32-0.64L68.47,36.79z"/>
<path d="M31.65,37.26c0.7-0.47,0.68-1.73,0.68-2.41c0-0.98-0.39-1.5-1.33-1.6l-3.55-0.38c-0.52-0.63-0.48-1.88,0.03-2.48l2.99-0.07
	c0.23,0,0.8,0.1,0.84,0.31l0.17,0.79c0.05,0.23,0.12,0.49,0.27,0.52c0.11,0.02,0.46,0.03,0.46-0.09l0.01-0.63
	c0.01-0.94-0.41-1.6-1.4-1.6c-1.16,0.01-2.55-0.1-3.66,0.14c-0.95,0.21-0.8,1.71-0.81,2.35c-0.01,0.96,0.35,1.43,1.23,1.53l3.7,0.42
	c0.41,0.7,0.43,2.09-0.18,2.56c-1.14,0.18-2.2,0.15-3.41,0.11c-0.82-0.03-0.56-1.44-0.79-1.64c-0.12-0.1-0.63-0.13-0.63,0.03
	l-0.03,0.7c-0.02,0.43,0.32,1.44,0.8,1.47C28.63,37.41,30.03,37.43,31.65,37.26z"/>
<path d="M38.82,37.27c1.05-1.26,0.97-3.84-0.47-4l-3.78-0.41c-0.46-0.62-0.45-1.88,0.06-2.46l2.98-0.09
	c1.37-0.04,0.79,1.59,1.3,1.63c0.12,0.01,0.45,0.02,0.45-0.09l0-0.63c0.01-0.94-0.4-1.6-1.39-1.6c-1.17,0.01-2.54-0.08-3.65,0.13
	c-0.93,0.17-0.81,1.59-0.83,2.18c-0.04,1.02,0.28,1.6,1.24,1.71l3.7,0.43c0.41,0.68,0.43,2.07-0.17,2.54
	c-1.16,0.18-2.2,0.15-3.41,0.11c-0.89-0.03-0.56-1.43-0.8-1.63c-0.12-0.1-0.63-0.14-0.63,0.02l-0.03,0.69
	c-0.02,0.43,0.33,1.46,0.8,1.49C35.8,37.41,37.19,37.42,38.82,37.27z"/>
<path d="M50.08,36.7c-1.38-0.01-1.21-3.24-0.98-5.5c0.04-0.35,0.68-0.87,1-0.87l2.25-0.01c0.27,0,0.92,0.18,0.98,0.42l0.21,0.93
	c0.04,0.2,0.3,0.46,0.52,0.52c0.57,0.17,0.19-2.3-0.59-2.42c-1.36-0.2-2.51-0.16-3.92-0.09c-1.61,0.07-1.54,4.05-1.16,6.47
	c0.25,1.58,2.59,1.32,4.94,1.15c0.93-0.07,1.22-2.39,0.89-2.4l-0.5-0.01c-0.27-0.01,0.14,1.85-1.38,1.84L50.08,36.7z"/>
<polygon points="56.41,37.32 56.41,29.65 55.64,29.63 55.64,37.37 "/>
<polygon points="70.97,37.3 70.97,29.65 70.17,29.63 70.17,37.38 "/>
<path d="M85.59,37.35l0.78-0.01l-0.02-6.5c0-1.03-0.93-1.23-1.74-1.25c-1.32-0.03-2.41,0.04-3.34,1.02l-0.2-0.95
	c-0.03-0.12-0.52-0.01-0.68,0.03l0,7.66l0.75,0l0.04-6.06c1.1-1.19,3.56-1.19,4.12-0.73c0.17,0.13,0.29,0.6,0.29,0.84L85.59,37.35z"
	/>
<path d="M92.99,37.27c1.25-0.15,1.17-3.73,0.21-3.86L89,32.83c-0.52-0.59-0.5-2.02,0.15-2.45l2.84-0.06
	c0.24-0.01,0.84,0.06,0.89,0.27l0.17,0.81c0.05,0.25,0.09,0.48,0.22,0.5c0.13,0.02,0.59,0.04,0.58-0.09l-0.05-0.69
	c-0.02-0.28-0.17-0.88-0.32-1.11c-0.15-0.23-0.76-0.39-1.06-0.39l-3.26,0.01c-1.31,0-1.61,2.55-0.84,3.66
	c0.23,0.33,1.22,0.41,1.64,0.46l2.9,0.32c0.43,0.65,0.55,2.22-0.26,2.5c-1.02,0.35-2.21,0.19-3.37,0.15
	c-0.81-0.03-0.52-1.51-0.78-1.63c-0.14-0.07-0.59-0.1-0.6,0.05l-0.03,0.62c-0.04,0.92,0.41,1.6,1.36,1.61
	C90.4,37.38,91.7,37.42,92.99,37.27z"/>
<path style="fill:#FFFFFF;" d="M63.89,30.78c-0.02-0.47-0.49-1.14-0.98-1.14l-3.59,0.04c-0.73,0.01-1.14,1.05-1.16,1.73
	c-0.01,0.37,0.16,0.57,0.43,0.56c0.59-0.03,0.18-1.64,1.26-1.63l3.07,0.02c0.26,0.96,0.32,1.94,0.12,2.76l-3.69-0.06
	c-1.02-0.02-1.54,0.83-1.55,1.88c0,0.74-0.01,1.71,0.6,2.13c0.78,0.53,3.52,0.59,4.66-0.53l0.16,0.81c0.03,0.16,0.7-0.07,0.67-0.13
	L63.89,30.78z M59,36.42c-0.62-0.34-0.61-2.35,0.14-2.54c1.32-0.34,2.56-0.19,3.99-0.17l0.03,2.13C62.02,36.73,60.39,37.18,59,36.42
	z"/>
<path style="fill:#FFFFFF;" d="M31.65,37.26c-1.62,0.18-3.02,0.16-4.61,0.04c-0.48-0.03-0.82-1.05-0.8-1.47l0.03-0.7
	c0.01-0.16,0.52-0.13,0.63-0.03c0.23,0.2-0.03,1.61,0.79,1.64c1.21,0.04,2.27,0.07,3.41-0.11c0.61-0.47,0.59-1.85,0.18-2.56
	l-3.7-0.42c-0.88-0.1-1.24-0.57-1.23-1.53c0.01-0.64-0.15-2.15,0.81-2.35c1.11-0.24,2.5-0.13,3.66-0.14c0.99-0.01,1.41,0.66,1.4,1.6
	l-0.01,0.63c0,0.12-0.34,0.11-0.46,0.09c-0.15-0.03-0.22-0.29-0.27-0.52l-0.17-0.79c-0.04-0.21-0.62-0.32-0.84-0.31l-2.99,0.07
	c-0.52,0.6-0.56,1.85-0.03,2.48L31,33.25c0.94,0.1,1.33,0.63,1.33,1.6C32.33,35.53,32.35,36.78,31.65,37.26z"/>
<path style="fill:#FFFFFF;" d="M38.82,37.27c-1.63,0.14-3.02,0.13-4.62,0.03c-0.47-0.03-0.82-1.06-0.8-1.49l0.03-0.69
	c0.01-0.16,0.51-0.12,0.63-0.02c0.24,0.2-0.09,1.6,0.8,1.63c1.21,0.04,2.26,0.07,3.41-0.11c0.6-0.47,0.58-1.87,0.17-2.54l-3.7-0.43
	c-0.96-0.11-1.27-0.69-1.24-1.71c0.02-0.6-0.1-2.01,0.83-2.18c1.11-0.21,2.48-0.13,3.65-0.13c0.99,0,1.4,0.66,1.39,1.6l0,0.63
	c0,0.11-0.33,0.1-0.45,0.09c-0.51-0.04,0.07-1.67-1.3-1.63l-2.98,0.09c-0.51,0.58-0.52,1.85-0.06,2.46l3.78,0.41
	C39.8,33.43,39.87,36.01,38.82,37.27z"/>
<path style="fill:#FFFFFF;" d="M77.26,37.37l-3.05,0.01c-0.75,0-1.48-0.56-1.59-1.37c-0.22-1.67-0.23-3.35,0-5.01
	c0.11-0.81,0.85-1.36,1.6-1.36l2.84-0.01c0.76,0,1.53,0.44,1.66,1.29C79.12,33.44,79.25,37.36,77.26,37.37z M77.02,36.7
	c0.34,0,0.97-0.61,1-0.96c0.21-2.41,0.4-5.44-1.12-5.43l-2.54,0.01c-1.4,0.01-1.18,3.01-1.05,5.35c0.02,0.42,0.67,1.04,1.07,1.04
	L77.02,36.7z"/>
<path style="fill:#FFFFFF;" d="M92.99,37.27c-1.28,0.16-2.59,0.11-3.81,0.11c-0.95-0.01-1.4-0.69-1.36-1.61l0.03-0.62
	c0.01-0.15,0.46-0.12,0.6-0.05c0.25,0.12-0.03,1.6,0.78,1.63c1.16,0.04,2.34,0.2,3.37-0.15c0.8-0.27,0.68-1.84,0.26-2.5l-2.9-0.32
	c-0.42-0.05-1.41-0.12-1.64-0.46c-0.78-1.11-0.48-3.66,0.84-3.66l3.26-0.01c0.3,0,0.91,0.16,1.06,0.39c0.15,0.23,0.3,0.83,0.32,1.11
	l0.05,0.69c0.01,0.13-0.45,0.12-0.58,0.09c-0.13-0.02-0.17-0.25-0.22-0.5l-0.17-0.81c-0.05-0.22-0.65-0.28-0.89-0.27l-2.84,0.06
	c-0.65,0.42-0.67,1.85-0.15,2.45l4.2,0.57C94.15,33.53,94.24,37.11,92.99,37.27z"/>
<path style="fill:#FFFFFF;" d="M45.56,37.37l-3.64-0.03c-0.5,0-1.18-0.9-1.22-1.43c-0.26-2.84-0.49-6.29,1.64-6.28l3.06,0.01
	c0.54,0,1.28,0.52,1.39,1.11C47.24,33.17,47.31,37.39,45.56,37.37z M45.04,36.71c1.52,0,1.26-2.88,1.14-5.3
	c-0.03-0.54-0.68-1.09-1.15-1.09l-2.53,0c-0.39,0-1.03,0.55-1.06,1c-0.14,2.35-0.37,5.39,1.05,5.39L45.04,36.71z"/>
<path style="fill:#FFFFFF;" d="M50.08,36.7l2.26,0.02c1.52,0.01,1.11-1.84,1.38-1.84l0.5,0.01c0.33,0.01,0.04,2.33-0.89,2.4
	c-2.35,0.17-4.69,0.43-4.94-1.15c-0.38-2.42-0.45-6.4,1.16-6.47c1.4-0.06,2.56-0.11,3.92,0.09c0.79,0.12,1.16,2.59,0.59,2.42
	c-0.22-0.07-0.48-0.33-0.52-0.52l-0.21-0.93c-0.05-0.24-0.7-0.42-0.98-0.42l-2.25,0.01c-0.32,0-0.97,0.52-1,0.87
	C48.87,33.46,48.7,36.69,50.08,36.7z"/>
<path style="fill:#FFFFFF;" d="M85.59,37.35l0-5.96c0-0.24-0.12-0.71-0.29-0.84c-0.57-0.45-3.03-0.45-4.12,0.73l-0.04,6.06l-0.75,0
	l0-7.66c0.16-0.04,0.65-0.15,0.68-0.03l0.2,0.95c0.93-0.98,2.02-1.05,3.34-1.02c0.81,0.02,1.74,0.22,1.74,1.25l0.02,6.5L85.59,37.35
	z"/>
<path style="fill:#FFFFFF;" d="M68.47,36.79l0.66-0.03c0.36-0.02,0.04,1.02-2.32,0.64c-0.41-0.07-0.75-0.81-0.75-1.19l0.01-5.84
	l-1.33-0.04l-0.01-0.68l1.34-0.01l0-1.96l0.79,0l0,1.96l2.34,0l-0.01,0.69l-2.35,0.04l0.03,5.96C67.17,36.67,68,36.81,68.47,36.79z"
	/>
<polygon style="fill:#FFFFFF;" points="56.41,37.32 55.64,37.37 55.64,29.63 56.41,29.65 "/>
<polygon style="fill:#FFFFFF;" points="70.97,37.3 70.17,37.38 70.17,29.63 70.97,29.65 "/>
<polygon style="fill:#FFFFFF;" points="56.54,28 55.53,28 55.53,26.73 56.5,26.73 "/>
<path style="fill:#FFFFFF;" d="M71.1,27.52c0.01,0.26-0.24,0.53-0.55,0.54c-0.28,0.01-0.49-0.25-0.48-0.56
	c0.01-0.32-0.02-0.75,0.13-0.75l0.73-0.01C71.1,26.74,71.09,27.16,71.1,27.52z"/>
<path style="fill:#FFFFFF;" d="M24.78,30.85c0-0.58-0.52-1.21-1.1-1.21l-3-0.01c-1.04,0-1.59,0.74-1.63,1.83
	c-0.01,0.26,0.24,0.52,0.51,0.51c0.16-0.01,0.32-0.34,0.32-0.52c0-0.79,0.48-1.15,1.18-1.14l2.68,0.04
	c0.34,0.85,0.39,1.84,0.25,2.77c-1.36-0.06-2.55-0.13-3.85-0.05c-1.01,0.07-1.44,0.96-1.43,2.02c0,0.81,0.04,1.92,0.9,2.14
	c1.3,0.34,3.2,0.29,4.28-0.6l0.32,0.73c0.05,0.11,0.53-0.02,0.59-0.06L24.78,30.85z M24.02,35.84c-1.17,0.92-2.9,1.36-4.18,0.55
	c-0.62-0.39-0.49-2.15,0.11-2.52c1.38-0.29,2.69-0.19,4.11-0.14L24.02,35.84z"/>
</svg>
