<?xml version="1.0" encoding="utf-8"?>
<!-- Generator: Adobe Illustrator 23.1.1, SVG Export Plug-In . SVG Version: 6.00 Build 0)  -->
<svg version="1.1" id="Layer_1" xmlns="http://www.w3.org/2000/svg" xmlns:xlink="http://www.w3.org/1999/xlink" x="0px" y="0px"
	 viewBox="0 0 419 323" enable-background="new 0 0 419 323" xml:space="preserve">
<line fill="none" x1="-1" y1="11" x2="442.1" y2="11"/>
<g>
	<path d="M20.4,126.2c1.2-12,9.4-16.6,23.8-16.6c9.8,0,22,2.5,22,13.6V149c0,2.8,1.3,4.1,4.1,4.1c1,0,2.3-0.2,3.2-0.4v6.4
		c-2.2,0.4-4.9,0.5-7.1,0.5c-4.6,0-7.6-1.3-8.2-6.7c-3.7,4.9-12.6,7.8-20.4,7.8c-15.9,0-19.5-8.2-19.5-14.5
		c0-8.8,5.2-13.3,20.6-14.9l10.4-1.1c5.1-0.6,8.3-1.5,8.3-5.8c0-6.6-6.4-7.9-13.8-7.9c-7.9,0-14.5,2.1-14.8,9.5h-8.6V126.2z
		 M57.6,134c-1.4,1.6-3.8,2.2-9,2.8l-10.3,1.3c-7.1,0.9-10.9,2.8-10.9,7.9c0,4.5,4.5,7.6,11.2,7.6c10.3,0,19-5.5,19-13.4
		C57.6,140.2,57.6,134,57.6,134z"/>
</g>
<line fill="none" x1="-1" y1="11" x2="442.1" y2="11"/>
<g>
	<path d="M83.4,111.2h9.1v7.2h0.2c4.3-6.7,11.9-8.9,18.7-8.9c11.5,0,20.1,4.9,20.1,16.9V159h-9.1v-30.8c0-7-4.4-11.1-14.2-11.1
		c-8.3,0-15.7,4.8-15.7,14.3V159h-9.1V111.2z"/>
</g>
<line fill="none" x1="-1" y1="11" x2="442.1" y2="11"/>
<g>
	<path d="M146.4,111.2h9.1v7.2h0.2c4.3-6.7,11.9-8.9,18.7-8.9c11.5,0,20.1,4.9,20.1,16.9V159h-9.2v-30.8c0-7-4.4-11.1-14.2-11.1
		c-8.3,0-15.7,4.8-15.7,14.3V159h-9.1L146.4,111.2L146.4,111.2z"/>
</g>
<line fill="none" x1="-1" y1="11" x2="442.1" y2="11"/>
<g>
	<path d="M257.5,159.1h-9.1v-7.2h-0.2c-4.3,6.7-11.9,8.9-18.7,8.9c-11.5,0-20.1-4.9-20.1-16.9v-32.6h9.1v30.8
		c0,7,4.4,11.1,14.2,11.1c8.3,0,15.7-4.9,15.7-14.3v-27.6h9.1V159.1z"/>
</g>
<line fill="none" x1="-1" y1="11" x2="442.1" y2="11"/>
<g>
	<path d="M272.2,126.2c1.2-12,9.4-16.6,23.8-16.6c9.8,0,22,2.5,22,13.6V149c0,2.8,1.3,4.1,4.1,4.1c1,0,2.3-0.2,3.2-0.4v6.4
		c-2.2,0.4-4.9,0.5-7.1,0.5c-4.6,0-7.6-1.3-8.2-6.7c-3.7,4.9-12.6,7.8-20.4,7.8c-15.9,0-19.5-8.2-19.5-14.5
		c0-8.8,5.2-13.3,20.6-14.9l10.4-1.1c5.1-0.6,8.3-1.5,8.3-5.8c0-6.6-6.4-7.9-13.8-7.9c-7.9,0-14.5,2.1-14.8,9.5h-8.6V126.2z
		 M309.5,134c-1.4,1.6-3.8,2.2-9,2.8l-10.3,1.3c-7.1,0.9-10.9,2.8-10.9,7.9c0,4.5,4.5,7.6,11.2,7.6c10.3,0,19-5.5,19-13.4V134
		L309.5,134z"/>
</g>
<line fill="none" x1="-1" y1="11" x2="442.1" y2="11"/>
<g>
	<rect x="335.2" y="93.2" width="9.1" height="65.8"/>
</g>
<line fill="none" x1="-1" y1="11" x2="442.1" y2="11"/>
<g>
	<path d="M88.7,208.5c0-8.3-5.3-10.8-10.9-10.8c-7.8,0-14.8,3.7-14.8,12.1v27.3h-8.6v-28.6c0-8.3-5.3-10.8-10.9-10.8
		c-7.8,0-14.8,4.6-14.8,13.4v26h-8.6V192h8.6v6.8H29c4-6.3,11.2-8.4,17.6-8.4c5.9,0,11.7,2.4,15.3,8.4c4.1-5.2,9.6-8.4,18.3-8.4
		c4.6,0,17.1,2.2,17.1,15.9V237h-8.6V208.5z"/>
</g>
<line fill="none" x1="-1" y1="11" x2="442.1" y2="11"/>
<g>
	<path d="M114.9,217.2c0.7,9.3,9,14.3,16.6,14.3c4.9,0,11.6-1.6,14.6-8h9.1c-4.3,10.8-14.4,15.2-23.2,15.2
		c-17.6,0-26.2-11.1-26.2-24.1s8.6-24.1,26.2-24.1c11.9,0,24.5,6.9,24.5,25.6v1.1H114.9z M147.3,210.4c-1.3-8.2-7.7-12.7-15.8-12.7
		c-7.9,0-15.1,4.7-16.4,12.7H147.3z"/>
</g>
<line fill="none" x1="-1" y1="11" x2="442.1" y2="11"/>
<g>
	<path d="M172.3,217.2c0.7,9.3,9,14.3,16.6,14.3c4.9,0,11.6-1.6,14.6-8h9.1c-4.3,10.8-14.4,15.2-23.2,15.2
		c-17.6,0-26.2-11.1-26.2-24.1s8.6-24.1,26.2-24.1c11.9,0,24.5,6.9,24.5,25.6v1.1H172.3z M204.7,210.4c-1.3-8.2-7.7-12.7-15.8-12.7
		c-7.9,0-15.1,4.7-16.4,12.7H204.7z"/>
</g>
<line fill="none" x1="-1" y1="11" x2="442.1" y2="11"/>
<g>
	<path d="M226.4,178.2h8.6v13.9h12.9v6.7H235v27.7c0,3.6,2.6,4.9,7,4.9c2,0,4-0.3,5.9-0.6v7.2c-2.9,0.5-6.1,0.6-9.6,0.6
		c-8.4,0-11.9-4.1-11.9-10.7v-29.3h-9.3v-6.7h9.3V178.2z"/>
</g>
<line fill="none" x1="-1" y1="11" x2="442.1" y2="11"/>
<g>
	<path d="M254.5,175.1h8.6v9.5h-8.6V175.1z M254.5,192h8.6v45.1h-8.6V192z"/>
</g>
<line fill="none" x1="-1" y1="11" x2="442.1" y2="11"/>
<g>
	<path d="M273.6,192h8.6v6.8h0.2c4-6.3,11.2-8.4,17.6-8.4c10.9,0,19,4.7,19,15.9V237h-8.6v-29c0-6.6-4.1-10.4-13.3-10.4
		c-7.8,0-14.8,4.6-14.8,13.4v26h-8.6v-45H273.6z"/>
</g>
<line fill="none" x1="-1" y1="11" x2="442.1" y2="11"/>
<g>
	<path d="M369.8,192h8.6v41.3c0,16.2-7.7,22.7-26.3,22.7c-9.7,0-20.9-1.6-22.7-14h8.6c1.6,5.9,6.8,7.3,15,7.3
		c12.2,0,16.8-6.2,16.8-13.6v-6.5h-0.2c-4.8,7-11.6,8.3-17.5,8.3c-12,0-24.7-6.5-24.7-23.2c0-16.8,12.7-23.3,24.6-23.3
		c7.4,0,14.2,2.5,17.6,7.7h0.2V192z M353.2,198.2c-10.5,0-16.6,6.9-16.6,16.2s6.1,15.9,16.6,15.9c10.4,0,16.6-6.6,16.6-15.9
		S363.6,198.2,353.2,198.2"/>
</g>
<line fill="none" x1="-1" y1="11" x2="442.1" y2="11"/>
<g>
	<path d="M41.5,287.8c-2.3,2.9-6.7,4.3-11,4.3c-9.3,0-12.2-5.1-12.2-9.2c0-3.9,2.3-7.2,8.1-9.2c-2.7-2.4-3.4-4.5-3.4-6.3
		c0-4.2,2.9-7,8-7c4.9,0,7.9,3,7.9,6.7c0,2.4-1.4,5.4-6,7.2l8.2,7.6c0.9-1.4,1.3-2.7,1.4-4.8h4.1c-0.1,2.4-0.7,5-2.6,7.6l7.3,6.7h-6
		L41.5,287.8z M28.8,276.1c-4.8,2-5.9,4.2-5.9,6.7s1.8,5.7,7.9,5.7c3,0,6.1-0.7,7.9-3.2L28.8,276.1z M30.3,272
		c3.3-1.3,4.5-3.1,4.5-4.6c0-1.8-1.6-3.3-3.7-3.3c-2.8,0-4,1.6-4,3.1C27.1,268.6,28.1,270,30.3,272"/>
</g>
<line fill="none" x1="-1" y1="11" x2="442.1" y2="11"/>
<g>
	<path d="M70.1,281c0.4,4.9,4.7,7.6,8.8,7.6c2.6,0,6.1-0.9,7.7-4.2h4.8c-2.3,5.7-7.6,8.1-12.3,8.1c-9.3,0-13.8-5.9-13.8-12.7
		c0-6.9,4.5-12.7,13.8-12.7c6.3,0,12.9,3.6,12.9,13.5v0.6H70.1V281z M87.2,277.4c-0.7-4.3-4.1-6.7-8.3-6.7c-4.2,0-8,2.5-8.6,6.7
		H87.2z"/>
</g>
<line fill="none" x1="-1" y1="11" x2="442.1" y2="11"/>
<g>
	<polygon points="116.2,267.7 122.2,267.7 112.2,279.2 123,291.6 116.6,291.6 109.1,282.5 101.5,291.6 95.5,291.6 106.1,279.2 
		96.3,267.7 102.5,267.7 109.3,275.9 	"/>
</g>
<line fill="none" x1="-1" y1="11" x2="442.1" y2="11"/>
<g>
	<path d="M127.3,267.7h4.6v3.3h0.1c1.8-2.5,5.6-3.9,9.1-3.9c7.2,0,13,4.6,13,12.6s-5.8,12.6-13,12.6c-3.6,0-7.2-1.3-9.1-3.9h-0.1
		v12.3h-4.6V267.7z M140.4,271c-6.2,0-8.8,4.3-8.8,8.8c0,5.5,3.5,8.8,8.8,8.8s8.7-3.3,8.7-8.8C149.2,275.3,146.6,271,140.4,271"/>
</g>
<line fill="none" x1="-1" y1="11" x2="442.1" y2="11"/>
<g>
	<path d="M173.1,266.9c9.3,0,13.8,5.9,13.8,12.7c0,6.9-4.6,12.7-13.8,12.7c-9.3,0-13.8-5.9-13.8-12.7S163.8,266.9,173.1,266.9
		 M173.1,270.7c-6.6,0-9,4.6-9,8.9s2.4,8.9,9,8.9s9-4.6,9-8.9C182.1,275.3,179.7,270.7,173.1,270.7"/>
</g>
<line fill="none" x1="-1" y1="11" x2="442.1" y2="11"/>
<g>
	<path d="M196.4,284c0,2.1,1.7,4.8,7.5,4.8c5.9,0,7.3-2.1,7.3-3.7c0-1.7-0.9-2.7-4.5-3.2l-7.5-1c-3.4-0.5-6.5-2.6-6.5-6.3
		c0-4.8,4.2-7.7,10.9-7.7c7.8,0,11.2,3.4,11.7,8h-4.5c-0.1-2.4-2.4-4.5-7.1-4.5c-2.9,0-6.3,0.8-6.3,3.6c0,1.6,0.7,2.5,4,3l6.5,0.9
		c6,0.8,8.3,3,8.3,6.3c0,5.6-4.7,8.1-12,8.1c-5.5,0-11.7-1.4-12.2-8.3L196.4,284L196.4,284z"/>
</g>
<line fill="none" x1="-1" y1="11" x2="442.1" y2="11"/>
<g>
	<path d="M222,258.8h4.6v5H222V258.8z M222,267.7h4.6v23.9H222V267.7z"/>
</g>
<line fill="none" x1="-1" y1="11" x2="442.1" y2="11"/>
<g>
	<path d="M236,260.4h4.5v7.3h6.8v3.5h-6.8v14.7c0,1.9,1.4,2.6,3.7,2.6c1,0,2.1-0.1,3.1-0.3v3.8c-1.6,0.3-3.2,0.3-5.1,0.3
		c-4.5,0-6.3-2.2-6.3-5.7v-15.5H231v-3.5h4.9L236,260.4L236,260.4z"/>
</g>
<line fill="none" x1="-1" y1="11" x2="442.1" y2="11"/>
<g>
	<path d="M252.6,258.8h4.5v5h-4.5V258.8z M252.6,267.7h4.5v23.9h-4.5V267.7z"/>
</g>
<line fill="none" x1="-1" y1="11" x2="442.1" y2="11"/>
<g>
	<path d="M277.3,266.9c9.3,0,13.8,5.9,13.8,12.7c0,6.9-4.6,12.7-13.8,12.7c-9.3,0-13.8-5.9-13.8-12.7S268.1,266.9,277.3,266.9
		 M277.3,270.7c-6.6,0-9,4.6-9,8.9s2.4,8.9,9,8.9c6.6,0,9-4.6,9-8.9C286.4,275.3,283.9,270.7,277.3,270.7"/>
</g>
<line fill="none" x1="-1" y1="11" x2="442.1" y2="11"/>
<g>
	<path d="M297.5,267.7h4.6v3.6h0.1c2.1-3.3,5.9-4.4,9.3-4.4c5.7,0,10,2.5,10,8.4v16.3H317v-15.4c0-3.5-2.2-5.5-7.1-5.5
		c-4.1,0-7.8,2.4-7.8,7.1v13.8h-4.6V267.7z"/>
</g>
<line fill="none" x1="-1" y1="11" x2="442.1" y2="11"/>
<g>
	<path d="M152.8,72.4c0,5.4,1.1,8.4,1.8,9.6h-13.4c-0.8-1.2-1.1-4.2-1.1-5.5c-4.9,3.9-10.6,6-17.1,6c-9.9,0-17.8-6.3-17.8-16.5
		s8.2-14.8,15.9-16.4l5.3-1c4.6-0.9,10.5-2,13.7-3.1v-1.6c0-5.2-4.5-6.6-9.9-6.6c-7.4,0-9.6,3-9.6,7.9h-12.7
		c0-12.3,9-18.2,22.3-17.7c11.3,0.5,22.6,2.3,22.6,17.2V72.4z M140.2,55c-1.7,0.8-3.7,1.5-6,1.9l-6.9,1.4c-4.8,0.9-8.7,2.3-8.7,7.2
		c0,3.9,3.6,6.5,8.2,6.5c5.9,0,13.5-2.9,13.5-9.6V55H140.2z"/>
</g>
<line fill="none" x1="-1" y1="11" x2="442.1" y2="11"/>
<g>
	<path d="M198.1,44.2c-7-4.5-8.7-5.8-14.4-6.3c-5.9-0.5-9.6,2-9.6,5.1c0,9.1,33,1.3,33,21.1c0,12.6-11.3,18.3-23.3,18.3
		c-12.3,0-20.7-4.2-25.4-9.5l7.9-6.2c5.8,4.4,10,5.3,16.7,5.3c6,0,10.1-3.3,10.1-6.1c0-8.9-32.4-1.6-32.4-21.4
		c0-11.8,10.2-17,23.2-17c12.5,0,19.2,6.4,21.6,9.5L198.1,44.2z"/>
</g>
<line fill="none" x1="-1" y1="11" x2="442.1" y2="11"/>
<g>
	<path d="M258.6,72.4c0,5.4,1.4,8.3,2.1,9.4h-13.4c-0.8-1.2-1.4-4.1-1.4-5.4c-4.9,3.9-10.6,6-17.1,6c-9.9,0-17.8-6.3-17.8-16.5
		s8.2-14.8,15.9-16.4l5.3-1c4.6-0.9,10.5-2,13.7-3.1v-1.6c0-5.2-4.5-6.6-9.9-6.6c-7.3,0-9.7,3.1-9.7,8.1l-12.7-0.1
		c0-12.3,9.3-18.3,22.4-17.8c11.3,0.5,22.6,2.3,22.6,17.2L258.6,72.4L258.6,72.4z M246,55c-1.7,0.8-3.7,1.5-6,1.9l-6.9,1.4
		c-4.8,0.9-8.7,2.3-8.7,7.2c0,3.9,3.6,6.5,8.2,6.5c5.9,0,13.5-2.9,13.5-9.6V55H246z"/>
</g>
<line fill="none" x1="-1" y1="11" x2="442.1" y2="11"/>
<g>
	<path d="M277.3,58c0.2,7.8,6.7,12.6,13.6,12.8c9.7,0.4,13.9-2.9,17.2-6.3l8.6,5.1c-3.9,6-11.5,12.8-25.8,12.8
		c-17,0-26.8-11.8-26.8-27.4s9.8-27.4,26.8-27.4c17.5,0,25.2,11.7,25.2,30.4H277.3z M302.7,48.3c0-2.8-3.4-10.4-11.9-10.4
		c-7.3,0-12.2,4.8-13.6,10.4C277.2,48.3,302.7,48.3,302.7,48.3z"/>
</g>
<line fill="none" x1="-1" y1="11" x2="442.1" y2="11"/>
<g>
	<path d="M338.5,34.5c0,4-3.1,7.1-7.1,7.1s-7.1-3.1-7.1-7.1s3.1-7.1,7.1-7.1S338.5,30.5,338.5,34.5 M325.4,34.5c0,3.4,2.6,6.1,6,6.1
		c3.5,0,6-2.7,6-6.1c0-3.4-2.6-6.1-6-6.1C328,28.4,325.4,31.1,325.4,34.5 M329.9,38.6h-1v-8.2h3.2c1.9,0,2.7,0.8,2.7,2.3
		s-1,2.1-2.1,2.3l2.5,3.7H334l-2.3-3.7H330v3.6H329.9z M331.2,34.1c1.2,0,2.5,0,2.5-1.4c0-1.1-1-1.4-2-1.4h-1.9v2.9L331.2,34.1
		L331.2,34.1z"/>
</g>
<line fill="none" x1="-1" y1="11" x2="442.1" y2="11"/>
<g>
	<path d="M21.9,82.1l38-24.6c7.8,9.5,17.6,24.3,17.6,24.3s4.1-16.9-0.6-35.4l23.4-15.1H70.7c-4.3-6.7-9.5-10.2-12.1-11.6l2.9-8.7
		L57,18.9l0,0l0,0l-7.4,12.5l-31.3-0.1l29.6,2.9L45,39.5c-11.4-5.1-26.7-8.1-26.7-8.1s13,5.1,24.6,12L21.9,82.1z M53.5,34.7
		l12.7,0.7c0.8,1.3,3,7.8,3.2,9L60.9,49c-2.8-2.4-10.1-6.5-10.6-6.8L53.5,34.7z M65,31.4H54.8l3.8-11.2C61.5,23.9,63.2,27.1,65,31.4
		 M75.2,40.7c-0.3-0.8-0.6-1.7-1-2.5c-0.4-0.9-0.8-1.7-1.2-2.6l9.4,0.5L75.2,40.7z M66.3,53.5l4.4-2.8c1,7.1,0.8,9.2,0.8,9.2
		S70.5,57.5,66.3,53.5 M55.8,52.9l-13.1,8.2l5.8-14.2c2.1,1.4,4,2.9,5.7,4.4C54.7,51.8,55.3,52.3,55.8,52.9"/>
</g>
</svg>
