<?xml version="1.0" encoding="utf-8"?>
<!-- Generator: Adobe Illustrator 28.0.0, SVG Export Plug-In . SVG Version: 6.00 Build 0)  -->
<svg version="1.1" id="Layer_1" xmlns="http://www.w3.org/2000/svg" xmlns:xlink="http://www.w3.org/1999/xlink" x="0px" y="0px"
	 viewBox="0 0 273.68 120.18" style="enable-background:new 0 0 273.68 120.18;" xml:space="preserve">
<style type="text/css">
	.st0{fill:#F26322;}
</style>
<g>
	<path d="M121.22,60.35c0,3.97,0.8,6.21,1.33,7.05h-9.84c-0.61-0.92-0.8-3.08-0.8-4.07c-3.58,2.9-7.78,4.42-12.58,4.42
		c-7.32,0-13.12-4.65-13.12-12.13c0-7.55,6.02-10.91,11.74-12.05l3.89-0.76c3.36-0.69,7.7-1.45,10.07-2.29v-1.14
		c0-3.81-3.28-4.88-7.32-4.88c-5.41,0-7.11,2.21-7.11,5.84h-9.33c0-9.08,6.62-13.4,16.43-13.01c8.31,0.34,16.63,1.68,16.63,12.66
		V60.35z M111.92,47.54c-1.22,0.61-2.75,1.07-4.42,1.37l-5.11,1.07c-3.51,0.69-6.41,1.68-6.41,5.34c0,2.9,2.67,4.8,6.02,4.8
		c4.35,0,9.91-2.14,9.91-7.09V47.54z"/>
	<path d="M154.58,39.56c-5.15-3.35-6.44-4.25-10.63-4.61c-4.33-0.37-7.09,1.45-7.09,3.74c0,6.71,24.33,0.99,24.33,15.56
		c0,9.3-8.31,13.5-17.16,13.5c-9.08,0-15.25-3.13-18.68-7.02l5.85-4.55c4.25,3.22,7.34,3.94,12.3,3.94c4.42,0,7.47-2.44,7.47-4.5
		c0-6.56-23.87-1.14-23.87-15.79c0-8.69,7.55-12.51,17.08-12.51c9.23,0,14.11,4.73,15.94,7.02L154.58,39.56z"/>
	<path d="M199.16,60.35c0,3.97,1.02,6.11,1.55,6.95h-9.84c-0.61-0.92-1.02-2.98-1.02-3.98c-3.58,2.9-7.78,4.42-12.58,4.42
		c-7.32,0-13.12-4.65-13.12-12.13c0-7.55,6.02-10.91,11.74-12.05l3.89-0.76c3.36-0.69,7.7-1.45,10.07-2.29v-1.14
		c0-3.81-3.28-4.88-7.32-4.88c-5.41,0-7.15,2.31-7.15,5.98l-9.33-0.05c0-9.08,6.81-13.5,16.47-13.1
		c8.31,0.34,16.63,1.68,16.63,12.66V60.35z M189.86,47.54c-1.22,0.61-2.75,1.07-4.42,1.37l-5.11,1.07
		c-3.51,0.69-6.41,1.68-6.41,5.34c0,2.9,2.67,4.8,6.02,4.8c4.35,0,9.91-2.14,9.91-7.09V47.54z"/>
	<path d="M212.88,49.75c0.15,5.72,4.96,9.25,9.99,9.46c7.12,0.29,10.24-2.17,12.64-4.66l6.35,3.75c-2.9,4.42-8.47,9.46-18.99,9.46
		c-12.51,0-19.75-8.69-19.75-20.21c0-11.52,7.24-20.21,19.75-20.21c12.89,0,18.53,8.62,18.53,22.42H212.88z M231.64,42.58
		c0-2.06-2.52-7.63-8.77-7.63c-5.41,0-9,3.51-9.99,7.63H231.64z"/>
</g>
<g>
	<path d="M258.02,32.42c0,2.95-2.29,5.25-5.25,5.25s-5.25-2.3-5.25-5.25c0-2.95,2.29-5.25,5.25-5.25S258.02,29.47,258.02,32.42z
		 M248.34,32.42c0,2.51,1.89,4.5,4.43,4.5c2.54,0,4.43-1.99,4.43-4.5c0-2.51-1.89-4.5-4.43-4.5
		C250.24,27.92,248.34,29.91,248.34,32.42z M251.62,35.45h-0.75v-6.07h2.33c1.37,0,1.98,0.59,1.98,1.68c0,1.07-0.71,1.55-1.52,1.69
		l1.81,2.7h-0.87l-1.71-2.7h-1.26V35.45z M252.61,32.12c0.92,0,1.82-0.03,1.82-1.06c0-0.85-0.71-1.04-1.44-1.04h-1.37v2.1H252.61z"
		/>
</g>
<path class="st0" d="M82.59,30.09l-21.84,0.02c-3.19-4.92-6.96-7.5-8.88-8.57l2.16-6.4l-3.4,5.78l-0.01-0.01l0.01,0.01l-5.42,9.21
	l-23.05-0.05l21.79,2.15L41.8,36.1c-8.38-3.77-19.66-6-19.66-6s9.54,3.75,18.15,8.87l-15.49,28.5L52.8,49.35
	c5.77,7.01,12.99,17.91,12.99,17.91s3.04-12.46-0.42-26.04L82.59,30.09z M51.76,21.87c2.2,2.75,3.42,5.06,4.76,8.24l-7.54,0.01
	L51.76,21.87z M40.15,52.01l4.24-10.42c1.52,1.04,2.95,2.12,4.2,3.22c0.37,0.32,0.77,0.71,1.19,1.14L40.15,52.01z M45.71,38.06
	l2.37-5.53l9.34,0.5c0.58,0.96,2.19,5.77,2.37,6.6l-6.25,3.42C51.5,41.31,46.08,38.27,45.71,38.06z M61.32,51.15
	c0,0-0.71-1.82-3.86-4.73l3.24-2.08C61.45,49.56,61.32,51.15,61.32,51.15z M63.36,35.11c-0.27-0.66-0.55-1.28-0.85-1.89l6.94,0.34
	l-5.39,3.39C63.85,36.33,63.62,35.72,63.36,35.11z"/>
<g>
	<path d="M26.36,82.03h-2.75l0.26-1.08h6.97l-0.24,1.08h-2.75l-1.93,8.35h-1.48L26.36,82.03z"/>
	<path d="M32.12,80.95h0.81c0.38,0,0.54,0.13,0.38,0.88l-0.59,2.56c0.81-0.63,1.72-1.14,2.87-1.14c1.06,0,1.72,0.79,1.39,2.25
		l-1.13,4.89h-0.86c-0.38,0-0.47-0.15-0.36-0.66l0.96-4.22c0.19-0.81-0.08-1.16-0.66-1.16c-0.71,0-1.54,0.39-2.43,1.02l-1.15,5.01
		h-1.37L32.12,80.95z"/>
	<path d="M37.98,87.64c0-2.3,1.48-4.41,3.79-4.41c1.6,0,2.4,0.94,2.38,2.38c0,0.47-0.08,0.98-0.22,1.48h-4.58
		c-0.01,0.18-0.01,0.34-0.01,0.51c0,1.24,0.53,1.83,1.66,1.83c0.85,0,1.47-0.26,1.94-0.62h0.5l-0.24,1.01
		c-0.46,0.3-1.24,0.62-2.34,0.62C38.99,90.46,37.98,89.4,37.98,87.64z M39.51,86.22h3.34c0.05-0.24,0.08-0.47,0.08-0.69
		c0-0.93-0.47-1.37-1.25-1.37C40.61,84.15,39.84,85,39.51,86.22z"/>
	<path d="M48.21,86.73c0-2.88,1.91-5.86,5.39-5.86c1.16,0,1.94,0.26,2.55,0.7l-0.24,1.02h-0.54c-0.42-0.4-0.97-0.63-1.83-0.63
		c-2.65,0-3.83,2.68-3.83,4.78c0,1.78,0.89,2.64,2.45,2.64c0.93,0,1.64-0.3,2.21-0.73h0.61l-0.26,1.1c-0.62,0.42-1.47,0.7-2.64,0.7
		C49.76,90.46,48.21,89.23,48.21,86.73z"/>
	<path d="M56.25,87.64c0-2.3,1.48-4.41,3.79-4.41c1.6,0,2.4,0.94,2.38,2.38c0,0.47-0.08,0.98-0.22,1.48h-4.58
		c-0.01,0.18-0.01,0.34-0.01,0.51c0,1.24,0.53,1.83,1.66,1.83c0.85,0,1.47-0.26,1.94-0.62h0.5l-0.24,1.01
		c-0.46,0.3-1.24,0.62-2.34,0.62C57.26,90.46,56.25,89.4,56.25,87.64z M57.79,86.22h3.34c0.05-0.24,0.08-0.47,0.08-0.69
		c0-0.93-0.47-1.37-1.25-1.37C58.88,84.15,58.11,85,57.79,86.22z"/>
	<path d="M64.53,83.33h0.44c0.66,0,0.78,0.42,0.69,1.06c0.81-0.65,1.72-1.16,2.87-1.16c1.06,0,1.72,0.79,1.39,2.25l-1.13,4.89h-0.86
		c-0.38,0-0.47-0.15-0.36-0.66l0.96-4.22c0.19-0.81-0.08-1.16-0.66-1.16c-0.71,0-1.54,0.39-2.41,1.02l-1.16,5.01h-1.37L64.53,83.33z
		"/>
	<path d="M71.21,88.33l0.93-4.04h-0.82l0.2-0.96h0.84l0.44-1.91h1.39l-0.44,1.91h1.47L75,84.29h-1.48l-0.93,4.1
		c-0.18,0.74,0.07,1.09,0.85,1.09h0.53l-0.19,0.85c-0.24,0.08-0.57,0.13-1,0.13C71.41,90.46,70.91,89.68,71.21,88.33z"/>
	<path d="M75.29,87.64c0-2.3,1.48-4.41,3.79-4.41c1.6,0,2.4,0.94,2.38,2.38c0,0.47-0.08,0.98-0.22,1.48h-4.58
		c-0.01,0.18-0.01,0.34-0.01,0.51c0,1.24,0.53,1.83,1.66,1.83c0.85,0,1.47-0.26,1.94-0.62h0.5l-0.24,1.01
		c-0.46,0.3-1.24,0.62-2.34,0.62C76.3,90.46,75.29,89.4,75.29,87.64z M76.83,86.22h3.34c0.05-0.24,0.08-0.47,0.08-0.69
		c0-0.93-0.47-1.37-1.25-1.37C77.92,84.15,77.15,85,76.83,86.22z"/>
	<path d="M83.57,83.33H84c0.7,0,0.82,0.49,0.69,1.19c0.59-0.71,1.37-1.25,2.21-1.25c0.16,0,0.28,0.03,0.36,0.05L87,84.48h-0.24
		c-0.98,0-1.72,0.49-2.32,1.08l-1.1,4.82h-1.39L83.57,83.33z"/>
	<path d="M91.57,84.29h-0.86l0.2-0.96h0.88l0.15-0.66c0.3-1.28,1.06-1.82,2.22-1.82c0.47,0,0.84,0.07,1.05,0.15l-0.19,0.85h-0.51
		c-0.63,0-1.04,0.17-1.2,0.86l-0.13,0.62h1.4l-0.2,0.96h-1.43l-1.37,6.09h-1.35L91.57,84.29z"/>
	<path d="M94.48,87.58c0-2.52,1.7-4.34,3.83-4.34c1.85,0,2.92,1.14,2.92,2.9c0,2.52-1.62,4.31-3.83,4.31
		C95.56,90.45,94.48,89.35,94.48,87.58z M99.87,86.11c0-1.27-0.61-1.87-1.59-1.87c-1.48,0-2.44,1.6-2.44,3.37
		c0,1.28,0.61,1.86,1.62,1.86C98.97,89.46,99.87,87.85,99.87,86.11z"/>
	<path d="M103.46,83.33h0.43c0.7,0,0.82,0.49,0.69,1.19c0.59-0.71,1.37-1.25,2.21-1.25c0.16,0,0.28,0.03,0.36,0.05l-0.26,1.16h-0.24
		c-0.98,0-1.72,0.49-2.32,1.08l-1.1,4.82h-1.39L103.46,83.33z"/>
	<path d="M109.39,89.95l5.17-9h1.6l1.19,9v0.43h-1.43l-0.32-2.69h-3.57l-1.48,2.69h-1.16V89.95z M112.62,86.62h2.86l-0.5-4.2h-0.03
		L112.62,86.62z"/>
	<path d="M118.33,89.72l0.23-0.96h0.49c0.28,0.34,0.85,0.69,1.67,0.69c0.97,0,1.52-0.42,1.52-1.1c0-0.53-0.38-0.73-1.15-0.98
		c-1.13-0.39-1.81-0.82-1.81-1.87c0-1.36,1-2.24,2.68-2.24c1.04,0,1.72,0.32,2.14,0.65l-0.21,0.92h-0.46
		c-0.3-0.3-0.79-0.57-1.52-0.57c-0.92,0-1.37,0.4-1.37,1.02c0,0.49,0.35,0.69,1.17,0.96c1.06,0.36,1.82,0.75,1.82,1.85
		c0,1.4-1.01,2.37-2.84,2.37C119.51,90.45,118.74,90.06,118.33,89.72z"/>
	<path d="M124.22,89.72l0.23-0.96h0.49c0.28,0.34,0.85,0.69,1.67,0.69c0.97,0,1.52-0.42,1.52-1.1c0-0.53-0.38-0.73-1.15-0.98
		c-1.13-0.39-1.81-0.82-1.81-1.87c0-1.36,1-2.24,2.68-2.24c1.04,0,1.72,0.32,2.14,0.65l-0.21,0.92h-0.46
		c-0.3-0.3-0.79-0.57-1.52-0.57c-0.92,0-1.37,0.4-1.37,1.02c0,0.49,0.35,0.69,1.17,0.96c1.06,0.36,1.82,0.75,1.82,1.85
		c0,1.4-1.01,2.37-2.84,2.37C125.4,90.45,124.63,90.06,124.22,89.72z"/>
	<path d="M130.62,87.58c0-2.52,1.7-4.34,3.83-4.34c1.85,0,2.92,1.14,2.92,2.9c0,2.52-1.62,4.31-3.83,4.31
		C131.7,90.45,130.62,89.35,130.62,87.58z M136.01,86.11c0-1.27-0.61-1.87-1.59-1.87c-1.48,0-2.44,1.6-2.44,3.37
		c0,1.28,0.61,1.86,1.62,1.86C135.11,89.46,136.01,87.85,136.01,86.11z"/>
	<path d="M138.35,87.62c0-2.49,1.76-4.38,4.15-4.38c1,0,1.63,0.28,2.05,0.66l-0.22,0.92h-0.54c-0.2-0.28-0.62-0.55-1.32-0.55
		c-1.67,0-2.75,1.54-2.75,3.34c0,1.16,0.54,1.83,1.64,1.83c0.85,0,1.33-0.28,1.71-0.55h0.55l-0.23,0.96
		c-0.43,0.31-1.12,0.62-2.13,0.62C139.29,90.46,138.35,89.3,138.35,87.62z"/>
	<path d="M146.27,83.33h0.69c0.49,0,0.66,0.13,0.46,1.01l-1.39,6.04h-1.37L146.27,83.33z M146.5,81.78c0-0.45,0.38-0.79,0.81-0.79
		c0.44,0,0.77,0.35,0.77,0.75c0,0.46-0.39,0.79-0.82,0.79C146.81,82.54,146.5,82.2,146.5,81.78z"/>
	<path d="M151.78,89.65c-0.47,0.46-1.1,0.79-1.91,0.79c-1.13,0-1.91-0.65-1.91-1.83c0-1.52,1.21-2.38,3.06-2.38
		c0.67,0,1.08,0.09,1.44,0.23l0.13-0.58c0.26-1.13-0.2-1.63-1.13-1.63c-0.84,0-1.42,0.2-1.91,0.49h-0.43l0.23-1.01
		c0.61-0.27,1.27-0.48,2.32-0.48c1.72,0,2.73,0.82,2.29,2.78l-1.01,4.37h-0.42C152.14,90.38,151.81,90.18,151.78,89.65z
		 M151.94,88.72l0.32-1.46c-0.32-0.12-0.7-0.2-1.19-0.2c-1.16,0-1.82,0.55-1.82,1.46c0,0.66,0.39,1.02,1.05,1.02
		C151,89.54,151.48,89.21,151.94,88.72z"/>
	<path d="M155.27,88.33l0.93-4.04h-0.82l0.2-0.96h0.84l0.44-1.91h1.39l-0.44,1.91h1.47l-0.21,0.96h-1.48l-0.93,4.1
		c-0.17,0.74,0.07,1.09,0.85,1.09h0.53l-0.19,0.85c-0.24,0.08-0.57,0.13-1,0.13C155.47,90.46,154.98,89.68,155.27,88.33z"/>
	<path d="M160.8,83.33h0.69c0.49,0,0.66,0.13,0.46,1.01l-1.39,6.04h-1.37L160.8,83.33z M161.03,81.78c0-0.45,0.38-0.79,0.81-0.79
		c0.44,0,0.77,0.35,0.77,0.75c0,0.46-0.39,0.79-0.82,0.79C161.34,82.54,161.03,82.2,161.03,81.78z"/>
	<path d="M162.81,87.58c0-2.52,1.7-4.34,3.83-4.34c1.85,0,2.92,1.14,2.92,2.9c0,2.52-1.62,4.31-3.83,4.31
		C163.88,90.45,162.81,89.35,162.81,87.58z M168.19,86.11c0-1.27-0.61-1.87-1.59-1.87c-1.48,0-2.44,1.6-2.44,3.37
		c0,1.28,0.61,1.86,1.62,1.86C167.29,89.46,168.19,87.85,168.19,86.11z"/>
	<path d="M171.78,83.33h0.44c0.66,0,0.78,0.42,0.69,1.06c0.81-0.65,1.72-1.16,2.87-1.16c1.06,0,1.72,0.79,1.39,2.25l-1.13,4.89
		h-0.86c-0.38,0-0.47-0.15-0.36-0.66l0.96-4.22c0.19-0.81-0.08-1.16-0.66-1.16c-0.71,0-1.54,0.39-2.41,1.02l-1.16,5.01h-1.37
		L171.78,83.33z"/>
	<path d="M183.1,80.95h1.48l-1.93,8.35h4.27l-0.26,1.08h-5.74L183.1,80.95z"/>
	<path d="M187.94,87.64c0-2.3,1.48-4.41,3.79-4.41c1.6,0,2.4,0.94,2.38,2.38c0,0.47-0.08,0.98-0.22,1.48h-4.58
		c-0.01,0.18-0.01,0.34-0.01,0.51c0,1.24,0.53,1.83,1.66,1.83c0.85,0,1.47-0.26,1.94-0.62h0.5l-0.24,1.01
		c-0.46,0.3-1.24,0.62-2.34,0.62C188.95,90.46,187.94,89.4,187.94,87.64z M189.47,86.22h3.34c0.05-0.24,0.08-0.47,0.08-0.69
		c0-0.93-0.47-1.37-1.25-1.37C190.56,84.15,189.8,85,189.47,86.22z"/>
	<path d="M198.46,89.65c-0.47,0.46-1.1,0.79-1.91,0.79c-1.13,0-1.91-0.65-1.91-1.83c0-1.52,1.21-2.38,3.06-2.38
		c0.67,0,1.08,0.09,1.44,0.23l0.13-0.58c0.26-1.13-0.2-1.63-1.13-1.63c-0.84,0-1.42,0.2-1.91,0.49h-0.43l0.23-1.01
		c0.61-0.27,1.27-0.48,2.32-0.48c1.72,0,2.73,0.82,2.29,2.78l-1.01,4.37h-0.42C198.82,90.38,198.49,90.18,198.46,89.65z
		 M198.62,88.72l0.32-1.46c-0.32-0.12-0.7-0.2-1.19-0.2c-1.16,0-1.82,0.55-1.82,1.46c0,0.66,0.39,1.02,1.05,1.02
		C197.68,89.54,198.16,89.21,198.62,88.72z"/>
	<path d="M206.18,89.4c-0.61,0.62-1.36,1.06-2.28,1.06c-1.2,0-2.17-0.69-2.17-2.49c0-2.52,1.6-4.73,3.87-4.73
		c0.94,0,1.44,0.34,1.81,0.75l0.7-3.04h0.75c0.46,0,0.59,0.12,0.42,0.88l-1.95,8.56H207C206.32,90.38,206.13,89.92,206.18,89.4z
		 M206.37,88.49l0.82-3.58c-0.26-0.3-0.65-0.62-1.39-0.62c-1.7,0-2.68,1.71-2.68,3.64c0,1.08,0.42,1.55,1.24,1.55
		C205.09,89.48,205.76,89.03,206.37,88.49z"/>
	<path d="M209.57,87.64c0-2.3,1.48-4.41,3.79-4.41c1.6,0,2.4,0.94,2.38,2.38c0,0.47-0.08,0.98-0.22,1.48h-4.58
		c-0.01,0.18-0.01,0.34-0.01,0.51c0,1.24,0.53,1.83,1.66,1.83c0.85,0,1.47-0.26,1.94-0.62h0.5l-0.24,1.01
		c-0.46,0.3-1.24,0.62-2.34,0.62C210.58,90.46,209.57,89.4,209.57,87.64z M211.1,86.22h3.34c0.05-0.24,0.08-0.47,0.08-0.69
		c0-0.93-0.47-1.37-1.25-1.37C212.19,84.15,211.42,85,211.1,86.22z"/>
	<path d="M217.84,83.33h0.43c0.7,0,0.82,0.49,0.69,1.19c0.59-0.71,1.37-1.25,2.21-1.25c0.16,0,0.28,0.03,0.36,0.05l-0.26,1.16h-0.24
		c-0.98,0-1.72,0.49-2.32,1.08l-1.11,4.82h-1.39L217.84,83.33z"/>
	<path d="M221.07,89.72l0.23-0.96h0.49c0.28,0.34,0.85,0.69,1.67,0.69c0.97,0,1.52-0.42,1.52-1.1c0-0.53-0.38-0.73-1.15-0.98
		c-1.13-0.39-1.81-0.82-1.81-1.87c0-1.36,1-2.24,2.68-2.24c1.04,0,1.72,0.32,2.14,0.65l-0.21,0.92h-0.46
		c-0.3-0.3-0.79-0.57-1.52-0.57c-0.92,0-1.37,0.4-1.37,1.02c0,0.49,0.35,0.69,1.17,0.96c1.06,0.36,1.82,0.75,1.82,1.85
		c0,1.4-1.01,2.37-2.84,2.37C222.25,90.45,221.48,90.06,221.07,89.72z"/>
	<path d="M229.33,80.95h0.81c0.38,0,0.54,0.13,0.38,0.88l-0.59,2.56c0.81-0.63,1.72-1.14,2.87-1.14c1.06,0,1.72,0.79,1.39,2.25
		l-1.13,4.89h-0.86c-0.38,0-0.47-0.15-0.36-0.66l0.96-4.22c0.19-0.81-0.08-1.16-0.66-1.16c-0.71,0-1.54,0.39-2.43,1.02l-1.15,5.01
		h-1.37L229.33,80.95z"/>
	<path d="M236.5,83.33h0.69c0.49,0,0.66,0.13,0.46,1.01l-1.39,6.04h-1.37L236.5,83.33z M236.73,81.78c0-0.45,0.38-0.79,0.81-0.79
		c0.44,0,0.77,0.35,0.77,0.75c0,0.46-0.39,0.79-0.82,0.79C237.04,82.54,236.73,82.2,236.73,81.78z"/>
	<path d="M239.76,83.33h0.44c0.65,0,0.79,0.4,0.71,1.02c0.62-0.63,1.46-1.12,2.4-1.12c1.12,0,2.03,0.71,2.03,2.51
		c0,2.69-1.48,4.59-3.73,4.59c-0.98,0-1.55-0.34-1.9-0.7l-0.67,2.92h-1.4L239.76,83.33z M240.72,85.27l-0.81,3.52
		c0.27,0.28,0.67,0.59,1.48,0.59c1.71,0,2.59-1.63,2.59-3.61c0-1.08-0.51-1.48-1.17-1.48C242.04,84.29,241.39,84.72,240.72,85.27z"
		/>
</g>
</svg>
