<?xml version="1.0" encoding="UTF-8"?>
<svg id="Layer_1" data-name="Layer 1" xmlns="http://www.w3.org/2000/svg" viewBox="0 0 200.05 98.9">
  <defs>
    <style>
      .cls-1 {
        letter-spacing: -.05em;
      }

      .cls-2 {
        fill: #e02b28;
        stroke: #e02b28;
        stroke-miterlimit: 10;
      }

      .cls-3 {
        fill: #221f1f;
        font-family: StagSans-BoldItalic, 'Stag Sans';
        font-size: 36.02px;
        font-style: italic;
        font-weight: 700;
      }

      .cls-4 {
        fill: #fff;
        stroke-width: 0px;
      }
    </style>
  </defs>
  <polygon class="cls-2" points="167 52.42 10.04 52.42 10.04 9.69 190.42 9.69 167 52.42"/>
  <g>
    <g>
      <path class="cls-4" d="M76.77,40.32c0,2.32.47,3.63.78,4.12h-5.75c-.36-.53-.47-1.8-.47-2.38-2.1,1.69-4.55,2.59-7.36,2.59-4.28,0-7.67-2.72-7.67-7.09s3.52-6.37,6.87-7.04l2.27-.45c1.96-.4,4.5-.85,5.88-1.34v-.67c0-2.23-1.92-2.85-4.28-2.85-3.17,0-4.15,1.29-4.15,3.41h-5.45c0-5.3,3.87-7.83,9.61-7.6,4.86.2,9.72.98,9.72,7.4v11.9ZM71.33,32.83c-.71.36-1.6.62-2.59.8l-2.99.62c-2.05.4-3.74.98-3.74,3.12,0,1.69,1.56,2.81,3.52,2.81,2.54,0,5.8-1.25,5.8-4.15v-3.21Z"/>
      <path class="cls-4" d="M96.27,28.17c-3.01-1.96-3.77-2.49-6.21-2.69s-4.15.85-4.15,2.18c0,3.92,14.22.58,14.22,9.09,0,5.44-4.86,7.89-10.03,7.89s-8.92-1.83-10.92-4.1l3.42-2.66c2.49,1.88,4.29,2.3,7.19,2.3,2.59,0,4.37-1.43,4.37-2.63,0-3.83-13.95-.67-13.95-9.23,0-5.08,4.41-7.31,9.99-7.31s8.25,2.76,9.32,4.1l-3.24,3.05Z"/>
      <path class="cls-4" d="M122.33,40.32c0,2.32.59,3.57.91,4.06h-5.75c-.36-.53-.59-1.74-.59-2.32-2.1,1.69-4.55,2.59-7.36,2.59-4.28,0-7.67-2.72-7.67-7.09s3.52-6.37,6.87-7.04l2.27-.45c1.96-.4,4.5-.85,5.88-1.34v-.67c0-2.23-1.92-2.85-4.28-2.85-3.17,0-4.18,1.35-4.18,3.5l-5.45-.03c0-5.3,3.98-7.89,9.63-7.66,4.85.2,9.72.98,9.72,7.4v11.9ZM116.89,32.83c-.71.36-1.6.62-2.59.8l-2.99.62c-2.05.4-3.74.98-3.74,3.12,0,1.69,1.56,2.81,3.52,2.81,2.54,0,5.8-1.25,5.8-4.15v-3.21Z"/>
      <path class="cls-4" d="M130.35,34.12c.09,3.34,2.9,5.41,5.84,5.53,4.16.17,5.98-1.27,7.39-2.73l3.71,2.19c-1.69,2.59-4.95,5.53-11.1,5.53-7.31,0-11.55-5.08-11.55-11.81s4.23-11.81,11.55-11.81,10.83,5.04,10.83,13.11h-16.67ZM141.31,29.93c0-1.2-1.47-4.46-5.13-4.46-3.17,0-5.26,2.05-5.84,4.46h10.97Z"/>
    </g>
    <path class="cls-4" d="M156.74,23.99c0,1.72-1.34,3.07-3.07,3.07s-3.07-1.34-3.07-3.07,1.34-3.07,3.07-3.07,3.07,1.34,3.07,3.07ZM151.08,23.99c0,1.47,1.11,2.63,2.59,2.63s2.59-1.16,2.59-2.63-1.11-2.63-2.59-2.63-2.59,1.16-2.59,2.63ZM152.99,25.77h-.44v-3.55h1.36c.8,0,1.16.35,1.16.98s-.41.91-.89.99l1.06,1.58h-.51l-1-1.58h-.73v1.58ZM153.57,23.82c.54,0,1.06-.02,1.06-.62,0-.49-.41-.61-.84-.61h-.8v1.23h.58Z"/>
    <path class="cls-4" d="M54.19,22.63h-12.77c-1.86-2.87-4.07-4.37-5.19-5l1.26-3.74-1.99,3.38h0s0,0,0,0l-3.17,5.38-13.47-.03,12.74,1.26-1.26,2.27c-4.9-2.21-11.49-3.51-11.49-3.51,0,0,5.58,2.19,10.61,5.18l-9.06,16.66,16.38-10.59c3.37,4.1,7.59,10.47,7.59,10.47,0,0,1.78-7.28-.24-15.22l10.06-6.51ZM36.17,17.83c1.29,1.61,2,2.96,2.78,4.82h-4.41s1.62-4.82,1.62-4.82ZM29.38,35.45l2.48-6.09c.89.61,1.72,1.24,2.46,1.88.22.19.45.41.69.66l-5.63,3.55ZM32.63,27.29l1.38-3.23,5.46.29c.34.56,1.28,3.37,1.39,3.86l-3.65,2c-1.19-1.01-4.36-2.79-4.58-2.91ZM41.76,34.94s-.42-1.06-2.26-2.76l1.9-1.22c.44,3.05.36,3.98.36,3.98ZM42.95,25.56c-.16-.38-.32-.75-.5-1.1l4.06.2-3.15,1.98c-.13-.36-.26-.72-.41-1.08Z"/>
  </g>
  <text class="cls-3" transform="translate(10.04 86.92)"><tspan class="cls-1" x="0" y="0">A</tspan><tspan x="24.28" y="0">CADEMY</tspan></text>
</svg>