<?xml version="1.0" encoding="utf-8"?>
<!-- Generator: Adobe Illustrator 30.3.0, SVG Export Plug-In . SVG Version: 9.03 Build 0)  -->
<svg version="1.1" id="Layer_1" xmlns="http://www.w3.org/2000/svg" xmlns:xlink="http://www.w3.org/1999/xlink" x="0px" y="0px"
	 viewBox="0 0 158.9 44.96" style="enable-background:new 0 0 158.9 44.96;" xml:space="preserve">
<path style="fill:none;" d="M26.24,21.15c-1.68,0-2.78,1.22-2.78,4.06c0,2.87,1.1,4.15,2.78,4.15c1.64,0,2.74-1.28,2.74-4.15
	C28.98,22.37,27.88,21.15,26.24,21.15z"/>
<path style="fill:none;" d="M13.04,21.06c-1.97,0-3,1.19-3,4.15c0,2.99,0.95,4.15,3.11,4.15c1.35,0,2.26-0.47,2.92-1.07
	c-0.44-0.93-0.69-1.96-0.69-3.11c0-0.98,0.17-1.89,0.5-2.72h-0.35C14.98,21.56,14.47,21.06,13.04,21.06z"/>
<path style="fill:#F26222;" d="M16.07,28.29c-0.65,0.6-1.56,1.07-2.92,1.07c-2.16,0-3.11-1.17-3.11-4.15c0-2.96,1.02-4.15,3-4.15
	c1.43,0,1.94,0.51,2.49,1.4h0.35c0.68-1.77,2.04-3.17,3.89-4.13v-0.62c-1.5-0.48-3.87-0.81-6.87-0.81c-6.91,0-11,3.05-11,8.25
	c0,5.17,3.58,8.1,10.89,8.1c2.98,0,5.29-0.62,6.86-1.42C18.02,30.98,16.78,29.79,16.07,28.29z"/>
<path style="fill:none;" d="M26.24,21.15c-1.68,0-2.78,1.22-2.78,4.06c0,2.87,1.1,4.15,2.78,4.15c1.64,0,2.74-1.28,2.74-4.15
	C28.98,22.37,27.88,21.15,26.24,21.15z"/>
<path style="fill:#E67339;" d="M19.8,28.05h-3.47c-0.08,0.08-0.18,0.16-0.26,0.24c0.71,1.5,1.95,2.7,3.58,3.54
	c0.05-0.02,0.1-0.05,0.15-0.07V28.05z"/>
<path style="fill:#E67339;" d="M15.88,22.46h3.89v-4.13C17.92,19.29,16.56,20.69,15.88,22.46z"/>
<path style="fill:none;" d="M26.24,21.15c-1.68,0-2.78,1.22-2.78,4.06c0,2.87,1.1,4.15,2.78,4.15c1.64,0,2.74-1.28,2.74-4.15
	C28.98,22.37,27.88,21.15,26.24,21.15z"/>
<path style="fill:#AEA299;" d="M33.48,29.3c0.36,0,0.88-0.45,0.88-0.75v-9.12c-1.93-1.62-4.77-2.54-8.12-2.54
	c-2.49,0-4.7,0.51-6.47,1.43v4.13h-3.89c-0.32,0.83-0.5,1.74-0.5,2.72c0,1.14,0.25,2.18,0.69,3.11c0.09-0.08,0.19-0.16,0.26-0.24
	h3.47v3.7c-0.05,0.03-0.1,0.05-0.15,0.07c1.79,0.92,4.04,1.42,6.58,1.42c2.36,0,4.46-0.43,6.18-1.23V29.3H33.48z M26.24,29.36
	c-1.68,0-2.78-1.28-2.78-4.15c0-2.84,1.1-4.06,2.78-4.06c1.64,0,2.74,1.22,2.74,4.06C28.98,28.08,27.88,29.36,26.24,29.36z"/>
<path style="fill:#983695;" d="M43.23,29.3c-0.37,0-0.88-0.45-0.88-0.75V13.37c0-0.81-0.44-1.31-1.17-1.31h-8.84v3.83h1.13
	c0.36,0,0.88,0.45,0.88,0.75v2.81c1.7,1.42,2.7,3.38,2.7,5.74c0,3.14-1.77,5.51-4.64,6.84v0.96h11.91V29.3H43.23z"/>
<path style="fill:#9C5197;" d="M37.05,25.18c0-2.36-1-4.32-2.7-5.74v9.12c0,0.3-0.51,0.75-0.88,0.75h-1.06v2.72
	C35.28,30.69,37.05,28.32,37.05,25.18z"/>
<path style="fill:none;" d="M54.3,28.08c0,1.14,0.77,1.43,1.75,1.43c0.69,0,1.21-0.18,1.75-0.51v-2.36
	c-0.48-0.06-1.06-0.12-1.54-0.12C54.99,26.52,54.3,26.91,54.3,28.08z"/>
<path style="fill:none;" d="M54.3,23.74c1.43,0,2.45,0.06,3.51,0.21V23c0-1.1-0.73-1.61-2.59-1.61c-1.97,0-3,0.57-3.76,1.08h-1.5
	v1.94C51.13,23.95,52.61,23.74,54.3,23.74z"/>
<path style="fill:#F26222;" d="M46.81,28.67c0-2.15,1.16-3.54,3.14-4.28v-1.94h-1.82v-4.45c0.54-0.16,1.15-0.31,1.82-0.44v-4.19
	c0-0.81-0.44-1.31-1.17-1.31h-8.84v3.83h1.13c0.36,0,0.88,0.45,0.88,0.75v11.92c0,0.3-0.51,0.75-0.88,0.75h-1.06v3.68h10.8
	C48.52,32.48,46.81,31.07,46.81,28.67z"/>
<path style="fill:#BD9780;" d="M51.92,29.3h-1.1c-0.37,0-0.88-0.45-0.88-0.75V24.4c-1.98,0.74-3.14,2.13-3.14,4.28
	c0,2.39,1.71,3.81,4,4.3h1.11V29.3z"/>
<path style="fill:#BD9780;" d="M48.13,22.46h1.82v-4.9c-0.67,0.14-1.29,0.29-1.82,0.44V22.46z"/>
<path style="fill:none;" d="M75,21.59c-0.58,0-1.24,0.12-1.83,0.24v7.11c0.47,0.24,1.02,0.39,1.79,0.39c1.57,0,3-0.78,3-4.12
	C77.96,22.22,76.65,21.59,75,21.59z"/>
<path style="fill:none;" d="M54.3,28.08c0,1.14,0.77,1.43,1.75,1.43c0.69,0,1.21-0.18,1.75-0.51v-2.36
	c-0.48-0.06-1.06-0.12-1.54-0.12C54.99,26.52,54.3,26.91,54.3,28.08z"/>
<path style="fill:#AEA299;" d="M65.21,19.68c-1.08-1.9-3.64-2.77-8.06-2.77c-2.91,0-5.32,0.28-7.2,0.66v4.9h1.5
	c0.77-0.51,1.79-1.08,3.76-1.08c1.86,0,2.59,0.51,2.59,1.61v0.96c-1.06-0.15-2.08-0.21-3.51-0.21c-1.69,0-3.17,0.21-4.35,0.65v4.16
	c0,0.3,0.51,0.75,0.88,0.75h1.1v3.68h-1.11c0.63,0.14,1.3,0.21,1.99,0.21c2.34,0,4.17-0.54,5.55-1.82c0.62,1.19,1.9,1.88,4.39,1.88
	c1.02,0,1.93-0.1,2.74-0.27h-0.27V19.68z M57.81,29.01c-0.55,0.33-1.06,0.51-1.75,0.51c-0.99,0-1.75-0.3-1.75-1.43
	c0-1.17,0.69-1.55,1.97-1.55c0.47,0,1.06,0.06,1.54,0.12V29.01z"/>
<path style="fill:#A88E9A;" d="M67.31,29.3h-0.62c-0.36,0-0.88-0.45-0.88-0.75v-6.3c0-1.01-0.2-1.86-0.6-2.58v13.3h0.27
	c0.69-0.14,1.31-0.33,1.83-0.57V29.3z"/>
<path style="fill:none;" d="M93.51,21.15c-1.68,0-2.78,1.22-2.78,4.06c0,2.87,1.1,4.15,2.78,4.15c1.64,0,2.74-1.28,2.74-4.15
	C96.25,22.37,95.15,21.15,93.51,21.15z"/>
<path style="fill:none;" d="M75,21.59c-0.58,0-1.24,0.12-1.83,0.24v7.11c0.47,0.24,1.02,0.39,1.79,0.39c1.57,0,3-0.78,3-4.12
	C77.96,22.22,76.65,21.59,75,21.59z"/>
<path style="fill:#983695;" d="M84.91,19.84c-1.32-2.18-3.61-2.94-6-2.94c-2.59,0-4.35,0.96-5.74,2.21v-5.74
	c0-0.81-0.44-1.31-1.13-1.31h-8.73v3.83h0.99c0.37,0,0.91,0.45,0.91,0.75v3.04c0.4,0.71,0.6,1.56,0.6,2.58v6.3
	c0,0.3,0.51,0.75,0.88,0.75h0.62v3.11c-0.52,0.23-1.14,0.42-1.83,0.57h5.1c0.51,0,1.28-0.78,1.83-1.67
	c1.06,1.14,2.74,1.97,5.45,1.97c2.89,0,5.3-1.02,6.75-3.16c-1.23-1.3-1.94-2.96-1.94-4.93C82.66,23.03,83.48,21.22,84.91,19.84z
	 M74.96,29.33c-0.77,0-1.32-0.15-1.79-0.39v-7.11c0.58-0.12,1.24-0.24,1.83-0.24c1.64,0,2.96,0.63,2.96,3.62
	C77.96,28.56,76.54,29.33,74.96,29.33z"/>
<path style="fill:#DF5A43;" d="M84.91,19.84c-1.43,1.38-2.25,3.19-2.25,5.34c0,1.97,0.71,3.64,1.94,4.93
	c0.91-1.36,1.44-3.17,1.44-5.47C86.04,22.56,85.61,21,84.91,19.84z"/>
<path style="fill:none;" d="M93.51,21.15c-1.68,0-2.78,1.22-2.78,4.06c0,2.87,1.1,4.15,2.78,4.15c1.64,0,2.74-1.28,2.74-4.15
	C96.25,22.37,95.15,21.15,93.51,21.15z"/>
<path style="fill:#F26222;" d="M100.82,29.3c0.37,0,0.91-0.45,0.91-0.75v-6.69c0-0.27-0.55-0.75-0.91-0.75h-1.02v-2.87
	c-1.74-0.87-3.88-1.34-6.29-1.34c-3.63,0-6.67,1.07-8.6,2.94c0.7,1.16,1.13,2.72,1.13,4.8c0,2.3-0.53,4.11-1.44,5.47
	c1.91,2.01,5.07,3.13,8.91,3.13c2.46,0,4.64-0.47,6.4-1.34V29.3H100.82z M93.51,29.36c-1.68,0-2.78-1.28-2.78-4.15
	c0-2.84,1.1-4.06,2.78-4.06c1.64,0,2.74,1.22,2.74,4.06C96.25,28.08,95.15,29.36,93.51,29.36z"/>
<path style="fill:#BD9780;" d="M104.33,25.18c0-3.12-1.73-5.54-4.53-6.94v2.87h1.02c0.37,0,0.91,0.48,0.91,0.75v6.69
	c0,0.3-0.55,0.75-0.91,0.75H99.9v2.61C102.64,30.56,104.33,28.24,104.33,25.18z"/>
<path style="fill:none;" d="M119.78,28.08c0,1.14,0.77,1.43,1.75,1.43c0.69,0,1.21-0.18,1.75-0.51v-2.36
	c-0.48-0.06-1.06-0.12-1.54-0.12C120.48,26.52,119.78,26.91,119.78,28.08z"/>
<path style="fill:#AEA299;" d="M115.73,17.51V17.2c-0.55-0.15-0.84-0.18-1.17-0.18c-2.45,0-3.76,0.99-4.97,2.33
	c-0.18-1.7-0.69-2.15-1.43-2.15h-8.37v1.05c2.8,1.4,4.53,3.82,4.53,6.94c0,3.06-1.69,5.38-4.42,6.73v1.07h11.8V29.3h-2.01v-6.78
	c0.86-0.2,2.14-0.39,3.91-0.45v-4.06C114.22,17.83,114.94,17.66,115.73,17.51z"/>
<path style="fill:#A88E9A;" d="M115.73,22.04v-4.54c-0.79,0.15-1.51,0.32-2.12,0.5v4.06c0.41-0.02,0.85-0.03,1.32-0.03H115.73z"/>
<path style="fill:none;" d="M119.78,28.08c0,1.14,0.77,1.43,1.75,1.43c0.69,0,1.21-0.18,1.75-0.51v-2.36
	c-0.48-0.06-1.06-0.12-1.54-0.12C120.48,26.52,119.78,26.91,119.78,28.08z"/>
<path style="fill:#983695;" d="M130.04,28.65v-7.53h-1.9v-3.46c-1.36-0.51-3.17-0.76-5.51-0.76c-2.76,0-5.07,0.25-6.91,0.6v4.54
	h-0.8c-0.47,0-0.9,0.01-1.32,0.03v0.39h3.33c0.77-0.51,1.79-1.08,3.76-1.08c1.86,0,2.59,0.51,2.59,1.61v0.96
	c-1.06-0.15-2.08-0.21-3.51-0.21c-4.53,0-7.49,1.49-7.49,4.93c0,3.05,2.78,4.51,5.99,4.51c2.34,0,4.17-0.54,5.55-1.82
	c0.62,1.19,1.9,1.88,4.39,1.88c1.69,0,3.08-0.27,4.17-0.69C130.91,31.89,130.04,30.68,130.04,28.65z M123.29,29.01
	c-0.55,0.33-1.06,0.51-1.75,0.51c-0.99,0-1.75-0.3-1.75-1.43c0-1.17,0.69-1.55,1.97-1.55c0.47,0,1.06,0.06,1.54,0.12V29.01z"/>
<path style="fill:#DF5A43;" d="M132.79,29.3h-0.62c-0.36,0-0.88-0.45-0.88-0.75v-6.3c0-2.28-0.99-3.78-3.15-4.59v3.46h1.9v7.53
	c0,2.03,0.86,3.24,2.35,3.92c0.13-0.05,0.28-0.09,0.4-0.15V29.3z"/>
<path style="fill:none;" d="M146.93,20.64c-1.43,0-2.16,0.75-2.41,2.78h4.6C148.94,21.38,148.31,20.64,146.93,20.64z"/>
<path style="fill:#F26222;" d="M136.47,25.18c0-3.33,1.74-5.87,4.78-7.21V17.2h-3.22v-4.09h-8v4.09h-1.9v0.46
	c2.17,0.82,3.15,2.31,3.15,4.59v6.3c0,0.3,0.51,0.75,0.88,0.75h0.62v3.11c-0.12,0.05-0.27,0.1-0.4,0.15c1.2,0.55,2.81,0.75,4.7,0.75
	c1.83,0,3.29-0.24,4.24-0.45v-0.45C137.93,31.18,136.47,28.64,136.47,25.18z"/>
<path style="fill:#AEA299;" d="M156.54,24.94c0-5.53-3.07-8.04-9.61-8.04c-2.2,0-4.1,0.38-5.67,1.07v3.14h-3.22v6.43
	c0,1.34,0.55,1.76,2.3,1.76h0.99v3.11c1.51,0.55,3.39,0.84,5.7,0.84c4.42,0,6.98-0.63,8.73-1.44v-3.8h-4.2
	c-0.73,0.78-1.72,1.35-3.69,1.35c-2.19,0-3.14-0.87-3.4-2.87h11.99C156.46,26.29,156.54,25.69,156.54,24.94z M144.51,23.42
	c0.26-2.03,0.99-2.78,2.41-2.78c1.39,0,2.01,0.75,2.19,2.78H144.51z"/>
<path style="fill:#BD9780;" d="M140.35,29.3c-1.75,0-2.3-0.42-2.3-1.76v-6.43h3.22v-3.14c-3.04,1.34-4.78,3.87-4.78,7.21
	c0,3.46,1.46,5.99,4.86,7.23V29.3H140.35z"/>
</svg>
