<?xml version="1.0" encoding="utf-8"?>
<!-- Generator: Adobe Illustrator 30.3.0, SVG Export Plug-In . SVG Version: 9.03 Build 0)  -->
<svg version="1.1" id="Layer_1" xmlns="http://www.w3.org/2000/svg" xmlns:xlink="http://www.w3.org/1999/xlink" x="0px" y="0px"
	 viewBox="0 0 158.9 97.17" style="enable-background:new 0 0 158.9 97.17;" xml:space="preserve">
<g>
	<g>
		<path d="M33.54,20.47c0,0.99,0.2,1.55,0.33,1.76h-2.46c-0.15-0.23-0.2-0.77-0.2-1.02c-0.9,0.72-1.94,1.11-3.14,1.11
			c-1.83,0-3.28-1.16-3.28-3.03s1.51-2.72,2.93-3.01l0.97-0.19c0.84-0.17,1.92-0.36,2.52-0.57v-0.29c0-0.95-0.82-1.22-1.83-1.22
			c-1.35,0-1.78,0.55-1.78,1.46h-2.33c0-2.27,1.65-3.35,4.11-3.25c2.08,0.08,4.15,0.42,4.15,3.16L33.54,20.47L33.54,20.47z
			 M31.21,17.27c-0.3,0.15-0.69,0.27-1.11,0.34l-1.28,0.27c-0.88,0.17-1.6,0.42-1.6,1.33c0,0.72,0.67,1.2,1.51,1.2
			c1.09,0,2.48-0.53,2.48-1.77C31.21,18.64,31.21,17.27,31.21,17.27z"/>
		<path d="M41.87,15.28c-1.29-0.84-1.61-1.06-2.66-1.15s-1.77,0.36-1.77,0.93c0,1.68,6.08,0.25,6.08,3.89
			c0,2.32-2.08,3.37-4.29,3.37s-3.81-0.78-4.67-1.75l1.46-1.14c1.06,0.81,1.84,0.98,3.07,0.98c1.11,0,1.87-0.61,1.87-1.12
			c0-1.64-5.96-0.29-5.96-3.94c0-2.17,1.89-3.13,4.27-3.13s3.53,1.18,3.98,1.75l-1.38,1.3L41.87,15.28z"/>
		<path d="M53.01,20.47c0,0.99,0.25,1.53,0.39,1.74h-2.46c-0.15-0.23-0.25-0.75-0.25-0.99c-0.9,0.72-1.94,1.11-3.14,1.11
			c-1.83,0-3.28-1.16-3.28-3.03s1.51-2.72,2.93-3.01l0.97-0.19c0.84-0.17,1.92-0.36,2.52-0.57v-0.29c0-0.95-0.82-1.22-1.83-1.22
			c-1.35,0-1.79,0.58-1.79,1.49h-2.33c0-2.28,1.7-3.39,4.12-3.29c2.08,0.09,4.15,0.42,4.15,3.16
			C53.01,15.38,53.01,20.47,53.01,20.47z M50.69,17.27c-0.3,0.15-0.69,0.27-1.11,0.34l-1.28,0.27c-0.88,0.17-1.6,0.42-1.6,1.33
			c0,0.72,0.67,1.2,1.51,1.2c1.09,0,2.48-0.53,2.48-1.77V17.27z"/>
		<path d="M56.44,17.82c0.04,1.43,1.24,2.31,2.5,2.36c1.78,0.07,2.56-0.54,3.16-1.17l1.59,0.94c-0.72,1.11-2.12,2.36-4.74,2.36
			c-3.13,0-4.94-2.17-4.94-5.05s1.81-5.05,4.94-5.05s4.63,2.15,4.63,5.6L56.44,17.82L56.44,17.82z M61.13,16.03
			c0-0.51-0.63-1.91-2.19-1.91c-1.35,0-2.25,0.88-2.5,1.91H61.13z"/>
		<path d="M67.72,13.49c0,0.74-0.57,1.31-1.31,1.31s-1.31-0.57-1.31-1.31s0.57-1.31,1.31-1.31S67.72,12.75,67.72,13.49z M65.3,13.49
			c0,0.63,0.47,1.12,1.11,1.12s1.11-0.5,1.11-1.12s-0.47-1.12-1.11-1.12S65.3,12.87,65.3,13.49z M66.12,14.25h-0.19v-1.52h0.58
			c0.34,0,0.49,0.15,0.49,0.42s-0.18,0.39-0.38,0.42l0.45,0.67h-0.22l-0.43-0.67h-0.31v0.67L66.12,14.25z M66.37,13.42
			c0.23,0,0.46,0,0.46-0.26c0-0.21-0.18-0.26-0.36-0.26h-0.34v0.53h0.25L66.37,13.42z"/>
		<path d="M9.44,22.25l7-4.53c1.44,1.75,3.25,4.48,3.25,4.48s0.76-3.11-0.1-6.51l4.3-2.78h-5.46c-0.8-1.23-1.74-1.87-2.22-2.14
			l0.54-1.6l-0.85,1.44l0,0l0,0l-1.35,2.3H8.79l5.45,0.52L13.7,14.4c-2.09-0.94-4.91-1.5-4.91-1.5s2.38,0.94,4.53,2.22l-3.87,7.12
			L9.44,22.25z M15.26,13.52l2.33,0.12c0.14,0.24,0.55,1.44,0.59,1.65l-1.56,0.85c-0.51-0.43-1.86-1.19-1.96-1.24L15.26,13.52
			L15.26,13.52z M17.37,12.92h-1.88l0.69-2.06C16.73,11.55,17.03,12.12,17.37,12.92z M19.26,14.63c-0.06-0.15-0.11-0.31-0.18-0.46
			c-0.07-0.16-0.14-0.32-0.21-0.47l1.73,0.08l-1.35,0.85H19.26z M17.6,16.99l0.81-0.52c0.19,1.3,0.15,1.7,0.15,1.7
			s-0.18-0.46-0.97-1.18H17.6z M15.69,16.87l-2.41,1.52l1.06-2.6c0.38,0.26,0.74,0.53,1.05,0.8C15.48,16.67,15.58,16.77,15.69,16.87
			z"/>
	</g>
	<g>
		<path d="M8.78,79.3H9.2c0.08,0,0.15,0.03,0.18,0.08c0.04,0.07,0.06,0.18,0.07,0.35c0.4-0.32,0.81-0.48,1.24-0.48
			c0.19,0,0.35,0.04,0.49,0.11c0.07,0.04,0.13,0.09,0.18,0.16c0.05,0.07,0.1,0.15,0.12,0.24c0.41-0.33,0.84-0.5,1.29-0.5
			c0.29,0,0.51,0.08,0.65,0.24c0.14,0.16,0.21,0.39,0.21,0.68v2.6h-0.67v-2.42c0-0.18-0.04-0.32-0.12-0.4
			c-0.08-0.09-0.2-0.13-0.38-0.13c-0.28,0-0.6,0.11-0.94,0.33v2.63h-0.68v-2.42c0-0.18-0.04-0.31-0.11-0.4
			c-0.07-0.09-0.2-0.13-0.37-0.13c-0.16,0-0.32,0.03-0.46,0.08c-0.14,0.06-0.3,0.14-0.48,0.25v2.63H8.74v-3.47L8.78,79.3z"/>
		<path d="M17.08,82.76h-0.27c-0.09,0-0.17-0.01-0.23-0.04s-0.1-0.08-0.13-0.16c-0.02-0.04-0.03-0.11-0.04-0.19
			c-0.14,0.15-0.29,0.26-0.46,0.32c-0.17,0.07-0.36,0.1-0.58,0.1c-0.33,0-0.6-0.09-0.79-0.28c-0.2-0.18-0.29-0.44-0.29-0.76
			c0-0.15,0.03-0.29,0.08-0.41s0.12-0.22,0.2-0.3s0.19-0.14,0.3-0.2s0.24-0.09,0.36-0.11c0.13-0.02,0.26-0.03,0.4-0.03
			c0.25,0,0.5,0.03,0.76,0.09v-0.46c0-0.21-0.06-0.37-0.18-0.46s-0.29-0.14-0.51-0.14c-0.38,0-0.69,0.1-0.95,0.28h-0.21v-0.5
			c0.4-0.2,0.81-0.3,1.25-0.3c0.2,0,0.37,0.02,0.52,0.05s0.29,0.09,0.4,0.17c0.12,0.08,0.21,0.19,0.27,0.33s0.09,0.31,0.09,0.5v2.46
			L17.08,82.76z M15.6,82.34c0.3,0,0.56-0.13,0.8-0.4V81.2c-0.2-0.04-0.41-0.07-0.64-0.07c-0.11,0-0.21,0-0.3,0.03
			c-0.09,0.02-0.17,0.05-0.25,0.09s-0.14,0.11-0.18,0.18c-0.04,0.08-0.07,0.18-0.07,0.28c0,0.2,0.06,0.35,0.17,0.46
			s0.27,0.15,0.47,0.15L15.6,82.34z"/>
		<path d="M18.62,80.23v2.53h-0.68v-3.47h0.42c0,0,0.07,0,0.11,0.02c0.03,0.01,0.05,0.04,0.08,0.07c0.04,0.07,0.06,0.2,0.07,0.39
			c0.13-0.15,0.28-0.28,0.46-0.37s0.35-0.14,0.54-0.14c0.03,0,0.07,0,0.11,0c0.03,0,0.05,0.01,0.08,0.02v0.56c0,0-0.05,0-0.07,0
			s-0.04,0-0.05,0C19.28,79.84,18.92,79.97,18.62,80.23L18.62,80.23z"/>
		<path d="M21.1,78.57v2.35l1.42-1.63h0.56v0.2l-1.07,1.2l1.19,1.87v0.2h-0.62l-1.03-1.61l-0.45,0.5v1.11h-0.68v-4.64h0.37
			c0.1,0,0.17,0.01,0.21,0.04s0.07,0.09,0.08,0.18c0,0.06,0,0.14,0,0.24L21.1,78.57z"/>
		<path d="M26.58,81.16h-2.33c0.02,0.38,0.11,0.66,0.27,0.85c0.16,0.19,0.42,0.28,0.78,0.28c0.38,0,0.7-0.11,0.96-0.32h0.22v0.47
			c-0.35,0.24-0.77,0.36-1.28,0.36c-0.54,0-0.95-0.16-1.23-0.48c-0.28-0.32-0.42-0.75-0.42-1.28c0-0.24,0.04-0.47,0.11-0.69
			s0.17-0.41,0.3-0.57c0.13-0.16,0.3-0.29,0.5-0.39s0.43-0.14,0.67-0.14c0.21,0,0.4,0.03,0.56,0.08s0.3,0.13,0.41,0.23
			c0.11,0.1,0.2,0.22,0.27,0.36s0.12,0.3,0.16,0.46s0.05,0.34,0.05,0.54c0,0.06,0,0.11,0,0.14s0,0.06,0,0.09L26.58,81.16z
			 M25.14,79.71c-0.14,0-0.27,0.03-0.38,0.08s-0.2,0.13-0.27,0.23c-0.07,0.1-0.12,0.2-0.15,0.32c-0.04,0.11-0.06,0.24-0.07,0.38
			h1.66c0-0.15-0.02-0.28-0.04-0.4c-0.02-0.11-0.07-0.22-0.12-0.32c-0.06-0.1-0.14-0.17-0.24-0.22s-0.23-0.08-0.38-0.08L25.14,79.71
			z"/>
		<path d="M26.95,79.77v-0.48h0.42v-0.94h0.68v0.94h0.77v0.48h-0.77v2.06c0,0.18,0.04,0.3,0.12,0.37s0.2,0.1,0.38,0.1h0.31v0.44
			c-0.16,0.04-0.34,0.07-0.55,0.07c-0.32,0-0.55-0.07-0.7-0.22c-0.15-0.15-0.23-0.37-0.23-0.67v-2.14h-0.42L26.95,79.77z"/>
		<path d="M29.81,78.91c-0.06,0-0.11-0.01-0.15-0.03c-0.07-0.03-0.13-0.08-0.18-0.14c-0.05-0.07-0.07-0.14-0.07-0.21
			c0-0.11,0.04-0.2,0.12-0.28s0.17-0.12,0.28-0.12s0.2,0.04,0.28,0.12s0.12,0.17,0.12,0.28c0,0.08-0.02,0.15-0.07,0.21
			s-0.1,0.11-0.18,0.14C29.91,78.9,29.86,78.91,29.81,78.91z M30.14,82.76h-0.68v-3.47h0.38c0,0,0.07,0,0.1,0
			c0.02,0,0.05,0.01,0.08,0.03s0.05,0.04,0.07,0.07s0.03,0.09,0.04,0.16c0,0.07,0,0.16,0,0.27v2.95L30.14,82.76z"/>
		<path d="M31.05,79.3h0.42c0.09,0,0.15,0.03,0.18,0.08c0.04,0.07,0.06,0.19,0.07,0.36c0.19-0.15,0.4-0.27,0.63-0.36
			c0.23-0.09,0.47-0.13,0.7-0.13c0.31,0,0.54,0.08,0.68,0.24s0.21,0.4,0.21,0.71v2.57h-0.68v-2.41c0-0.2-0.04-0.34-0.12-0.42
			s-0.22-0.13-0.4-0.13c-0.29,0-0.62,0.11-1.01,0.34v2.61h-0.68v-3.47L31.05,79.3z"/>
		<path d="M37.7,79.3v3.35c0,0.18-0.03,0.34-0.09,0.49c-0.06,0.14-0.14,0.26-0.24,0.35c-0.1,0.09-0.22,0.17-0.36,0.23
			c-0.14,0.06-0.28,0.1-0.43,0.13c-0.15,0.02-0.3,0.04-0.47,0.04c-0.54,0-0.98-0.1-1.33-0.29v-0.51H35c0.26,0.2,0.6,0.3,1.02,0.3
			c0.68,0,1.01-0.26,1.01-0.77v-0.37c-0.14,0.15-0.3,0.26-0.48,0.33c-0.18,0.08-0.38,0.12-0.58,0.12c-0.24,0-0.44-0.05-0.62-0.14
			s-0.32-0.21-0.42-0.37s-0.18-0.33-0.23-0.52c-0.05-0.19-0.08-0.4-0.08-0.62c0-0.18,0.02-0.35,0.05-0.52s0.08-0.33,0.15-0.48
			c0.07-0.16,0.17-0.29,0.29-0.42c0.12-0.12,0.27-0.21,0.43-0.27c0.18-0.07,0.35-0.1,0.53-0.1c0.42,0,0.75,0.12,1.01,0.38
			c0.04-0.22,0.15-0.32,0.32-0.32h0.31L37.7,79.3z M36.14,82.18c0.3,0,0.6-0.14,0.89-0.43v-1.66c-0.12-0.11-0.24-0.19-0.36-0.24
			c-0.12-0.05-0.27-0.07-0.43-0.07c-0.14,0-0.27,0.02-0.38,0.07c-0.11,0.04-0.2,0.1-0.27,0.18c-0.07,0.07-0.13,0.16-0.17,0.27
			c-0.04,0.1-0.08,0.21-0.09,0.32c-0.02,0.11-0.03,0.23-0.03,0.36c0,0.11,0,0.22,0.02,0.33c0.01,0.1,0.04,0.21,0.07,0.33
			s0.09,0.22,0.16,0.3c0.07,0.09,0.16,0.15,0.26,0.18C35.91,82.16,36.03,82.18,36.14,82.18L36.14,82.18z"/>
		<path d="M38.71,83.42v-0.33c0.24-0.04,0.35-0.13,0.35-0.26c0-0.03,0-0.05-0.01-0.07s-0.04-0.04-0.09-0.07
			c-0.15-0.06-0.22-0.18-0.22-0.35c0-0.08,0.02-0.14,0.07-0.21c0.04-0.06,0.1-0.11,0.18-0.13c0.05-0.02,0.1-0.03,0.16-0.03
			s0.11,0,0.16,0.03c0.18,0.08,0.27,0.24,0.27,0.49c0,0.29-0.07,0.51-0.21,0.65C39.23,83.29,39.02,83.38,38.71,83.42L38.71,83.42z"
			/>
		<path d="M42.01,79.3h0.42c0.08,0,0.15,0.03,0.18,0.08c0.04,0.07,0.06,0.18,0.07,0.35c0.4-0.32,0.81-0.48,1.24-0.48
			c0.19,0,0.35,0.04,0.49,0.11c0.07,0.04,0.13,0.09,0.18,0.16c0.05,0.07,0.1,0.15,0.12,0.24c0.41-0.33,0.84-0.5,1.29-0.5
			c0.29,0,0.51,0.08,0.65,0.24c0.14,0.16,0.21,0.39,0.21,0.68v2.6h-0.67v-2.42c0-0.18-0.04-0.32-0.12-0.4
			c-0.08-0.09-0.2-0.13-0.38-0.13c-0.28,0-0.6,0.11-0.94,0.33v2.63h-0.68v-2.42c0-0.18-0.04-0.31-0.11-0.4
			c-0.07-0.09-0.2-0.13-0.37-0.13c-0.16,0-0.32,0.03-0.46,0.08c-0.14,0.06-0.3,0.14-0.48,0.25v2.63h-0.68v-3.47L42.01,79.3z"/>
		<path d="M50.56,81.16h-2.33c0.02,0.38,0.11,0.66,0.27,0.85c0.16,0.19,0.42,0.28,0.78,0.28c0.38,0,0.7-0.11,0.96-0.32h0.22v0.47
			c-0.35,0.24-0.77,0.36-1.28,0.36c-0.54,0-0.95-0.16-1.23-0.48s-0.42-0.75-0.42-1.28c0-0.24,0.04-0.47,0.11-0.69
			s0.17-0.41,0.3-0.57c0.13-0.16,0.3-0.29,0.5-0.39s0.43-0.14,0.67-0.14c0.21,0,0.4,0.03,0.56,0.08s0.3,0.13,0.41,0.23
			c0.11,0.1,0.2,0.22,0.27,0.36s0.12,0.3,0.16,0.46s0.05,0.34,0.05,0.54c0,0.06,0,0.11,0,0.14s0,0.06,0,0.09L50.56,81.16z
			 M49.12,79.71c-0.14,0-0.27,0.03-0.38,0.08s-0.2,0.13-0.27,0.23c-0.07,0.1-0.12,0.2-0.15,0.32c-0.04,0.11-0.06,0.24-0.07,0.38
			h1.66c0-0.15-0.02-0.28-0.04-0.4c-0.02-0.11-0.07-0.22-0.12-0.32c-0.06-0.1-0.14-0.17-0.24-0.22c-0.1-0.05-0.23-0.08-0.38-0.08
			L49.12,79.71z"/>
		<path d="M51.24,79.3h0.42c0.08,0,0.15,0.03,0.18,0.08c0.04,0.07,0.06,0.18,0.07,0.35c0.4-0.32,0.81-0.48,1.24-0.48
			c0.19,0,0.35,0.04,0.49,0.11c0.07,0.04,0.13,0.09,0.18,0.16c0.05,0.07,0.1,0.15,0.12,0.24c0.41-0.33,0.84-0.5,1.29-0.5
			c0.29,0,0.51,0.08,0.65,0.24c0.14,0.16,0.21,0.39,0.21,0.68v2.6h-0.67v-2.42c0-0.18-0.04-0.32-0.12-0.4
			c-0.08-0.09-0.2-0.13-0.38-0.13c-0.28,0-0.6,0.11-0.94,0.33v2.63H53.3v-2.42c0-0.18-0.04-0.31-0.11-0.4
			c-0.07-0.09-0.2-0.13-0.37-0.13c-0.16,0-0.32,0.03-0.46,0.08c-0.14,0.06-0.3,0.14-0.48,0.25v2.63H51.2v-3.47L51.24,79.3z"/>
		<path d="M57.65,78.57v1.17c0.33-0.33,0.71-0.49,1.13-0.49c0.3,0,0.55,0.08,0.75,0.24s0.35,0.38,0.44,0.67
			c0.07,0.22,0.11,0.5,0.11,0.83c0,0.63-0.15,1.1-0.46,1.42c-0.25,0.27-0.58,0.41-0.99,0.41c-0.44,0-0.79-0.12-1.05-0.37
			c-0.03,0.08-0.07,0.16-0.13,0.23s-0.12,0.1-0.19,0.1h-0.28v-4.64h0.37c0.1,0,0.17,0.01,0.21,0.04s0.07,0.09,0.08,0.18
			c0,0.06,0,0.14,0,0.24L57.65,78.57z M58.53,79.78c-0.29,0-0.58,0.13-0.88,0.4v1.8c0.21,0.21,0.47,0.32,0.8,0.32
			c0.62,0,0.94-0.42,0.94-1.26S59.1,79.78,58.53,79.78z"/>
		<path d="M63.58,81.16h-2.33c0.02,0.38,0.11,0.66,0.27,0.85c0.16,0.19,0.42,0.28,0.78,0.28c0.38,0,0.7-0.11,0.96-0.32h0.22v0.47
			c-0.35,0.24-0.77,0.36-1.28,0.36c-0.54,0-0.95-0.16-1.23-0.48s-0.42-0.75-0.42-1.28c0-0.24,0.04-0.47,0.11-0.69
			s0.17-0.41,0.3-0.57c0.13-0.16,0.3-0.29,0.5-0.39s0.43-0.14,0.67-0.14c0.21,0,0.4,0.03,0.56,0.08s0.3,0.13,0.41,0.23
			c0.11,0.1,0.2,0.22,0.27,0.36s0.12,0.3,0.16,0.46s0.05,0.34,0.05,0.54c0,0.06,0,0.11,0,0.14s0,0.06,0,0.09V81.16z M62.13,79.71
			c-0.14,0-0.27,0.03-0.38,0.08s-0.2,0.13-0.27,0.23c-0.07,0.1-0.12,0.2-0.15,0.32c-0.04,0.11-0.06,0.24-0.07,0.38h1.66
			c0-0.15-0.02-0.28-0.04-0.4c-0.02-0.11-0.07-0.22-0.12-0.32c-0.06-0.1-0.14-0.17-0.24-0.22c-0.1-0.05-0.23-0.08-0.38-0.08
			L62.13,79.71z"/>
		<path d="M64.93,80.23v2.53h-0.68v-3.47h0.42c0,0,0.07,0,0.11,0.02c0.03,0.01,0.05,0.04,0.08,0.07c0.04,0.07,0.06,0.2,0.07,0.39
			c0.13-0.15,0.28-0.28,0.46-0.37s0.35-0.14,0.54-0.14c0.03,0,0.07,0,0.11,0c0.03,0,0.05,0.01,0.08,0.02v0.56c0,0-0.05,0-0.07,0
			s-0.04,0-0.05,0C65.59,79.84,65.23,79.97,64.93,80.23L64.93,80.23z"/>
		<path d="M67.7,82.8c-0.45,0-0.83-0.1-1.13-0.3v-0.53h0.22c0.22,0.21,0.52,0.31,0.88,0.31c0.48,0,0.72-0.17,0.72-0.5
			c0-0.12-0.03-0.22-0.09-0.28s-0.16-0.11-0.28-0.15c-0.08-0.02-0.2-0.05-0.35-0.07c-0.17-0.03-0.31-0.06-0.44-0.1
			c-0.12-0.04-0.24-0.1-0.34-0.18c-0.1-0.07-0.18-0.17-0.23-0.29s-0.08-0.26-0.08-0.43c0-0.18,0.03-0.34,0.1-0.47
			s0.16-0.24,0.28-0.32c0.12-0.08,0.25-0.13,0.4-0.17s0.3-0.06,0.47-0.06c0.41,0,0.75,0.08,1.02,0.24v0.52h-0.22
			c-0.21-0.16-0.47-0.25-0.8-0.25c-0.09,0-0.17,0-0.24,0.02s-0.14,0.03-0.2,0.06c-0.07,0.03-0.12,0.07-0.16,0.14
			s-0.05,0.14-0.05,0.23c0,0.12,0.03,0.2,0.1,0.26c0.07,0.06,0.17,0.11,0.29,0.14c0.1,0.03,0.21,0.05,0.34,0.07
			c0.14,0.02,0.27,0.05,0.38,0.08s0.21,0.07,0.31,0.12s0.18,0.11,0.24,0.18s0.11,0.16,0.15,0.27c0.04,0.11,0.05,0.23,0.05,0.38
			c0,0.2-0.04,0.37-0.11,0.51s-0.17,0.26-0.3,0.34c-0.13,0.08-0.27,0.14-0.42,0.18S67.89,82.81,67.7,82.8L67.7,82.8z"/>
		<path d="M70.37,78.57v1.16c0.19-0.15,0.4-0.27,0.63-0.36c0.23-0.09,0.47-0.13,0.7-0.13c0.31,0,0.54,0.08,0.68,0.24
			s0.21,0.4,0.21,0.71v2.57h-0.68v-2.41c0-0.2-0.04-0.34-0.12-0.42s-0.22-0.13-0.4-0.13c-0.29,0-0.62,0.11-1.01,0.34v2.61H69.7
			v-4.64h0.37c0.1,0,0.17,0.01,0.21,0.04s0.07,0.09,0.08,0.18c0,0.06,0,0.14,0,0.24H70.37z"/>
		<path d="M73.8,78.91c-0.06,0-0.11-0.01-0.15-0.03c-0.07-0.03-0.13-0.08-0.18-0.14c-0.05-0.07-0.07-0.14-0.07-0.21
			c0-0.11,0.04-0.2,0.12-0.28s0.17-0.12,0.28-0.12s0.2,0.04,0.28,0.12s0.12,0.17,0.12,0.28c0,0.08-0.02,0.15-0.07,0.21
			s-0.1,0.11-0.18,0.14C73.9,78.9,73.85,78.91,73.8,78.91z M74.13,82.76h-0.68v-3.47h0.38c0,0,0.07,0,0.1,0
			c0.02,0,0.05,0.01,0.08,0.03s0.05,0.04,0.07,0.07s0.03,0.09,0.04,0.16c0,0.07,0,0.16,0,0.27v2.95L74.13,82.76z"/>
		<path d="M76.68,82.74c-0.38,0-0.7-0.1-0.96-0.31v1.41h-0.68V79.3h0.42c0.09,0,0.15,0.03,0.18,0.08c0.04,0.07,0.06,0.19,0.07,0.36
			c0.33-0.33,0.71-0.49,1.13-0.49c0.3,0,0.55,0.08,0.74,0.24s0.35,0.38,0.45,0.67c0.07,0.21,0.11,0.48,0.11,0.8
			c0,0.18-0.02,0.36-0.05,0.53c-0.03,0.17-0.08,0.33-0.15,0.49c-0.07,0.16-0.17,0.29-0.29,0.42c-0.13,0.12-0.27,0.21-0.44,0.27
			c-0.18,0.06-0.36,0.09-0.53,0.09L76.68,82.74z M76.61,79.78c-0.28,0-0.58,0.13-0.89,0.4v1.76c0.2,0.2,0.47,0.3,0.8,0.3
			c0.63,0,0.94-0.41,0.94-1.23S77.18,79.78,76.61,79.78z"/>
		<path d="M78.72,83.42v-0.33c0.24-0.04,0.35-0.13,0.35-0.26c0-0.03,0-0.05-0.01-0.07s-0.04-0.04-0.09-0.07
			c-0.15-0.06-0.22-0.18-0.22-0.35c0-0.08,0.02-0.14,0.07-0.21c0.04-0.06,0.1-0.11,0.18-0.13c0.05-0.02,0.1-0.03,0.16-0.03
			c0.06,0,0.11,0,0.16,0.03c0.18,0.08,0.27,0.24,0.27,0.49c0,0.29-0.07,0.51-0.21,0.65c-0.14,0.15-0.35,0.24-0.65,0.28H78.72z"/>
		<path d="M83.48,82.8c-0.36,0-0.67-0.08-0.93-0.23c-0.25-0.15-0.44-0.36-0.57-0.62c-0.12-0.26-0.18-0.57-0.18-0.92
			c0-0.53,0.16-0.96,0.47-1.29s0.73-0.5,1.24-0.5c0.41,0,0.76,0.09,1.04,0.28v0.53h-0.28c-0.19-0.19-0.45-0.28-0.77-0.28
			c-0.14,0-0.27,0.02-0.39,0.07s-0.21,0.11-0.29,0.19s-0.14,0.18-0.19,0.28c-0.05,0.11-0.09,0.22-0.11,0.34
			c-0.02,0.12-0.03,0.24-0.03,0.37c0,0.18,0.02,0.34,0.05,0.48s0.09,0.28,0.17,0.4s0.18,0.21,0.31,0.28s0.29,0.1,0.46,0.1
			c0.36,0,0.64-0.11,0.84-0.33h0.25v0.49c-0.3,0.24-0.67,0.36-1.11,0.36L83.48,82.8z"/>
		<path d="M86.69,82.8c-0.25,0-0.49-0.05-0.7-0.14s-0.39-0.22-0.52-0.38s-0.25-0.35-0.32-0.56c-0.08-0.21-0.11-0.44-0.11-0.69
			c0-0.34,0.07-0.64,0.2-0.91c0.13-0.27,0.32-0.49,0.58-0.64c0.25-0.16,0.55-0.24,0.88-0.24c0.26,0,0.49,0.05,0.7,0.14
			s0.39,0.22,0.52,0.39c0.14,0.16,0.24,0.35,0.32,0.57c0.07,0.22,0.11,0.45,0.11,0.7c0,0.51-0.15,0.94-0.45,1.27
			c-0.3,0.33-0.7,0.5-1.2,0.5L86.69,82.8z M86.69,82.29c0.14,0,0.27-0.02,0.39-0.07c0.11-0.05,0.21-0.11,0.28-0.19
			s0.13-0.17,0.18-0.28s0.08-0.22,0.1-0.34s0.03-0.24,0.03-0.37s-0.01-0.26-0.03-0.38c-0.02-0.12-0.05-0.24-0.1-0.35
			c-0.05-0.11-0.11-0.21-0.18-0.29s-0.16-0.15-0.28-0.2c-0.11-0.05-0.24-0.07-0.38-0.07c-0.18,0-0.33,0.04-0.46,0.11
			s-0.23,0.18-0.3,0.3c-0.07,0.13-0.12,0.27-0.16,0.41c-0.03,0.14-0.05,0.3-0.05,0.46c0,0.13,0.01,0.26,0.03,0.38
			c0.02,0.12,0.06,0.23,0.1,0.34s0.11,0.2,0.18,0.28s0.16,0.14,0.28,0.18C86.43,82.25,86.56,82.28,86.69,82.29L86.69,82.29z"/>
		<path d="M89.02,79.3h0.42c0.08,0,0.15,0.03,0.18,0.08c0.04,0.07,0.06,0.18,0.07,0.35c0.4-0.32,0.81-0.48,1.24-0.48
			c0.19,0,0.35,0.04,0.49,0.11c0.07,0.04,0.13,0.09,0.18,0.16c0.05,0.07,0.1,0.15,0.12,0.24c0.41-0.33,0.84-0.5,1.29-0.5
			c0.29,0,0.51,0.08,0.65,0.24c0.14,0.16,0.21,0.39,0.21,0.68v2.6H93.2v-2.42c0-0.18-0.04-0.32-0.12-0.4
			c-0.08-0.09-0.2-0.13-0.38-0.13c-0.28,0-0.6,0.11-0.94,0.33v2.63h-0.68v-2.42c0-0.18-0.04-0.31-0.11-0.4
			c-0.07-0.09-0.2-0.13-0.37-0.13c-0.16,0-0.32,0.03-0.46,0.08c-0.14,0.06-0.3,0.14-0.48,0.25v2.63h-0.68v-3.47L89.02,79.3z"/>
		<path d="M94.75,79.3h0.42c0.08,0,0.15,0.03,0.18,0.08c0.04,0.07,0.06,0.18,0.07,0.35c0.4-0.32,0.81-0.48,1.24-0.48
			c0.19,0,0.35,0.04,0.49,0.11c0.07,0.04,0.13,0.09,0.18,0.16c0.05,0.07,0.1,0.15,0.12,0.24c0.41-0.33,0.84-0.5,1.29-0.5
			c0.29,0,0.51,0.08,0.65,0.24c0.14,0.16,0.21,0.39,0.21,0.68v2.6h-0.67v-2.42c0-0.18-0.04-0.32-0.12-0.4
			c-0.08-0.09-0.2-0.13-0.38-0.13c-0.28,0-0.6,0.11-0.94,0.33v2.63h-0.68v-2.42c0-0.18-0.04-0.31-0.11-0.4
			c-0.07-0.09-0.2-0.13-0.37-0.13c-0.16,0-0.32,0.03-0.46,0.08c-0.14,0.06-0.3,0.14-0.48,0.25v2.63h-0.68v-3.47L94.75,79.3z"/>
		<path d="M101.71,82.28c0.3,0,0.62-0.11,0.98-0.33V79.3h0.68v3.47h-0.42c-0.07,0-0.12-0.01-0.15-0.04s-0.05-0.08-0.07-0.15
			c-0.02-0.06-0.02-0.12-0.03-0.2c-0.41,0.29-0.83,0.44-1.25,0.44c-0.63,0-0.95-0.31-0.95-0.93V79.3h0.68v2.44
			c0,0.2,0.04,0.34,0.13,0.42s0.22,0.13,0.41,0.13L101.71,82.28z"/>
		<path d="M104.28,79.3h0.42c0.09,0,0.15,0.03,0.18,0.08c0.04,0.07,0.06,0.19,0.07,0.36c0.19-0.15,0.4-0.27,0.63-0.36
			c0.23-0.09,0.47-0.13,0.7-0.13c0.31,0,0.54,0.08,0.68,0.24s0.21,0.4,0.21,0.71v2.57h-0.68v-2.41c0-0.2-0.04-0.34-0.12-0.42
			s-0.22-0.13-0.4-0.13c-0.29,0-0.62,0.11-1.01,0.34v2.61h-0.68v-3.47L104.28,79.3z"/>
		<path d="M108.39,78.91c-0.06,0-0.11-0.01-0.15-0.03c-0.07-0.03-0.13-0.08-0.18-0.14c-0.05-0.07-0.07-0.14-0.07-0.21
			c0-0.11,0.04-0.2,0.12-0.28s0.17-0.12,0.28-0.12s0.2,0.04,0.28,0.12s0.12,0.17,0.12,0.28c0,0.08-0.02,0.15-0.07,0.21
			s-0.1,0.11-0.18,0.14C108.49,78.9,108.44,78.91,108.39,78.91z M108.72,82.76h-0.68v-3.47h0.38c0,0,0.07,0,0.1,0
			c0.02,0,0.05,0.01,0.08,0.03s0.05,0.04,0.07,0.07s0.03,0.09,0.04,0.16c0,0.07,0,0.16,0,0.27v2.95L108.72,82.76z"/>
		<path d="M111.09,82.8c-0.36,0-0.67-0.08-0.93-0.23c-0.25-0.15-0.44-0.36-0.57-0.62c-0.12-0.26-0.18-0.57-0.18-0.92
			c0-0.53,0.16-0.96,0.47-1.29s0.73-0.5,1.24-0.5c0.41,0,0.76,0.09,1.04,0.28v0.53h-0.28c-0.19-0.19-0.45-0.28-0.77-0.28
			c-0.14,0-0.27,0.02-0.39,0.07s-0.21,0.11-0.29,0.19s-0.14,0.18-0.19,0.28c-0.05,0.11-0.09,0.22-0.11,0.34
			c-0.02,0.12-0.03,0.24-0.03,0.37c0,0.18,0.02,0.34,0.05,0.48s0.09,0.28,0.17,0.4s0.18,0.21,0.31,0.28s0.29,0.1,0.46,0.1
			c0.36,0,0.64-0.11,0.84-0.33h0.25v0.49c-0.3,0.24-0.67,0.36-1.11,0.36L111.09,82.8z"/>
		<path d="M115.45,82.76h-0.27c-0.09,0-0.17-0.01-0.23-0.04c-0.06-0.03-0.1-0.08-0.13-0.16c-0.02-0.04-0.03-0.11-0.04-0.19
			c-0.14,0.15-0.29,0.26-0.46,0.32c-0.17,0.07-0.36,0.1-0.58,0.1c-0.33,0-0.6-0.09-0.79-0.28c-0.2-0.18-0.29-0.44-0.29-0.76
			c0-0.15,0.03-0.29,0.08-0.41s0.12-0.22,0.2-0.3c0.08-0.08,0.19-0.14,0.3-0.2s0.24-0.09,0.36-0.11c0.13-0.02,0.26-0.03,0.4-0.03
			c0.25,0,0.5,0.03,0.76,0.09v-0.46c0-0.21-0.06-0.37-0.18-0.46s-0.29-0.14-0.51-0.14c-0.38,0-0.69,0.1-0.95,0.28h-0.21v-0.5
			c0.4-0.2,0.81-0.3,1.25-0.3c0.2,0,0.37,0.02,0.52,0.05s0.29,0.09,0.4,0.17c0.12,0.08,0.21,0.19,0.27,0.33s0.09,0.31,0.09,0.5v2.46
			L115.45,82.76z M113.97,82.34c0.3,0,0.56-0.13,0.8-0.4V81.2c-0.2-0.04-0.41-0.07-0.64-0.07c-0.11,0-0.21,0-0.3,0.03
			c-0.09,0.02-0.17,0.05-0.25,0.09s-0.14,0.11-0.18,0.18c-0.04,0.08-0.07,0.18-0.07,0.28c0,0.2,0.06,0.35,0.17,0.46
			s0.27,0.15,0.47,0.15V82.34z"/>
		<path d="M116,79.77v-0.48h0.42v-0.94h0.68v0.94h0.77v0.48h-0.77v2.06c0,0.18,0.04,0.3,0.12,0.37s0.2,0.1,0.38,0.1h0.31v0.44
			c-0.16,0.04-0.34,0.07-0.55,0.07c-0.32,0-0.55-0.07-0.7-0.22c-0.15-0.15-0.23-0.37-0.23-0.67v-2.14h-0.42L116,79.77z"/>
		<path d="M118.87,78.91c-0.06,0-0.11-0.01-0.15-0.03c-0.07-0.03-0.13-0.08-0.18-0.14c-0.05-0.07-0.07-0.14-0.07-0.21
			c0-0.11,0.04-0.2,0.12-0.28s0.17-0.12,0.28-0.12s0.2,0.04,0.28,0.12s0.12,0.17,0.12,0.28c0,0.08-0.02,0.15-0.07,0.21
			s-0.1,0.11-0.18,0.14C118.97,78.9,118.92,78.91,118.87,78.91z M119.2,82.76h-0.68v-3.47h0.38c0,0,0.07,0,0.1,0
			c0.02,0,0.05,0.01,0.08,0.03s0.05,0.04,0.07,0.07s0.03,0.09,0.04,0.16c0,0.07,0,0.16,0,0.27v2.95L119.2,82.76z"/>
		<path d="M121.55,82.8c-0.25,0-0.49-0.05-0.7-0.14s-0.39-0.22-0.52-0.38s-0.25-0.35-0.32-0.56c-0.08-0.21-0.11-0.44-0.11-0.69
			c0-0.34,0.07-0.64,0.2-0.91c0.13-0.27,0.32-0.49,0.58-0.64c0.25-0.16,0.55-0.24,0.88-0.24c0.26,0,0.49,0.05,0.7,0.14
			s0.39,0.22,0.52,0.39c0.14,0.16,0.24,0.35,0.32,0.57c0.07,0.22,0.11,0.45,0.11,0.7c0,0.51-0.15,0.94-0.45,1.27
			c-0.3,0.33-0.7,0.5-1.2,0.5L121.55,82.8z M121.55,82.29c0.14,0,0.27-0.02,0.39-0.07c0.11-0.05,0.21-0.11,0.28-0.19
			s0.13-0.17,0.18-0.28s0.08-0.22,0.1-0.34s0.03-0.24,0.03-0.37s-0.01-0.26-0.03-0.38c-0.02-0.12-0.05-0.24-0.1-0.35
			c-0.05-0.11-0.11-0.21-0.18-0.29s-0.16-0.15-0.28-0.2c-0.11-0.05-0.24-0.07-0.38-0.07c-0.18,0-0.33,0.04-0.46,0.11
			s-0.23,0.18-0.3,0.3c-0.07,0.13-0.12,0.27-0.16,0.41c-0.03,0.14-0.05,0.3-0.05,0.46c0,0.13,0.01,0.26,0.03,0.38
			c0.02,0.12,0.06,0.23,0.1,0.34s0.11,0.2,0.18,0.28s0.16,0.14,0.28,0.18C121.29,82.25,121.42,82.28,121.55,82.29L121.55,82.29z"/>
		<path d="M123.88,79.3h0.42c0.09,0,0.15,0.03,0.18,0.08c0.04,0.07,0.06,0.19,0.07,0.36c0.19-0.15,0.4-0.27,0.63-0.36
			c0.23-0.09,0.47-0.13,0.7-0.13c0.31,0,0.54,0.08,0.68,0.24s0.21,0.4,0.21,0.71v2.57h-0.68v-2.41c0-0.2-0.04-0.34-0.12-0.42
			s-0.22-0.13-0.4-0.13c-0.29,0-0.62,0.11-1.01,0.34v2.61h-0.68v-3.47L123.88,79.3z"/>
		<path d="M128.57,82.8c-0.45,0-0.83-0.1-1.13-0.3v-0.53h0.22c0.22,0.21,0.52,0.31,0.88,0.31c0.48,0,0.72-0.17,0.72-0.5
			c0-0.12-0.03-0.22-0.09-0.28s-0.16-0.11-0.28-0.15c-0.08-0.02-0.2-0.05-0.35-0.07c-0.17-0.03-0.31-0.06-0.44-0.1
			c-0.12-0.04-0.24-0.1-0.34-0.18c-0.1-0.07-0.18-0.17-0.23-0.29s-0.08-0.26-0.08-0.43c0-0.18,0.03-0.34,0.1-0.47
			s0.16-0.24,0.28-0.32c0.12-0.08,0.25-0.13,0.4-0.17s0.3-0.06,0.47-0.06c0.41,0,0.75,0.08,1.02,0.24v0.52h-0.22
			c-0.21-0.16-0.47-0.25-0.8-0.25c-0.09,0-0.17,0-0.24,0.02s-0.14,0.03-0.2,0.06c-0.07,0.03-0.12,0.07-0.16,0.14
			s-0.05,0.14-0.05,0.23c0,0.12,0.03,0.2,0.1,0.26c0.07,0.06,0.17,0.11,0.29,0.14c0.1,0.03,0.21,0.05,0.34,0.07
			c0.14,0.02,0.27,0.05,0.38,0.08s0.21,0.07,0.31,0.12c0.1,0.05,0.18,0.11,0.24,0.18c0.06,0.07,0.11,0.16,0.15,0.27
			c0.04,0.11,0.05,0.23,0.05,0.38c0,0.2-0.04,0.37-0.11,0.51s-0.17,0.26-0.3,0.34c-0.13,0.08-0.27,0.14-0.42,0.18
			S128.76,82.81,128.57,82.8L128.57,82.8z"/>
		<path d="M133.74,79.24v1.56h1.5v0.4h-1.5v1.57h-0.42V81.2h-1.5v-0.4h1.5v-1.56H133.74z"/>
		<path d="M138.1,78.63v0.92h0.84v0.44h-0.84v1.73c0,0.4,0.11,0.62,0.44,0.62c0.15,0,0.26-0.02,0.34-0.04l0.03,0.44
			c-0.11,0.05-0.29,0.08-0.52,0.08c-0.27,0-0.49-0.09-0.63-0.25c-0.17-0.17-0.23-0.46-0.23-0.84v-1.75h-0.5v-0.44h0.5v-0.77
			L138.1,78.63L138.1,78.63z"/>
		<path d="M139.88,81.27c0.01,0.79,0.52,1.11,1.1,1.11c0.42,0,0.67-0.07,0.89-0.17l0.1,0.42c-0.21,0.09-0.56,0.2-1.07,0.2
			c-0.99,0-1.58-0.65-1.58-1.62s0.57-1.73,1.5-1.73c1.05,0,1.33,0.92,1.33,1.51c0,0.12-0.01,0.21-0.02,0.27h-2.25V81.27z
			 M141.59,80.85c0-0.37-0.15-0.95-0.81-0.95c-0.59,0-0.85,0.54-0.89,0.95H141.59z"/>
		<path d="M145.16,82.64c-0.15,0.08-0.49,0.19-0.92,0.19c-0.97,0-1.6-0.66-1.6-1.64s0.68-1.7,1.72-1.7c0.34,0,0.65,0.09,0.81,0.17
			l-0.13,0.45c-0.14-0.08-0.36-0.15-0.68-0.15c-0.74,0-1.13,0.54-1.13,1.21c0,0.74,0.48,1.2,1.11,1.2c0.33,0,0.55-0.09,0.72-0.16
			L145.16,82.64L145.16,82.64z"/>
		<path d="M145.85,78.06h0.58v2h0.01c0.09-0.17,0.24-0.31,0.42-0.41c0.17-0.1,0.38-0.17,0.6-0.17c0.43,0,1.12,0.27,1.12,1.37v1.91
			H148v-1.84c0-0.52-0.19-0.95-0.74-0.95c-0.38,0-0.68,0.26-0.78,0.58c-0.03,0.08-0.04,0.17-0.04,0.28v1.93h-0.58L145.85,78.06
			L145.85,78.06z"/>
	</g>
	<g>
		<path d="M34.57,36.68v10.27h-3.8v-9.89c0-2.17-0.56-4.75-3.22-4.75c-1.62,0-2.78,1.26-3.21,2.49c-0.14,0.42-0.22,0.92-0.22,1.39
			v10.76h-3.79V36.5c0-2.63-1.15-4.2-3.09-4.2c-1.72,0-2.95,1.43-3.38,2.76c-0.15,0.39-0.22,0.84-0.22,1.37v10.51h-3.8V34.31
			c0-1.87-0.04-3.21-0.14-4.5l-0.03-0.44h3.49l0.11,2.01c1.24-1.59,2.92-2.39,5.01-2.39s3.89,1.11,4.83,2.95
			c0.45-0.66,1-1.24,1.6-1.69c1.15-0.88,2.36-1.26,3.94-1.26c2.85,0,5.91,2.01,5.91,7.67L34.57,36.68z"/>
		<path d="M60.4,36.68v10.27h-3.79v-9.89c0-2.17-0.56-4.75-3.22-4.75c-1.62,0-2.78,1.26-3.21,2.49c-0.14,0.42-0.22,0.92-0.22,1.39
			v10.76h-3.8V36.5c0-2.63-1.15-4.2-3.08-4.2c-1.72,0-2.96,1.43-3.38,2.76c-0.16,0.39-0.23,0.84-0.23,1.37v10.51h-3.79V34.31
			c0-1.87-0.04-3.21-0.14-4.5l-0.03-0.44H39l0.11,2.01c1.24-1.59,2.92-2.39,5.01-2.39s3.89,1.11,4.83,2.95
			c0.46-0.66,1-1.24,1.6-1.69c1.15-0.88,2.36-1.26,3.95-1.26c2.85,0,5.91,2.01,5.91,7.67L60.4,36.68z"/>
		<path d="M75.27,43.06l0.7,3.08l-0.28,0.15c-0.9,0.47-2.75,1.01-5,1.01c-5.24,0-8.75-3.6-8.75-8.96s3.87-9.3,9.41-9.3
			c1.91,0,3.57,0.49,4.4,0.91l0.31,0.16l-0.93,3.17l-0.45-0.25c-0.6-0.34-1.65-0.74-3.33-0.74c-3.35,0-5.51,2.32-5.51,5.92
			s2.17,5.86,5.4,5.86c1.63,0,2.7-0.41,3.57-0.8L75.27,43.06L75.27,43.06z"/>
	</g>
	<g>
		<path d="M94.32,32.87v8.62c0,2.5,0.9,2.85,1.87,2.85c0.79,0,1.33-0.11,1.65-0.2l0.49-0.13l0.18,3.08l-0.26,0.11
			c-0.7,0.29-1.72,0.44-2.85,0.44c-1.55,0-2.78-0.49-3.6-1.42c-0.87-0.91-1.28-2.38-1.28-4.63v-8.73h-2.59v-3.13h2.59v-3.92
			l3.8-1.01v4.93h4.36v3.13h-4.36L94.32,32.87z"/>
		<path d="M108.12,29.35c-4.87,0-8.26,3.89-8.26,9.44s3.39,8.85,8.65,8.85c2.77,0,4.65-0.58,5.73-1.07l0.31-0.14l-0.71-2.98
			l-0.44,0.19c-1.02,0.43-2.27,0.83-4.48,0.83c-1.53,0-5.04-0.5-5.32-5h11.71l0.06-0.51c0.04-0.33,0.09-0.77,0.09-1.32
			C115.46,33.81,113.54,29.34,108.12,29.35L108.12,29.35z M103.69,36.48c0.33-1.71,1.49-4.12,4.2-4.12c1.09,0,1.96,0.33,2.61,0.98
			c0.94,0.97,1.15,2.37,1.19,3.14H103.69z"/>
		<path d="M130.52,43.4l0.7,3.08l-0.28,0.15c-0.9,0.47-2.75,1.01-5,1.01c-5.24,0-8.75-3.6-8.75-8.96s3.87-9.3,9.41-9.3
			c1.91,0,3.57,0.49,4.4,0.91l0.31,0.16l-0.93,3.18l-0.45-0.26c-0.6-0.34-1.65-0.74-3.33-0.74c-3.35,0-5.51,2.33-5.51,5.93
			s2.17,5.85,5.4,5.85c1.63,0,2.7-0.41,3.57-0.79l0.45-0.2L130.52,43.4z"/>
		<path d="M148.98,36.93V47.3h-3.86V37.27c0-2.09-0.61-4.57-3.47-4.57c-1.91,0-3.23,1.39-3.7,2.76c-0.16,0.38-0.18,0.79-0.18,1.33
			V47.3h-3.87V21.92h3.87v9.68c0.46-0.52,1.01-0.98,1.64-1.33c1.04-0.6,2.18-0.92,3.31-0.92C145.61,29.35,148.98,31.33,148.98,36.93
			z"/>
	</g>
	<path d="M82.19,32.74v4.29h4.12v1.09h-4.12v4.32h-1.17v-4.32H76.9v-1.09h4.12v-4.29H82.19z"/>
	<g>
		<path d="M8.34,64.17c0-4.89,3.02-7.85,7.32-7.85c2.55,0,3.94,0.77,4.83,1.48v1.19h-0.77c-0.71-0.71-1.9-1.48-4.09-1.48
			c-3.44,0-5.78,2.46-5.78,6.67s2.16,6.7,5.78,6.7c2.4,0,3.73-0.98,4.44-1.78h0.68v1.13c-0.86,0.83-2.52,1.84-5.19,1.84
			c-4.53,0-7.23-3.02-7.23-7.88L8.34,64.17z"/>
		<path d="M22.86,64.2c0-4.86,2.9-7.88,7.17-7.88s7.2,3.02,7.2,7.88s-2.87,7.85-7.2,7.85S22.86,69.09,22.86,64.2z M35.72,64.2
			c0-4.21-2.16-6.73-5.69-6.73s-5.66,2.52-5.66,6.73s2.16,6.7,5.66,6.7S35.72,68.44,35.72,64.2z"/>
		<path d="M42.12,58.95c1.75-1.39,4.06-2.64,6.79-2.64c2.16,0,4,0.89,4,4.12v11.5h-1.48V60.61c0-2.46-1.33-3.05-3.08-3.05
			c-2.28,0-4.47,1.27-6.22,2.61v11.76h-1.48V56.49h0.68c0.65,0,0.8,0.18,0.8,1.54L42.12,58.95L42.12,58.95z"/>
		<path d="M55.54,56.49h2.04v-1.54c0-2.7,1.54-3.85,3.62-3.85c0.86,0,1.51,0.09,1.9,0.18v1.04h-1.54c-1.6,0-2.49,0.59-2.49,2.73
			v1.45h3.73v1.13h-3.73v14.31h-1.48V57.63h-2.04L55.54,56.49L55.54,56.49z"/>
		<path d="M71.25,70.83c2.46,0,3.97-0.77,4.8-1.6h0.65v1.1c-1.1,0.86-2.79,1.72-5.6,1.72c-4.65,0-7.23-2.99-7.23-7.79
			s2.9-7.94,6.84-7.94s6.34,2.19,6.34,7.23c0,0.3-0.03,0.65-0.03,0.71H65.38c0,4.33,2.01,6.58,5.87,6.58L71.25,70.83z M65.41,63.13
			h10.16c-0.09-4.12-1.98-5.69-4.86-5.69S65.76,59.34,65.41,63.13z"/>
		<path d="M81.88,59.16c1.18-1.42,2.87-2.79,5.07-2.79c0.39,0,0.65,0.06,0.71,0.09v1.22c0,0-0.38-0.03-0.65-0.03
			c-2.25,0-3.88,1.45-5.13,2.9v11.38H80.4V56.49h0.68c0.65,0,0.8,0.18,0.8,1.69V59.16z"/>
		<path d="M96.19,70.83c2.46,0,3.97-0.77,4.8-1.6h0.65v1.1c-1.1,0.86-2.79,1.72-5.6,1.72c-4.65,0-7.23-2.99-7.23-7.79
			s2.9-7.94,6.84-7.94s6.34,2.19,6.34,7.23c0,0.3-0.03,0.65-0.03,0.71H90.32c0,4.33,2.01,6.58,5.87,6.58L96.19,70.83z M90.35,63.13
			h10.16c-0.09-4.12-1.98-5.69-4.86-5.69S90.7,59.34,90.35,63.13z"/>
		<path d="M106.83,58.95c1.75-1.39,4.06-2.64,6.79-2.64c2.16,0,4,0.89,4,4.12v11.5h-1.48V60.61c0-2.46-1.33-3.05-3.08-3.05
			c-2.28,0-4.47,1.27-6.22,2.61v11.76h-1.48V56.49h0.68c0.65,0,0.8,0.18,0.8,1.54L106.83,58.95L106.83,58.95z"/>
		<path d="M120.87,64.17c0-4.89,3.02-7.85,7.32-7.85c2.55,0,3.94,0.77,4.83,1.48v1.19h-0.77c-0.71-0.71-1.9-1.48-4.09-1.48
			c-3.44,0-5.78,2.46-5.78,6.67s2.16,6.7,5.78,6.7c2.4,0,3.73-0.98,4.44-1.78h0.68v1.13c-0.86,0.83-2.52,1.84-5.19,1.84
			c-4.53,0-7.23-3.02-7.23-7.88L120.87,64.17z"/>
		<path d="M142.77,70.83c2.46,0,3.97-0.77,4.8-1.6h0.65v1.1c-1.1,0.86-2.79,1.72-5.6,1.72c-4.65,0-7.23-2.99-7.23-7.79
			s2.9-7.94,6.84-7.94s6.34,2.19,6.34,7.23c0,0.3-0.03,0.65-0.03,0.71H136.9c0,4.33,2.01,6.58,5.87,6.58L142.77,70.83z
			 M136.93,63.13h10.16c-0.09-4.12-1.98-5.69-4.86-5.69S137.28,59.34,136.93,63.13z"/>
	</g>
</g>
</svg>
