<?xml version="1.0" encoding="utf-8"?>
<!-- Generator: Adobe Illustrator 30.3.0, SVG Export Plug-In . SVG Version: 9.03 Build 0)  -->
<svg version="1.1" id="Layer_3" xmlns="http://www.w3.org/2000/svg" xmlns:xlink="http://www.w3.org/1999/xlink" x="0px" y="0px"
	 viewBox="0 0 149.05 60.22" style="enable-background:new 0 0 149.05 60.22;" xml:space="preserve">
<path style="fill:#231F20;" d="M26.97,19.3c0,0.94,0.19,1.46,0.31,1.65h-2.31c-0.14-0.31-0.19-0.64-0.19-0.97
	c-0.83,0.68-1.89,1.06-2.95,1.06c-1.72,0-3.09-1.09-3.09-2.85c0-1.77,1.42-2.57,2.76-2.81l0.92-0.21c0.8-0.14,1.58-0.31,2.36-0.54
	v-0.26c0-0.9-0.78-1.16-1.72-1.16c-1.27,0-1.67,0.52-1.67,1.37h-2.19c0-2.12,1.56-3.14,3.87-3.04c1.96,0.07,3.92,0.4,3.92,2.97
	L26.97,19.3z M24.8,16.28c-0.33,0.17-0.68,0.26-1.04,0.33l-1.2,0.26c-0.83,0.17-1.51,0.4-1.51,1.25c0,0.68,0.64,1.13,1.42,1.13
	c1.01,0,2.34-0.5,2.34-1.67V16.28z"/>
<path style="fill:#231F20;" d="M34.81,14.41c-1.2-0.78-1.51-0.99-2.5-1.09c-0.99-0.09-1.67,0.33-1.67,0.87
	c0,1.58,5.71,0.24,5.71,3.66c0,2.19-1.96,3.16-4.03,3.16c-2.12,0-3.59-0.73-4.39-1.65l1.37-1.06c0.99,0.75,1.72,0.92,2.88,0.92
	c1.04,0,1.75-0.57,1.75-1.06c0-1.53-5.61-0.26-5.61-3.7c0-2.05,1.77-2.95,4.01-2.95c2.17,0,3.33,1.11,3.75,1.65L34.81,14.41z"/>
<path style="fill:#231F20;" d="M45.28,19.3c0,0.94,0.24,1.44,0.35,1.63h-2.29c-0.14-0.28-0.24-0.61-0.24-0.94
	c-0.83,0.68-1.89,1.06-2.95,1.06c-1.72,0-3.09-1.09-3.09-2.85c0-1.77,1.42-2.57,2.76-2.81l0.92-0.19c0.8-0.14,1.58-0.31,2.36-0.54
	v-0.28c0-0.9-0.78-1.16-1.72-1.16c-1.27,0-1.67,0.54-1.67,1.42h-2.19c0-2.12,1.6-3.16,3.87-3.07c1.96,0.07,3.92,0.4,3.92,2.97
	L45.28,19.3z M43.11,16.28c-0.33,0.17-0.68,0.26-1.04,0.33l-1.2,0.26c-0.83,0.17-1.51,0.4-1.51,1.25c0,0.68,0.64,1.13,1.42,1.13
	c1.01,0,2.34-0.5,2.34-1.67V16.28z"/>
<path style="fill:#231F20;" d="M48.51,16.79c0.02,1.34,1.18,2.17,2.36,2.22c1.67,0.07,2.41-0.52,2.97-1.09l1.49,0.87
	c-0.68,1.04-1.98,2.22-4.46,2.22c-2.95,0-4.65-2.05-4.65-4.74s1.7-4.74,4.65-4.74c3.02,0,4.36,2.03,4.36,5.26H48.51z M52.92,15.12
	c-0.14-1.04-1.01-1.79-2.05-1.79c-1.11-0.05-2.1,0.71-2.36,1.79H52.92z"/>
<path style="fill:#231F20;" d="M59.1,12.71c0,0.68-0.54,1.23-1.23,1.23c-0.68,0-1.23-0.54-1.23-1.23s0.54-1.23,1.23-1.23l0,0
	c0.66,0,1.23,0.52,1.23,1.2C59.1,12.71,59.1,12.71,59.1,12.71z M56.84,12.71c0,0.57,0.47,1.04,1.06,1.01c0.57,0,1.04-0.47,1.01-1.06
	c0-0.57-0.47-1.01-1.04-1.01s-1.04,0.45-1.04,1.01C56.84,12.69,56.84,12.71,56.84,12.71z M57.62,13.42h-0.17v-1.42H58
	c0.33,0,0.47,0.14,0.47,0.4c0,0.21-0.14,0.4-0.35,0.4l0.42,0.64h-0.21l-0.4-0.64h-0.31L57.62,13.42L57.62,13.42z M57.83,12.64
	c0.21,0,0.42,0,0.42-0.26c0-0.19-0.17-0.24-0.33-0.24h-0.33v0.5H57.83z"/>
<path style="fill:#F26322;" d="M17.89,12.17h-5.12c-0.52-0.83-1.25-1.51-2.08-2.01l0.52-1.51l-0.8,1.37l0,0l-1.27,2.17l-5.43-0.02
	l5.12,0.5l-0.5,0.92c-1.96-0.9-4.62-1.42-4.62-1.42c1.46,0.59,2.88,1.3,4.25,2.08l-3.63,6.72l6.58-4.25c1.34,1.65,3.04,4.2,3.04,4.2
	c0.42-2.03,0.38-4.13-0.09-6.11L17.89,12.17z M10.65,10.24c0.47,0.59,0.85,1.23,1.11,1.93H9.99L10.65,10.24z M7.93,17.34l0.99-2.45
	c0.35,0.24,0.68,0.47,0.99,0.75c0.09,0.07,0.19,0.17,0.28,0.26L7.93,17.34z M9.23,14.03l0.57-1.3l2.19,0.12
	c0.21,0.5,0.4,1.01,0.57,1.56l-1.46,0.8C10.48,14.79,9.87,14.39,9.23,14.03L9.23,14.03z M12.89,17.12c0,0-0.17-0.42-0.9-1.11
	l0.75-0.5C12.84,16.06,12.89,16.58,12.89,17.12z M13.36,13.37c-0.07-0.17-0.12-0.31-0.19-0.45L14.8,13l-1.27,0.8
	C13.5,13.63,13.46,13.49,13.36,13.37L13.36,13.37z"/>
<rect x="61.79" y="4.64" width="0.72" height="21.49"/>
<path d="M31.43,29.07c-8.17,0-14.79,6.62-14.79,14.79s6.62,14.79,14.79,14.79s14.79-6.62,14.79-14.79S39.6,29.07,31.43,29.07z
	 M31.43,57.48c-7.52,0-13.61-6.09-13.61-13.61c0-7.52,6.09-13.61,13.61-13.61c7.52,0,13.61,6.09,13.61,13.61
	C45.04,51.38,38.95,57.48,31.43,57.48z"/>
<path d="M31.43,29.07c-8.17,0-14.79,6.62-14.79,14.79s6.62,14.79,14.79,14.79s14.79-6.62,14.79-14.79S39.6,29.07,31.43,29.07z
	 M31.43,57.48c-7.52,0-13.61-6.09-13.61-13.61c0-7.52,6.09-13.61,13.61-13.61c7.52,0,13.61,6.09,13.61,13.61
	C45.04,51.38,38.95,57.48,31.43,57.48z"/>
<path d="M31.43,31.73c-6.7,0-12.13,5.43-12.13,12.13c0,6.7,5.43,12.13,12.13,12.13c6.7,0,12.13-5.43,12.13-12.13
	C43.57,37.16,38.13,31.73,31.43,31.73z M31.43,54.52c-5.89,0-10.66-4.77-10.66-10.66c0-5.89,4.77-10.66,10.66-10.66
	c5.89,0,10.66,4.77,10.66,10.66C42.09,49.75,37.32,54.52,31.43,54.52z"/>
<path d="M31.43,34.6c-5.12,0-9.27,4.15-9.27,9.27c0,5.12,4.15,9.27,9.27,9.27c5.12,0,9.27-4.15,9.27-9.27
	C40.7,38.75,36.55,34.6,31.43,34.6z M31.43,51.79c-4.38,0-7.93-3.55-7.93-7.93c0-4.38,3.55-7.93,7.93-7.93
	c4.38,0,7.93,3.55,7.93,7.93C39.36,48.24,35.81,51.79,31.43,51.79z"/>
<path d="M31.43,37.6c-3.46,0-6.27,2.81-6.27,6.27s2.81,6.27,6.27,6.27c3.46,0,6.27-2.81,6.27-6.27S34.89,37.6,31.43,37.6z
	 M31.43,48.93c-2.79,0-5.06-2.27-5.06-5.06s2.27-5.06,5.06-5.06c2.79,0,5.06,2.27,5.06,5.06S34.23,48.93,31.43,48.93z"/>
<path d="M31.43,40.46c-1.88,0-3.4,1.52-3.4,3.4c0,1.88,1.52,3.4,3.4,3.4c1.88,0,3.4-1.52,3.4-3.4
	C34.84,41.99,33.31,40.46,31.43,40.46z M31.43,46.06c-1.21,0-2.19-0.98-2.19-2.19c0-1.21,0.98-2.19,2.19-2.19
	c1.21,0,2.19,0.98,2.19,2.19C33.63,45.08,32.64,46.06,31.43,46.06z"/>
<path d="M54.15,29.07c-8.17,0-14.79,6.52-14.79,14.56S45.98,58.2,54.15,58.2s14.79-6.52,14.79-14.56S62.32,29.07,54.15,29.07z
	 M54.15,57.04c-7.52,0-13.61-6-13.61-13.4c0-7.4,6.09-13.4,13.61-13.4c7.52,0,13.61,6,13.61,13.4
	C67.76,51.04,61.67,57.04,54.15,57.04z"/>
<path d="M54.15,29.07c-8.17,0-14.79,6.52-14.79,14.56S45.98,58.2,54.15,58.2s14.79-6.52,14.79-14.56S62.32,29.07,54.15,29.07z
	 M54.15,57.04c-7.52,0-13.61-6-13.61-13.4c0-7.4,6.09-13.4,13.61-13.4c7.52,0,13.61,6,13.61,13.4
	C67.76,51.04,61.67,57.04,54.15,57.04z"/>
<path d="M54.15,31.69c-6.7,0-12.13,5.35-12.13,11.95c0,6.6,5.43,11.95,12.13,11.95c6.7,0,12.13-5.35,12.13-11.95
	C66.28,37.04,60.85,31.69,54.15,31.69z M54.15,54.13c-5.89,0-10.66-4.7-10.66-10.49c0-5.79,4.77-10.49,10.66-10.49
	c5.89,0,10.66,4.7,10.66,10.49C64.81,49.43,60.03,54.13,54.15,54.13z"/>
<path d="M54.15,34.51c-5.12,0-9.27,4.09-9.27,9.13c0,5.04,4.15,9.13,9.27,9.13c5.12,0,9.27-4.09,9.27-9.13
	C63.42,38.6,59.27,34.51,54.15,34.51z M54.15,51.44c-4.38,0-7.93-3.49-7.93-7.8c0-4.31,3.55-7.8,7.93-7.8c4.38,0,7.93,3.49,7.93,7.8
	C62.07,47.95,58.53,51.44,54.15,51.44z"/>
<path d="M54.15,37.47c-3.46,0-6.27,2.76-6.27,6.17c0,3.41,2.81,6.17,6.27,6.17c3.46,0,6.27-2.76,6.27-6.17
	C60.42,40.23,57.61,37.47,54.15,37.47z M54.15,48.62c-2.79,0-5.06-2.23-5.06-4.98c0-2.75,2.27-4.98,5.06-4.98
	c2.79,0,5.06,2.23,5.06,4.98C59.21,46.39,56.94,48.62,54.15,48.62z"/>
<path d="M76.87,29.07c-8.17,0-14.79,6.62-14.79,14.79s6.62,14.79,14.79,14.79s14.79-6.62,14.79-14.79S85.03,29.07,76.87,29.07z
	 M76.87,57.48c-7.52,0-13.61-6.09-13.61-13.61c0-7.52,6.09-13.61,13.61-13.61c7.52,0,13.61,6.09,13.61,13.61
	C90.48,51.38,84.38,57.48,76.87,57.48z"/>
<path d="M76.87,29.07c-8.17,0-14.79,6.62-14.79,14.79s6.62,14.79,14.79,14.79s14.79-6.62,14.79-14.79S85.03,29.07,76.87,29.07z
	 M76.87,57.48c-7.52,0-13.61-6.09-13.61-13.61c0-7.52,6.09-13.61,13.61-13.61c7.52,0,13.61,6.09,13.61,13.61
	C90.48,51.38,84.38,57.48,76.87,57.48z"/>
<path d="M76.87,31.73c-6.7,0-12.13,5.43-12.13,12.13c0,6.7,5.43,12.13,12.13,12.13C83.57,56,89,50.57,89,43.87
	C89,37.16,83.57,31.73,76.87,31.73z M76.87,54.52c-5.89,0-10.66-4.77-10.66-10.66c0-5.89,4.77-10.66,10.66-10.66
	c5.89,0,10.66,4.77,10.66,10.66C87.52,49.75,82.75,54.52,76.87,54.52z"/>
<path d="M76.87,34.6c-5.12,0-9.27,4.15-9.27,9.27c0,5.12,4.15,9.27,9.27,9.27c5.12,0,9.27-4.15,9.27-9.27
	C86.13,38.75,81.98,34.6,76.87,34.6z M76.87,51.79c-4.38,0-7.93-3.55-7.93-7.93c0-4.38,3.55-7.93,7.93-7.93
	c4.38,0,7.93,3.55,7.93,7.93C84.79,48.24,81.24,51.79,76.87,51.79z"/>
<path style="fill:none;" d="M115.07,39.14c-0.55,1.47-0.86,3.06-0.86,4.72c0,1.66,0.31,3.25,0.86,4.72
	c0.55-1.47,0.86-3.06,0.86-4.72C115.92,42.2,115.61,40.62,115.07,39.14z"/>
<path style="fill:none;" d="M114.41,37.65c-2.26-4.39-6.82-7.4-12.1-7.4c-7.52,0-13.61,6.09-13.61,13.61
	c0,7.52,6.09,13.61,13.61,13.61c5.28,0,9.84-3.01,12.1-7.4c-0.88-1.89-1.38-3.99-1.38-6.22S113.53,39.54,114.41,37.65z"/>
<path style="fill:none;" d="M115.72,50.08c2.26,4.39,6.82,7.4,12.1,7.4c7.52,0,13.61-6.09,13.61-13.61
	c0-7.52-6.09-13.61-13.61-13.61c-5.28,0-9.84,3.01-12.1,7.4c0.88,1.89,1.38,3.99,1.38,6.22S116.6,48.19,115.72,50.08z"/>
<path d="M102.31,57.48c-7.52,0-13.61-6.09-13.61-13.61c0-7.52,6.09-13.61,13.61-13.61c5.28,0,9.84,3.01,12.1,7.4
	c0.2-0.43,0.42-0.84,0.65-1.25c-2.57-4.38-7.31-7.33-12.75-7.33c-8.17,0-14.79,6.62-14.79,14.79s6.62,14.79,14.79,14.79
	c5.44,0,10.19-2.95,12.75-7.33c-0.24-0.4-0.45-0.82-0.65-1.25C112.15,54.47,107.59,57.48,102.31,57.48z"/>
<path d="M115.07,39.14c-0.19-0.51-0.41-1.01-0.65-1.5c-0.88,1.89-1.38,3.99-1.38,6.22s0.5,4.32,1.38,6.22
	c0.25-0.48,0.46-0.98,0.65-1.5c-0.55-1.47-0.86-3.06-0.86-4.72C114.21,42.2,114.52,40.62,115.07,39.14z"/>
<path d="M127.82,29.07c-5.44,0-10.19,2.95-12.75,7.33c0.24,0.4,0.45,0.82,0.65,1.25c2.26-4.39,6.82-7.4,12.1-7.4
	c7.52,0,13.61,6.09,13.61,13.61c0,7.52-6.09,13.61-13.61,13.61c-5.28,0-9.84-3.01-12.1-7.4c-0.2,0.43-0.42,0.84-0.65,1.25
	c2.57,4.38,7.31,7.33,12.75,7.33c8.17,0,14.79-6.62,14.79-14.79S135.99,29.07,127.82,29.07z"/>
<path d="M115.07,39.14c0.19-0.51,0.41-1.01,0.65-1.5c-0.2-0.43-0.42-0.84-0.65-1.25c-0.24,0.4-0.45,0.82-0.65,1.25
	C114.66,38.13,114.88,38.63,115.07,39.14z"/>
<path d="M115.07,48.59c-0.19,0.51-0.41,1.01-0.65,1.5c0.2,0.43,0.42,0.84,0.65,1.25c0.24-0.4,0.45-0.82,0.65-1.25
	C115.47,49.6,115.26,49.1,115.07,48.59z"/>
<path d="M102.31,31.73c-6.7,0-12.13,5.43-12.13,12.13c0,6.7,5.43,12.13,12.13,12.13c6.7,0,12.13-5.43,12.13-12.13
	C114.45,37.16,109.01,31.73,102.31,31.73z M102.31,54.52c-5.89,0-10.66-4.77-10.66-10.66c0-5.89,4.77-10.66,10.66-10.66
	c5.89,0,10.66,4.77,10.66,10.66C112.97,49.75,108.2,54.52,102.31,54.52z"/>
<g>
	<path d="M117.28,48.62V37.85h2.36v4.43h3.88v-4.43h2.36v10.77h-2.36v-4.66h-3.88v4.66H117.28z"/>
	<path d="M132.36,49.03c-2.9-0.86-4.79-2.45-4.79-5.8c0-3.55,2.37-5.51,5.08-5.51c2.72,0,5.08,1.95,5.08,5.51
		c0,2.4-1.1,4.09-2.98,4.81v0.03l3.38,0.58v1.82h-0.91L132.36,49.03z M135.31,43.28c0-2.65-1.12-3.86-2.66-3.86
		c-1.56,0-2.66,1.21-2.66,3.86c0,2.63,1.1,3.81,2.66,3.81C134.19,47.1,135.31,45.91,135.31,43.28z"/>
</g>
<g>
	<g>
		<path d="M65.88,13.97v-1.31h0.57c0.48,0.51,1.27,0.96,2.57,0.96c1.36,0,2.15-0.55,2.15-1.69c0-1.3-1.06-1.48-2.38-1.85
			c-1.84-0.54-2.76-1.29-2.76-2.97c0-1.82,1.3-2.88,3.33-2.88c1.25,0,2.15,0.3,2.78,0.7v1.27h-0.55c-0.54-0.43-1.18-0.73-2.17-0.73
			c-1.33,0-1.97,0.55-1.97,1.52c0,1.09,0.79,1.37,2.06,1.7c2.14,0.58,3.15,1.2,3.15,3.08c0,2.03-1.33,3.09-3.6,3.09
			C67.59,14.85,66.66,14.49,65.88,13.97z"/>
		<path d="M74.26,9.53c0-3.44,2.18-5.32,4.74-5.32c2.54,0,4.72,1.88,4.72,5.32c0,3.45-2.18,5.32-4.72,5.32
			C76.45,14.85,74.26,12.98,74.26,9.53z M82.06,9.56c0-2.78-1.31-4.14-3.06-4.14c-1.76,0-3.06,1.36-3.06,4.14
			c0,2.78,1.3,4.08,3.06,4.08C80.75,13.64,82.06,12.34,82.06,9.56z"/>
		<path d="M85.86,14.76V4.3h1.61v9.23h4.66v1.23H85.86z"/>
		<path d="M100.16,10.95V4.3h1.45v6.6c0,2.66-1.27,3.94-3.85,3.94c-2.46,0-4.03-1.29-4.03-3.94V4.3h1.63v6.65
			c0,2.08,1.03,2.61,2.5,2.61C99.24,13.56,100.16,13,100.16,10.95z"/>
		<path d="M106.5,14.76V5.53h-3V4.3h7.63v1.23h-3v9.23H106.5z"/>
		<path d="M113.14,14.76V4.3h1.64v10.46H113.14z"/>
		<path d="M116.93,9.53c0-3.44,2.18-5.32,4.74-5.32c2.54,0,4.72,1.88,4.72,5.32c0,3.45-2.18,5.32-4.72,5.32
			C119.12,14.85,116.93,12.98,116.93,9.53z M124.73,9.56c0-2.78-1.31-4.14-3.06-4.14c-1.76,0-3.06,1.36-3.06,4.14
			c0,2.78,1.3,4.08,3.06,4.08C123.42,13.64,124.73,12.34,124.73,9.56z"/>
		<path d="M128.53,4.3h1.87l4.56,7.69h0.03V4.3h1.4v10.46h-1.49l-4.94-8.38h-0.03v8.38h-1.39V4.3z"/>
	</g>
	<g>
		<path d="M66.53,16.33h2.86c2.26,0,3.61,0.87,3.61,2.98s-1.34,3.04-3.64,3.04h-1.32v3.78h-1.51V16.33z M68.04,21.25h1.32
			c1.46,0,2.1-0.59,2.1-1.9c0-1.32-0.64-1.85-2.1-1.85h-1.32V21.25z"/>
		<path d="M78,22.03c-0.14,0.01-0.29,0.01-0.46,0.01h-1.39v4.09h-1.51v-9.81h2.9c2.17,0,3.5,0.87,3.5,2.79
			c0,1.34-0.59,2.2-1.61,2.62l2.11,3.94v0.46h-1.39L78,22.03z M76.15,20.92h1.34c1.33,0,2-0.48,2-1.72c0-1.22-0.71-1.71-2-1.71
			h-1.34V20.92z"/>
		<path d="M82.54,21.23c0-3.22,2.04-4.99,4.44-4.99c2.38,0,4.43,1.76,4.43,4.99c0,3.24-2.04,4.99-4.43,4.99
			C84.59,26.22,82.54,24.47,82.54,21.23z M89.86,21.26c0-2.61-1.23-3.88-2.87-3.88c-1.65,0-2.87,1.27-2.87,3.88s1.22,3.82,2.87,3.82
			C88.62,25.08,89.86,23.87,89.86,21.26z"/>
		<path d="M92.05,16.79v-0.46h1.43l2.63,7.93h0.03l2.65-7.93h1.29v0.46l-3.24,9.34h-1.58L92.05,16.79z"/>
		<path d="M101.67,26.13v-9.81h1.54v9.81H101.67z"/>
		<path d="M105.46,16.33h2.8c3.18,0,4.9,1.46,4.9,4.87c0,3.39-1.74,4.93-4.95,4.93h-2.76V16.33z M108.22,24.99
			c2.31,0,3.38-1.05,3.38-3.77c0-2.69-1.06-3.73-3.38-3.73h-1.25v7.49H108.22z"/>
		<path d="M114.88,16.33h6.01v1.18h-4.5v3.05h3.29v1.12h-3.29v3.31h4.65v1.15h-6.16V16.33z"/>
		<path d="M126.11,22.03c-0.14,0.01-0.29,0.01-0.46,0.01h-1.39v4.09h-1.51v-9.81h2.9c2.17,0,3.5,0.87,3.5,2.79
			c0,1.34-0.59,2.2-1.61,2.62l2.12,3.94v0.46h-1.39L126.11,22.03z M124.27,20.92h1.34c1.33,0,2-0.48,2-1.72c0-1.22-0.71-1.71-2-1.71
			h-1.34V20.92z"/>
		<path d="M130.79,25.39v-1.23h0.53c0.45,0.48,1.19,0.9,2.41,0.9c1.27,0,2.02-0.52,2.02-1.58c0-1.22-1-1.39-2.23-1.74
			c-1.72-0.5-2.59-1.2-2.59-2.79c0-1.71,1.22-2.7,3.12-2.7c1.18,0,2.02,0.28,2.61,0.66v1.19h-0.52c-0.5-0.41-1.11-0.69-2.03-0.69
			c-1.25,0-1.85,0.52-1.85,1.43c0,1.02,0.74,1.29,1.93,1.6c2,0.55,2.96,1.12,2.96,2.89c0,1.9-1.25,2.9-3.38,2.9
			C132.38,26.22,131.52,25.88,130.79,25.39z"/>
	</g>
</g>
</svg>
