<?xml version="1.0" encoding="UTF-8"?>
<svg id="Layer_9" xmlns="http://www.w3.org/2000/svg" width="1000" height="1000" version="1.1" viewBox="0 0 1000 1000">
  <!-- Generator: Adobe Illustrator 29.0.0, SVG Export Plug-In . SVG Version: 2.1.0 Build 186)  -->
  <path d="M566.3,345.3l35.4,11.5c14.4,6,22,15.8,26.4,30.6,24.5,9.6,43.6,29.8,52.8,54.3l15.9-1.1c25.6.7,39.2,27.3,19.9,45.6-7.9,7.5-18.8,6.1-28.9,6.7-5,36.1-28.6,69.4-64.2,80-1.8,10.1-1.9,21-4.8,30.8-5.2,17.3-19.3,31.2-38.1,31.5,3.9,13.1,19.7,20.9,31.1,27.2,21.2,11.9,41.5,19.9,57.7,39.3,15.7,18.8,13.8,46.5,13.9,69.6-18.4-.1-36.7.2-55.1,0-52.7-.4-105.9-.6-158.6-.6-107.1,0-214.3.6-321.4.6,5.9-19.9,12.7-40.4,23.2-58.4,12.4-21.4,25-29.6,48.3-37.4,2.8-.9,6.3-1.4,8.9-2.4s.7-3.9.2-5.4c-2.8-7.5-22.1-21.3-28.6-28.1-10.5-11.1-16.8-25.9-19.2-41-12.9,1.8-31.5,5.9-44,1.6-25.1-8.7-40.2-29.5-45.8-55-8.7-39.8,5.5-73.9,42-92.4,4.6-2.4,9.2-4.3,14.5-4.7-2-4.9-.7-8.9-.6-13.5.1-9.6.5-19,.5-28.6-9.6-3.6-19.6-6.4-29-10.3-4.8-2-8.3-3-11.1-7.8-4.5-8-1.5-17.5,6.7-21.4l35.3-10.3,1.4-36.1c1.8-11.9,15.7-17.1,25.1-9.5l21.5,31.7h.8c11.1-2.5,22.6-7.5,33.7-9.7s4.5,0,6.5-.4c3.8-.9,17.4-9.9,23.6-12.3,14.3-5.6,28.4-6.5,41.3-15.4,20.1-13.8,34-27.4,56.4-39.3,62.3-33,163-39.8,210.9,21.5s8.9,42.6-4.4,58.9ZM231.4,385c36.1-11.1,72.9-20.1,108.1-33.9,50.8-25.7,87-68.2,150-48.3,17.7,5.6,25,18.1,40.5,26.3,9.4,4.9,15.5,7.3,21.5-3.2,4.1-7.2,6.2-17.3,1.2-24.5-19-27.3-60.8-39.1-92.5-37.9s-77.8,11.7-112.3,35.7c-16.9,11.8-31.2,28-51.2,34.4-12.8,4.1-38.1,9.4-47.3,19.4-2.5,2.7-10.8,13.8-12.6,17s-6,14.4-5.4,15.1ZM235.8,346.5l-36.5,9.8c-3.3.2-7.6-1.1-10.3-3-6.3-4.4-15.5-23.8-21.6-30.7s-1-1.6-2.1-1.3c.4,2.3-.5,4.4-.7,6.6-.6,9,.3,19.4-.6,28.4-.7,6.8-4.8,11.2-11,13.6-10.3,3.9-22.6,5.7-33.1,9.4-.2,1.4.9,1.7,1.9,2.2,9.2,4.5,31.9,8.6,37.3,16.2s2.7,4.8,3,7.7c.8,8-1,20.5-1.3,29,0,1.3-.4,7.9,1,7.9l22.6-28.7c4.7-4,9.5-5.3,15.5-3.7s32,12.9,33.3,11.7c.2-1.1-.6-1.7-1-2.5-5-9-13.1-17.8-18-26.7-3-5.5-3.6-10.7-.4-16.4,5.1-9,15.6-18.3,21.3-27.2.5-.8.8-1.2.6-2.2ZM540.5,361.7c-17-3.8-33.3-10.2-49.9-15.3s-38.5-12.6-55.9-16.6c-13-2.9-27.6,3.3-38.4,10.2-14.2,9-27,20.6-42.9,27l187-5.3ZM574.5,383.7c-5.6-1.3-11.6-.4-17.3-.6-55.3-1.8-111,1-166.1,3.2-22.8.9-45.8,1.1-68.6,2.5-8.5.5-26.6,1.4-33.6,5.4-20.1,11.5-21.8,38.3-19.6,58.9l8-1.4c11.8-28.8,37.5-48,67.5-55,16-3.7,31-5.4,47.2-1.9,35.4,7.6,62.4,38.4,69.2,73.4,10.8-6.9,23.9-7.7,36.5-6.3,5.4-34.1,30.8-61.9,62.8-73.5l14-4.6ZM257.2,398.8l-17.6,5c4.5,7.9,11.6,14.1,6.5,23.9-8.3,16.1-25.4,4.1-37.4.7-1.5,5.4-2.6,11.1-3.1,16.7-.3,3.3-1,10.9-.7,13.9s4.4,3.9,6.6,5.2l37.5-6.9c-1.3-19.7-1.8-41,8.2-58.6ZM592,399.7c-39.1,3.5-65.6,42.1-65.4,79.5.4,60.6,65.2,104.6,116.8,63.9,57.1-45,23.9-150.2-51.4-143.5ZM367.2,410.3c-48.3,4.9-74,58.5-61.7,102.4,19,67.8,107,77.8,135.4,11.7,22.2-51.7-13.4-120.2-73.7-114.1ZM687.1,461.9c.4,2,.1,10.2,1.7,10.7s2.5-.6,3.7-.6c4.9-.1,11.7,1.7,12.8-4.9s-13.9-6-18.1-5.2ZM166.5,580.3c12.8-2.4,16.7-12.2,18.7-23.8,4.4-26-3.4-67.3-23.7-85.5-2.6-2.3-11-8.6-14.1-8.5s-18.3,8.2-17.4,9.4c17.5,6.4,30.5,24.6,36.7,41.7,5.7,15.8,7.5,37.5,3.8,53.9-1,4.4-2.7,8.4-4,12.7ZM271,470.7l-65,13.4c-15.8,6.5-21.6,19.8,1.7,18.7l60.7-8.2c.1-8,.7-16.1,2.6-23.9ZM495.7,480.8c-8.3-1-17.9-1.9-25.4,2.6-1.7,1-6.4,4.7-6.7,6.5s.2,5.6,0,8.2c-4.9,54.1-43.8,91.9-99.2,89.2-35.9-1.7-67.6-16.9-84.8-49.4l-6.2-14.3,4.4,77.8c3.9,30.1,33.4,23.5,55,23,55.5-1.3,111.3-2.1,166.8-4.4,25.5-1.1,57.7-.4,82.3-5.2,17.3-3.4,18.8-21.9,20.3-36.4-.5-.7-11-1-13.2-1.3-51.6-6.7-91.7-42.4-93.6-96.3ZM120.4,489.1c-6.4,1.4-11,14.3-12.1,20-3.7,19.3.9,44.7,13.9,59.9,13.7,16.1,27.1,14.7,31-7.4,2.9-16.6,0-37.1-8.3-51.8-3.8-6.8-15.7-22.6-24.4-20.7ZM252.8,511c-.7-.7-17,3.1-18.6,3.8s-1.3.2-1.5,1c2.1,12.7,1.1,26.1-1.6,38.7-3.2,15-9.6,30.5-26.1,34,1,9.2,3.5,18.7,8.3,26.6,5.3,8.8,14.9,14.8,22.2,21.8,9.1,8.7,18.4,18.1,19.2,31.5l60-2c1.3-.4,1.6-7.2,2.1-9.2,1.1-4.2,3.1-8.1,4.6-12.1-15.9,1.6-32.2.6-45.5-8.9s-16.5-19.5-18-32.3c-3.2-25.5-2.9-54.7-4.4-80.6s-1.1-8.1-.6-12.3ZM570.1,657.2c-4.7-5.4-8.2-11.9-9.7-18.9l-1.3-.6c-9.2.5-18.5.8-27.7,1.3-55.1,2.7-110.4,3-165.6,5-3.7.1-10.5.2-13.8.7-7.7,1.2-15.1,13.1-16.1,20.4l234.2-7.9ZM660.7,748.5c.3-16.6-2.6-27.8-14.8-39.1-40.6-37.8-86.7-29.5-137.2-27.7-73.1,2.6-146.1,5.2-219.1,8.2-28.5,1.2-54.3-.5-80.3,14.1-16.4,9.2-23.2,28.5-30.2,45.1l153.3-.6c1.6-.3,4.6-5.6,6-7.2,35.6-40.4,127.9-40.8,177.1-34.3,32.6,4.3,69.3,14.6,90.1,41.5h55.1ZM575.1,747.9c-9.4-7.3-21.8-11.8-33.2-14.9-44.6-12.3-135.9-14.1-175.7,11.5-1.7,1.1-4,2.3-5.1,4l214-.6Z"/>
  <path d="M660.7,748.5h-55.1c-20.8-26.9-57.6-37.2-90.1-41.5-49.2-6.5-141.5-6.1-177.1,34.3-1.4,1.6-4.4,6.9-6,7.2l-153.3.6c7-16.5,13.8-35.8,30.2-45.1,26-14.6,51.8-13,80.3-14.1,73-3,146-5.6,219.1-8.2,50.6-1.8,96.6-10.1,137.2,27.7,12.1,11.3,15.1,22.5,14.8,39.1Z" fill="#fff"/>
  <path d="M495.7,480.8c1.9,53.9,42,89.6,93.6,96.3,2.2.3,12.7.6,13.2,1.3-1.5,14.5-3,33-20.3,36.4-24.6,4.8-56.9,4.1-82.3,5.2-55.5,2.3-111.3,3.1-166.8,4.4-21.7.5-51.2,7.1-55-23l-4.4-77.8,6.2,14.3c17.2,32.5,48.8,47.6,84.8,49.4,55.4,2.7,94.3-35,99.2-89.2.2-2.6-.4-5.9,0-8.2s5-5.5,6.7-6.5c7.5-4.5,17-3.6,25.4-2.6ZM436.1,572.2l-9.9,18.2c25.1,13.7,56.8,18.5,84.4,10.1,12.3-3.7,23.7-10.4,32.4-19.9l-15.4-14.7c-19.1,20.6-52.2,20.8-77.1,12.3-5-1.7-9.5-4.6-14.4-5.9Z" fill="#fff"/>
  <path d="M592,399.7c75.4-6.7,108.5,98.5,51.4,143.5-51.6,40.6-116.4-3.4-116.8-63.9-.2-37.4,26.3-76,65.4-79.5ZM607.5,435.4l-37.4,44.4c0,.6,8.1,7.3,8.8,7.6s1,.4,1.6-.3l36.2-43.2-9.1-8.5ZM633.3,453.8l-56.1,66.7,8.8,8.2,56.1-66.8-8.9-8.1Z" fill="#fff"/>
  <path d="M367.2,410.3c60.3-6.1,96,62.4,73.7,114.1-28.4,66-116.4,56.1-135.4-11.7-12.3-43.9,13.5-97.5,61.7-102.4ZM337.8,500.2c2.3.5,7.4,7.7,9.4,6.7l40.3-45.4-9.1-8.5-40,45-.5,2.2ZM422.1,468.8c-2.4-.2-8.1-7.9-10-6.9l-54.9,67.7,8.9,6.9,56-67.7Z" fill="#fff"/>
  <path d="M231.4,385c-.6-.6,4.4-13.4,5.4-15.1,1.8-3.2,10.1-14.3,12.6-17,9.2-10,34.6-15.3,47.3-19.4,20-6.5,34.3-22.7,51.2-34.4,34.5-24,70.3-34,112.3-35.7s73.5,10.6,92.5,37.9,2.8,17.4-1.2,24.5c-6,10.6-12.1,8.2-21.5,3.2-15.5-8.1-22.8-20.7-40.5-26.3-63.1-19.9-99.2,22.6-150,48.3-35.2,13.8-72,22.8-108.1,33.9Z" fill="#fff"/>
  <path d="M574.5,383.7l-14,4.6c-32,11.6-57.4,39.5-62.8,73.5-12.6-1.4-25.7-.6-36.5,6.3-6.8-35-33.9-65.8-69.2-73.4-16.3-3.5-31.2-1.8-47.2,1.9-30,6.9-55.7,26.2-67.5,55l-8,1.4c-2.2-20.6-.5-47.4,19.6-58.9,7-4,25.1-4.9,33.6-5.4,22.9-1.4,45.8-1.6,68.6-2.5,55.2-2.1,110.9-4.9,166.1-3.2,5.8.2,11.7-.7,17.3.6Z" fill="#fff"/>
  <path d="M252.8,511c-.5,4.2.4,8.3.6,12.3,1.5,26,1.3,55.2,4.4,80.6,1.6,12.8,7.4,24.8,18,32.3s29.6,10.5,45.5,8.9c-1.5,4-3.5,7.9-4.6,12.1-.5,2-.9,8.8-2.1,9.2l-60,2c-.8-13.4-10.1-22.8-19.2-31.5-7.3-7-16.9-13.1-22.2-21.8-4.8-7.9-7.3-17.4-8.3-26.6,16.6-3.5,22.9-19,26.1-34,2.7-12.5,3.7-26,1.6-38.7.3-.9.9-.8,1.5-1,1.6-.6,17.9-4.5,18.6-3.8Z" fill="#fff"/>
  <path d="M235.8,346.5c.2,1-.1,1.4-.6,2.2-5.7,8.9-16.2,18.1-21.3,27.2-3.2,5.7-2.6,10.8.4,16.4,4.9,8.9,13,17.7,18,26.7.4.8,1.2,1.4,1,2.5-1.3,1.2-29-10.5-33.3-11.7s-10.8-.3-15.5,3.7l-22.6,28.7c-1.3,0-1-6.6-1-7.9.3-8.4,2.1-20.9,1.3-29s-1.3-5.3-3-7.7c-5.4-7.6-28.1-11.7-37.3-16.2-1-.5-2.1-.8-1.9-2.2,10.5-3.8,22.8-5.5,33.1-9.4,6.2-2.4,10.3-6.7,11-13.6.9-9,0-19.3.6-28.4.1-2.2,1-4.3.7-6.6,1.2-.2,1.5.6,2.1,1.3,6.1,6.9,15.2,26.3,21.6,30.7,2.7,1.9,7,3.2,10.3,3l36.5-9.8Z" fill="#fff"/>
  <path d="M570.1,657.2l-234.2,7.9c1-7.4,8.4-19.2,16.1-20.4,3.3-.5,10.1-.6,13.8-.7,55.2-2,110.5-2.4,165.6-5s18.5-.7,27.7-1.3l1.3.6c1.5,7.1,5.1,13.5,9.7,18.9Z" fill="#fff"/>
  <path d="M575.1,747.9l-214,.6c1.1-1.8,3.4-2.9,5.1-4,39.9-25.7,131.1-23.9,175.7-11.5,11.5,3.2,23.8,7.6,33.2,14.9Z" fill="#fff"/>
  <path d="M540.5,361.7l-187,5.3c15.8-6.5,28.6-18,42.9-27,10.8-6.8,25.4-13.1,38.4-10.2,17.4,3.9,38.4,11.2,55.9,16.6s32.9,11.5,49.9,15.3Z" fill="#fff"/>
  <path d="M120.4,489.1c8.7-1.9,20.6,13.9,24.4,20.7,8.2,14.7,11.2,35.3,8.3,51.8-3.9,22.1-17.3,23.5-31,7.4-12.9-15.2-17.6-40.6-13.9-59.9,1.1-5.7,5.7-18.6,12.1-20Z" fill="#fff"/>
  <path d="M166.5,580.3c1.3-4.3,3-8.3,4-12.7,3.7-16.4,1.9-38.1-3.8-53.9-6.2-17.1-19.1-35.3-36.7-41.7-.9-1.2,14.7-9.3,17.4-9.4s11.5,6.2,14.1,8.5c20.3,18.2,28.2,59.6,23.7,85.5-2,11.7-5.9,21.4-18.7,23.8Z" fill="#fff"/>
  <path d="M271,470.7c-1.9,7.8-2.4,15.9-2.6,23.9l-60.7,8.2c-23.3,1.1-17.5-12.2-1.7-18.7l65-13.4Z" fill="#fff"/>
  <path d="M257.2,398.8c-10,17.6-9.5,38.9-8.2,58.6l-37.5,6.9c-2.2-1.3-6.3-2.5-6.6-5.2s.3-10.6.7-13.9c.6-5.6,1.7-11.3,3.1-16.7,12,3.4,29.1,15.4,37.4-.7s-2-16-6.5-23.9l17.6-5Z" fill="#fff"/>
  <path d="M687.1,461.9c4.2-.8,19.4-2.2,18.1,5.2s-8,4.7-12.8,4.9-3,.8-3.7.6c-1.5-.4-1.2-8.7-1.7-10.7Z" fill="#fff"/>
  <path d="M436.1,572.2c4.9,1.3,9.4,4.2,14.4,5.9,24.9,8.6,58,8.3,77.1-12.3l15.4,14.7c-8.6,9.5-20.1,16.2-32.4,19.9-27.6,8.4-59.3,3.6-84.4-10.1l9.9-18.2Z"/>
  <polygon points="633.3 453.8 642.2 461.8 586.1 528.6 577.3 520.5 633.3 453.8"/>
  <path d="M607.5,435.4l9.1,8.5-36.2,43.2c-.6.7-.8.5-1.6.3s-8.8-7-8.8-7.6l37.4-44.4Z"/>
  <path d="M422.1,468.8l-56,67.7-8.9-6.9,54.9-67.7c1.9-1.1,7.5,6.6,10,6.9Z"/>
  <path d="M337.8,500.2l.5-2.2,40-45,9.1,8.5-40.3,45.4c-1.9,1-7.1-6.2-9.4-6.7Z"/>
</svg>