<svg xmlns="http://www.w3.org/2000/svg" xmlns:xlink="http://www.w3.org/1999/xlink" viewBox="0 0 200 200">
  <rect x="10" y="10" width="180" height="180" rx="20" fill="#fff"/>
  <svg x="18" y="40" width="164" height="120" viewBox="0 0 252 153.77">
    <g>
      <polygon fill="#004E7D" points="241.41,147.97 43.28,147.97 10.59,6.15 208.72,6.15"/>
      <g>
        <g>
          <path fill="#FFFFFF" d="M48.57,63.9h6.49c4.06,0,7.28,1.34,7.28,5.7c0,3.11-1.8,4.36-4.07,5.11v0.03c2.85,0.63,5.18,1.96,5.18,5.77c0,4.42-3.25,6.32-7.87,6.32h-7.02V63.9H48.57z M54.96,74.1c3.08,0,5.6-1.11,5.6-4.43c0-3.37-2.52-4.32-5.54-4.32H50.3v8.75H54.96z M55.55,85.4c3.51,0,6.1-1.44,6.1-4.95s-2.49-4.91-6.49-4.91h-4.85v9.86H55.55z"/>
          <path fill="#FFFFFF" d="M86.26,79.15V63.9h1.67v15.18c0,5.77-3.57,7.9-8.33,7.9c-4.69,0-8.49-2.1-8.49-7.9V63.9h1.74v15.24c0,4.91,3.12,6.39,6.85,6.39C83.31,85.54,86.26,84.16,86.26,79.15z"/>
          <path fill="#FFFFFF" d="M95.01,84.82v-1.54h0.79c1.21,1.21,3.01,2.29,6.26,2.29c3.51,0,5.93-1.44,5.93-4.92c0-3.37-2.65-4.03-5.97-4.91c-4.1-1.08-6.46-2.39-6.46-6.13c0-3.31,2.43-5.84,6.91-5.84c2.89,0,4.72,0.75,6.13,1.8v1.48h-0.82c-1.21-1.11-2.72-1.87-5.28-1.87c-3.74,0-5.28,1.87-5.28,4.29c0,3.15,2.16,3.87,5.28,4.69c4.62,1.22,7.18,2.36,7.18,6.36c0,4.46-3.15,6.46-7.6,6.46C98.68,86.98,96.52,86,95.01,84.82z"/>
          <path fill="#FFFFFF" d="M117.56,86.85V63.9h1.77v22.94h-1.77V86.85z"/>
          <path fill="#FFFFFF" d="M128.72,63.9h2.16l12.75,19.8h0.03V63.9h1.67v22.94h-1.67l-13.24-20.62h-0.06v20.62h-1.64V63.9z"/>
          <path fill="#FFFFFF" d="M154.65,63.9h13.67v1.47h-11.93v8.92h9.01v1.44h-9.01v9.67h12.39v1.44h-14.13L154.65,63.9L154.65,63.9z"/>
          <path fill="#FFFFFF" d="M174.67,84.82v-1.54h0.79c1.21,1.21,3.01,2.29,6.26,2.29c3.51,0,5.93-1.44,5.93-4.92c0-3.37-2.65-4.03-5.97-4.91c-4.1-1.08-6.46-2.39-6.46-6.13c0-3.31,2.43-5.84,6.92-5.84c2.89,0,4.72,0.75,6.13,1.8v1.48h-0.82c-1.21-1.11-2.72-1.87-5.28-1.87c-3.74,0-5.28,1.87-5.28,4.29c0,3.15,2.16,3.87,5.28,4.69c4.62,1.22,7.18,2.36,7.18,6.36c0,4.46-3.15,6.46-7.6,6.46C178.34,86.98,176.18,86,174.67,84.82z"/>
          <path fill="#FFFFFF" d="M195.09,84.82v-1.54h0.79c1.21,1.21,3.01,2.29,6.26,2.29c3.51,0,5.93-1.44,5.93-4.92c0-3.37-2.65-4.03-5.97-4.91c-4.1-1.08-6.46-2.39-6.46-6.13c0-3.31,2.43-5.84,6.91-5.84c2.89,0,4.72,0.75,6.13,1.8v1.48h-0.82c-1.21-1.11-2.72-1.87-5.28-1.87c-3.74,0-5.28,1.87-5.28,4.29c0,3.15,2.16,3.87,5.28,4.69c4.62,1.22,7.18,2.36,7.18,6.36c0,4.46-3.15,6.46-7.6,6.46C198.76,86.98,196.6,86,195.09,84.82z"/>
          <path fill="#FFFFFF" d="M46.5,114.9v-1.54h0.79c1.21,1.21,3.01,2.29,6.26,2.29c3.51,0,5.93-1.44,5.93-4.91c0-3.38-2.65-4.03-5.97-4.92c-4.1-1.08-6.46-2.39-6.46-6.13c0-3.31,2.43-5.84,6.91-5.84c2.89,0,4.72,0.75,6.13,1.8v1.47h-0.82c-1.21-1.11-2.72-1.87-5.28-1.87c-3.74,0-5.28,1.87-5.28,4.29c0,3.15,2.16,3.87,5.28,4.69c4.62,1.21,7.18,2.36,7.18,6.36c0,4.46-3.15,6.46-7.6,6.46C50.17,117.06,48.01,116.09,46.5,114.9z"/>
          <path fill="#FFFFFF" d="M63.87,105.46c0-7.51,4.69-11.6,10.33-11.6c5.57,0,10.26,4.1,10.26,11.6c0,7.54-4.69,11.6-10.26,11.6C68.55,117.06,63.87,113,63.87,105.46z M82.65,105.5c0-6.72-3.7-10.26-8.46-10.26c-4.82,0-8.53,3.54-8.53,10.26s3.71,10.19,8.53,10.19C78.95,115.69,82.65,112.21,82.65,105.5z"/>
          <path fill="#FFFFFF" d="M88.68,116.94V93.99h1.74v21.51h11.96v1.44C102.38,116.94,88.68,116.94,88.68,116.94z"/>
          <path fill="#FFFFFF" d="M120.37,109.24V93.99h1.67v15.18c0,5.77-3.57,7.9-8.33,7.9c-4.69,0-8.49-2.1-8.49-7.9V93.99h1.74v15.25c0,4.91,3.12,6.39,6.85,6.39C117.42,115.62,120.37,114.25,120.37,109.24z"/>
          <path fill="#FFFFFF" d="M132.91,116.94V95.43h-7.51v-1.44h16.75v1.44h-7.48v21.51C134.67,116.94,132.91,116.94,132.91,116.94z"/>
          <path fill="#FFFFFF" d="M145.79,116.94V93.99h1.77v22.95C147.56,116.94,145.79,116.94,145.79,116.94z"/>
          <path fill="#FFFFFF" d="M151.83,105.46c0-7.51,4.69-11.6,10.33-11.6c5.57,0,10.26,4.1,10.26,11.6c0,7.54-4.69,11.6-10.26,11.6C156.51,117.06,151.83,113,151.83,105.46z M170.61,105.5c0-6.72-3.7-10.26-8.46-10.26c-4.82,0-8.53,3.54-8.53,10.26s3.71,10.19,8.53,10.19C166.91,115.69,170.61,112.21,170.61,105.5z"/>
          <path fill="#FFFFFF" d="M176.64,93.99h2.16l12.75,19.8h0.03v-19.8h1.67v22.95h-1.67l-13.24-20.62h-0.07v20.62h-1.64V93.99H176.64z"/>
          <path fill="#FFFFFF" d="M196.83,114.9v-1.54h0.79c1.21,1.21,3.01,2.29,6.26,2.29c3.51,0,5.93-1.44,5.93-4.91c0-3.38-2.65-4.03-5.97-4.92c-4.1-1.08-6.46-2.39-6.46-6.13c0-3.31,2.43-5.84,6.92-5.84c2.89,0,4.72,0.75,6.13,1.8v1.47h-0.82c-1.21-1.11-2.72-1.87-5.28-1.87c-3.74,0-5.28,1.87-5.28,4.29c0,3.15,2.16,3.87,5.28,4.69c4.62,1.21,7.18,2.36,7.18,6.36c0,4.46-3.15,6.46-7.6,6.46C200.5,117.06,198.34,116.09,196.83,114.9z"/>
        </g>
        <g>
          <g>
            <path fill="#FFFFFF" d="M96.23,53.27c0,1.92,0.39,3,0.64,3.41h-4.76c-0.3-0.44-0.39-1.49-0.39-1.97c-1.73,1.4-3.76,2.14-6.09,2.14c-3.54,0-6.35-2.25-6.35-5.87c0-3.65,2.91-5.27,5.68-5.83l1.88-0.37c1.62-0.33,3.73-0.7,4.87-1.11v-0.55c0-1.84-1.59-2.36-3.54-2.36c-2.62,0-3.44,1.07-3.44,2.82h-4.51c0-4.39,3.2-6.48,7.95-6.29c4.02,0.16,8.04,0.81,8.04,6.12v9.86H96.23z M91.73,47.07c-0.59,0.3-1.33,0.52-2.14,0.66l-2.47,0.52c-1.7,0.33-3.1,0.81-3.1,2.58c0,1.4,1.29,2.32,2.91,2.32c2.1,0,4.79-1.03,4.79-3.43L91.73,47.07L91.73,47.07z"/>
            <path fill="#FFFFFF" d="M112.36,43.21c-2.49-1.62-3.12-2.06-5.14-2.23c-2.1-0.18-3.43,0.7-3.43,1.81c0,3.25,11.77,0.48,11.77,7.52c0,4.5-4.02,6.53-8.3,6.53c-4.39,0-7.38-1.51-9.04-3.39l2.83-2.2c2.06,1.56,3.55,1.9,5.95,1.9c2.14,0,3.62-1.18,3.62-2.18c0-3.17-11.55-0.55-11.55-7.64c0-4.2,3.65-6.05,8.26-6.05c4.46,0,6.82,2.29,7.71,3.39L112.36,43.21z"/>
            <path fill="#FFFFFF" d="M133.92,53.27c0,1.92,0.49,2.95,0.75,3.36h-4.76c-0.3-0.44-0.49-1.44-0.49-1.92c-1.73,1.4-3.76,2.14-6.08,2.14c-3.54,0-6.35-2.25-6.35-5.87c0-3.65,2.91-5.27,5.68-5.83l1.88-0.37c1.62-0.33,3.72-0.7,4.87-1.11v-0.55c0-1.84-1.58-2.36-3.54-2.36c-2.62,0-3.46,1.12-3.46,2.89l-4.51-0.02c0-4.39,3.29-6.53,7.97-6.34c4.02,0.16,8.04,0.81,8.04,6.12V53.27z M129.42,47.07c-0.59,0.3-1.33,0.52-2.14,0.66l-2.47,0.52c-1.7,0.33-3.1,0.81-3.1,2.58c0,1.4,1.29,2.32,2.91,2.32c2.1,0,4.79-1.03,4.79-3.43L129.42,47.07L129.42,47.07z"/>
            <path fill="#FFFFFF" d="M140.55,48.14c0.07,2.77,2.4,4.47,4.83,4.57c3.45,0.14,4.95-1.05,6.11-2.26l3.07,1.81c-1.4,2.14-4.09,4.57-9.19,4.57c-6.05,0-9.55-4.21-9.55-9.77s3.5-9.77,9.55-9.77c6.23,0,8.96,4.17,8.96,10.84L140.55,48.14L140.55,48.14z M149.63,44.67c0-1-1.22-3.69-4.24-3.69c-2.62,0-4.35,1.7-4.83,3.69H149.63z"/>
          </g>
          <g>
            <path fill="#FFFFFF" d="M162.39,39.76c0,1.43-1.1,2.54-2.54,2.54c-1.43,0-2.54-1.11-2.54-2.54s1.11-2.54,2.54-2.54S162.39,38.33,162.39,39.76 M157.71,39.76c0,1.22,0.91,2.18,2.14,2.18s2.14-0.96,2.14-2.18c0-1.21-0.91-2.18-2.14-2.18C158.62,37.58,157.71,38.54,157.71,39.76 M159.29,41.23h-0.36V38.3h1.13c0.66,0,0.96,0.29,0.96,0.81s-0.34,0.75-0.74,0.82l0.87,1.3h-0.42l-0.82-1.3h-0.61L159.29,41.23L159.29,41.23z M159.77,39.62c0.44,0,0.88-0.01,0.88-0.51c0-0.41-0.34-0.51-0.7-0.51h-0.66v1.02C159.29,39.62,159.77,39.62,159.77,39.62z"/>
            <path fill="#FFFFFF" d="M49.59,56.71l13.55-8.76c2.79,3.39,6.28,8.66,6.28,8.66s1.47-6.03-0.2-12.59l8.33-5.38l-10.56,0.01c-1.54-2.38-3.37-3.63-4.29-4.15l1.04-3.1l-1.64,2.8h-0.01h0.01l-2.62,4.45l-11.15-0.03l10.54,1.04l-1.04,1.88c-4.05-1.82-9.51-2.9-9.51-2.9s4.61,1.81,8.78,4.29L49.59,56.71z M60.85,39.81l4.51,0.24c0.28,0.47,1.06,2.79,1.15,3.19l-3.02,1.65c-0.99-0.84-3.61-2.31-3.79-2.41L60.85,39.81z M64.93,38.64h-3.65l1.34-3.99C63.69,35.99,64.28,37.1,64.93,38.64 M68.58,41.95c-0.11-0.3-0.22-0.59-0.34-0.89c-0.13-0.32-0.27-0.62-0.41-0.91l3.35,0.16L68.58,41.95z M65.39,46.53l1.57-1c0.37,2.52,0.3,3.29,0.3,3.29S66.91,47.94,65.39,46.53 M61.68,46.3l-4.66,2.93l2.05-5.04c0.73,0.51,1.43,1.03,2.03,1.56C61.28,45.91,61.47,46.09,61.68,46.3"/>
          </g>
        </g>
      </g>
    </g>
  </svg>
</svg>
