<svg xmlns="http://www.w3.org/2000/svg" xmlns:xlink="http://www.w3.org/1999/xlink" viewBox="0 0 200 200">
  <rect x="10" y="10" width="180" height="180" rx="20" fill="#fff" stroke="#ddd" stroke-width="1"/>
  <svg x="15" y="35" width="170" height="130" viewBox="0 0 297 155.1">
    <title>ASAE Research Foundation Logo</title>
    <path fill="#03793E" d="M4.8,52.9h9.7v3.3c2.1-2,5.7-3.2,9.1-3.5l0.1,8.6l-1,0.1c-5.8,0.7-8.1,1.7-8.1,5.4V86H4.8V52.9z"/>
    <path fill="#03793E" d="M48.1,65.5c-0.3-4.8-3.8-6.3-6.6-6.3c-3.5,0-6.4,2.8-6.6,6.3H48.1z M35.1,71.5c0.1,6.3,4.1,8.3,7.2,8.3c3.6,0,5.3-1.9,8.1-5.8l7.3,3.8c-3.4,6.2-8.6,9.1-16,9.1c-10.2,0-16.2-7.1-16.2-16.4c0-11.7,6.2-18.4,16.2-18.4c12,0,16.2,9.2,16.2,19.4H35.1z"/>
    <path fill="#03793E" d="M84.7,62.7c-1.9-2.3-6.1-3.5-9.1-3.5c-2.4,0-4.2,0.9-4.2,2.5c0,5.6,19.6,1,19.6,13.4c0,8.7-7.7,11.8-14.9,11.8s-11.3-2-16.2-6.5l6-5.2c3,2.8,6,4.7,10.4,4.7c1.6,0,5.3-0.4,5.3-3.4c0-5.2-19.6-1.1-19.6-12.8c0-8.3,7.3-11.5,14-11.5c5.2,0.1,10.3,1.8,14.6,4.8L84.7,62.7z"/>
    <path fill="#03793E" d="M117,65.5c-0.3-4.8-3.8-6.3-6.6-6.3c-3.5,0-6.4,2.8-6.6,6.3H117z M104,71.5c0.1,6.3,4.1,8.3,7.2,8.3c3.6,0,5.3-1.9,8.1-5.8l7.3,3.8c-3.4,6.2-8.6,9.1-16,9.1c-10.2,0-16.2-7.1-16.2-16.4c0-11.7,6.2-18.4,16.2-18.4c12,0,16.1,9.2,16.2,19.4H104z"/>
    <path fill="#03793E" d="M150.8,69.9l-6.5,1.9c-2.4,0.7-4.7,1.6-4.7,4.3s2.2,3.7,4.5,3.7c3.8,0,6.6-2.6,6.6-7.6L150.8,69.9z M160.1,79.1c-0.1,2.3,0.2,4.7,0.9,6.9h-9c-0.4-1.1-0.6-2.3-0.6-3.4h-0.1c-1.6,2.6-6.5,4.3-9.9,4.3c-6.3,0-11.1-3.5-11.1-9.8c0-8,6.4-10.7,17-12.2l3.5-0.5v-2.8c0-2.5-2-3.5-4.6-3.5c-3.1,0-4.6,1.1-5.1,4.4h-9.3c0.3-9.5,9.1-10.4,13.6-10.4c9,0,14.7,2.1,14.7,9.6L160.1,79.1z"/>
    <path fill="#03793E" d="M165.8,52.9h9.7v3.3c2.1-2,5.6-3.2,9.1-3.5l0.1,8.6l-1.1,0.1c-5.8,0.7-8.1,1.7-8.1,5.4V86h-9.7V52.9z"/>
    <path fill="#03793E" d="M210.2,64c-1.7-3.7-4.7-4.5-6.2-4.5c-5.5,0-7.5,4.3-7.5,9.9s2.4,9.9,7.5,9.9c3,0,5.4-1.1,6.9-4.8l7,3.5c-2.9,5.4-8.6,8.7-14.7,8.8c-9.9,0-16.7-6.3-16.7-17.4c0-10.9,7.3-17.4,16.4-17.4c6.3,0,11.7,2.3,14.9,8.1L210.2,64z"/>
    <path fill="#03793E" d="M222,41.7h9.7V56h0.1c1.9-2.5,6-4,9.1-4c7,0,10.4,4,10.4,10.7V86h-9.6V66.2c0-5.1-2.7-6.3-4.8-6.3s-5,1.4-5,7.6V86H222V41.7z"/>
    <path fill="#03793E" d="M5.2,115.1H0v-4.6h5.2v-5.6c0-6.9,2.7-9.8,8.8-9.8c1.2,0,2.3,0.2,3.4,0.4v4.1c-1-0.2-2-0.3-3-0.3c-1.7,0-3.8,0.5-3.8,4.4v6.8h5.9v4.6h-5.8v26.9H5.2V115.1z"/>
    <path fill="#03793E" d="M35.5,138.5c7.8,0,9.6-7.1,9.6-12.3s-1.8-12.3-9.6-12.3s-9.6,7.1-9.6,12.3S27.7,138.5,35.5,138.5 M35.5,109.7c9.6,0,15.4,7,15.4,16.5s-5.8,16.5-15.4,16.5s-15.4-7-15.4-16.5S25.9,109.7,35.5,109.7"/>
    <path fill="#03793E" d="M83.1,141.9h-5.4v-4.2h-0.1c-2,3.2-5.5,5.1-9.2,5c-6.3,0-11.1-2.8-11.1-11.5v-20.7h5.4v20.7c0,4.5,2.8,6.5,6.7,6.5c5,0,8.4-3.2,8.4-8.3v-19h5.4V141.9z"/>
    <path fill="#03793E" d="M91.4,110.4h5.4v4.2H97c2-3.2,5.5-5.1,9.2-5c6.3,0,11.1,2.8,11.1,11.5v20.7h-5.4v-20.2c0-5.4-2.8-7-6.7-7c-5,0-8.4,3.2-8.4,8.3v19h-5.4L91.4,110.4z"/>
    <path fill="#03793E" d="M139.3,138.1c7,0,9.8-5.7,9.8-11.9s-3.6-11.9-9.8-11.9c-7,0-9.8,5.7-9.8,11.9S132.3,138.1,139.3,138.1 M154.3,141.9h-5.4v-3.8h-0.1c-2.3,3-5.9,4.6-9.7,4.5c-11.6,0-15.5-8.1-15.5-16.5s4.2-16.5,15-16.5c3.9-0.2,7.7,1.6,10.1,4.7h0.1V95.1h5.4L154.3,141.9z"/>
    <path fill="#03793E" d="M180.6,126.6c-8.8,1.2-14.9,2.2-14.9,7.1c0,3.8,3.5,4.8,6.1,4.8c5.1,0,8.9-3.1,8.9-8.3V126.6z M180.6,120.2c0-4.5-2-6.4-7.4-6.4c-4.1,0-6.2,2.2-6.4,6.4l-5.4-0.3c0.7-7.1,4.9-10.3,11.9-10.3c5.3,0,12.7,1.4,12.7,9.7V134c0,3.1,1.2,3.6,2.3,3.6c0.6,0,1.1-0.1,1.6-0.3v4.5c-1.1,0.3-2.2,0.4-3.4,0.5c-3.2,0-4.7-1.4-5.5-4.3c-2.8,3.2-6.9,5-11.2,4.9c-5.6,0-10.1-3.8-10.1-8.7c0-8.7,7.8-10.3,20.7-11L180.6,120.2z"/>
    <path fill="#03793E" d="M191.4,110.4h5.2v-9.8h5.4v9.8h5.9v4.6H202v20c0,1.5,0,3,2.2,3c1.2,0,2.3-0.2,3.4-0.7v4.6c-1.7,0.4-3.5,0.6-5.3,0.7c-5.6,0-5.6-2.6-5.6-6.2v-21.4h-5.2L191.4,110.4z"/>
    <path fill="#03793E" d="M214.7,110.4h5.4v31.5h-5.4V110.4z M214.7,95h5.4v6.2h-5.4V95z"/>
    <path fill="#03793E" d="M240.3,138.5c7.8,0,9.6-7.1,9.6-12.3s-1.8-12.3-9.6-12.3s-9.6,7.1-9.6,12.3S232.6,138.5,240.3,138.5 M240.3,109.7c9.6,0,15.4,7,15.4,16.5s-5.7,16.5-15.4,16.5s-15.4-7-15.4-16.5S230.7,109.7,240.3,109.7"/>
    <path fill="#03793E" d="M262.1,110.4h5.4v4.2h0.1c2-3.2,5.5-5.1,9.2-5c6.3,0,11.1,2.8,11.1,11.5v20.7h-5.4v-20.2c0-5.4-2.8-7-6.6-7c-5,0-8.4,3.2-8.4,8.3v19h-5.4V110.4z"/>
    <path fill="#221F20" d="M140.4,16.8c0.5,0,0.9,0,0.9-0.5s-0.4-0.5-0.8-0.5h-0.7v1.1H140.4z M139.9,18.5h-0.4v-3.2h1.2c0.7,0,1,0.3,1,0.9c0,0.5-0.3,0.8-0.8,0.9l0.9,1.4h-0.4l-0.9-1.4h-0.6L139.9,18.5z M138.2,17c0,1.3,1.1,2.3,2.3,2.3c1.3,0,2.3-1.1,2.3-2.3c0-1.3-1.1-2.3-2.3-2.3C139.3,14.6,138.3,15.7,138.2,17C138.2,16.9,138.2,17,138.2,17 M143.2,17c0,1.5-1.2,2.7-2.7,2.7c-1.5,0-2.7-1.2-2.7-2.7c0-1.5,1.2-2.7,2.7-2.7C142,14.2,143.2,15.4,143.2,17C143.3,16.9,143.3,17,143.2,17"/>
    <path fill="#221F20" d="M58.8,29c-0.9,0.4-1.8,0.7-2.7,0.8L53,30.5c-2.1,0.4-3.9,1-3.9,3.2c0,1.8,1.6,2.9,3.7,2.9c2.6,0,6-1.3,6-4.3V29z M64.4,36.8c-0.1,1.5,0.2,2.9,0.8,4.3h-6c-0.3-0.8-0.5-1.6-0.5-2.5c-2.1,1.8-4.8,2.7-7.6,2.7c-4.4,0-8-2.8-8-7.3s3.7-6.6,7.1-7.3l2.4-0.5c2.1-0.3,4.1-0.8,6.1-1.4v-0.7c0-2.3-2-3-4.4-3C51,21.1,50,22.5,50,24.6h-5.6c0-5.5,4-8.1,10-7.9c5,0.2,10.1,1,10.1,7.7L64.4,36.8z"/>
    <path fill="#221F20" d="M84.6,24.2c-3.1-2-3.9-2.6-6.4-2.8s-4.3,0.9-4.3,2.3c0,4.1,14.7,0.6,14.7,9.4c0,5.6-5,8.2-10.4,8.2S69,39.4,66.9,37l3.5-2.8c2.1,1.7,4.8,2.6,7.5,2.4c2.7,0,4.5-1.5,4.5-2.7c0-4-14.5-0.7-14.5-9.6c0-5.3,4.6-7.6,10.3-7.6c3.7-0.2,7.3,1.4,9.7,4.2L84.6,24.2z"/>
    <path fill="#221F20" d="M106,29c-0.9,0.4-1.8,0.7-2.7,0.8l-3.1,0.6c-2.1,0.4-3.9,1-3.9,3.2c0,1.8,1.6,2.9,3.7,2.9c2.6,0,6-1.3,6-4.3L106,29z M111.6,36.8c-0.1,1.5,0.2,2.9,0.9,4.2h-6c-0.4-0.7-0.6-1.6-0.6-2.4c-2.1,1.8-4.9,2.7-7.6,2.7c-4.4,0-8-2.8-8-7.3s3.7-6.6,7.1-7.3l2.4-0.5c2.1-0.3,4.1-0.8,6.1-1.4v-0.7c0-2.3-2-3-4.4-3c-3.3,0-4.3,1.4-4.3,3.6h-5.7c0-5.5,4.1-8.2,10-7.9c5,0.2,10.1,1,10.1,7.7L111.6,36.8z"/>
    <path fill="#221F20" d="M131.3,26c-0.3-2.7-2.6-4.6-5.3-4.6c-2.8-0.1-5.3,1.8-6,4.6H131.3z M120,30.4c0.1,3.2,2.8,5.7,6,5.7c4.3,0.2,6.2-1.3,7.7-2.8l3.9,2.3c-1.8,2.7-5.1,5.7-11.5,5.7c-7.6,0-12-5.3-12-12.2s4.4-12.2,12-12.2c7.8,0,11.2,5.2,11.2,13.6L120,30.4z"/>
    <path fill="#E65526" d="M21.1,28l-5.8,3.7l2.6-6.3c0.9,0.6,1.7,1.3,2.5,2C20.6,27.6,20.8,27.8,21.1,28 M25.8,28.3l2-1.3c0.3,1.4,0.4,2.7,0.4,4.1C27.6,30.1,26.8,29.1,25.8,28.3 M29.8,22.6c-0.1-0.4-0.3-0.8-0.4-1.1s-0.3-0.8-0.5-1.1l4.2,0.2L29.8,22.6z M25.2,18.5h-4.6l1.7-5C23.5,15,24.5,16.7,25.2,18.5 M20.1,19.9l5.7,0.3c0.6,1.3,1.1,2.6,1.4,4l-3.8,2.1c-1.5-1.1-3.1-2.1-4.7-3L20.1,19.9z M6,41.1l17-11c3.4,4.3,7.8,10.9,7.8,10.9c1.1-5.2,1-10.6-0.3-15.8L41,18.4H27.8c-1.4-2.1-3.2-3.9-5.4-5.2l1.3-3.9l-2.1,3.5l0,0l-3.3,5.6h-14l13.2,1.3l-1.3,2.4c-3.8-1.6-7.8-2.8-11.9-3.6c3.8,1.5,7.5,3.3,11,5.4L6,41.1z"/>
  </svg>
</svg>
