<svg xmlns="http://www.w3.org/2000/svg" xmlns:xlink="http://www.w3.org/1999/xlink" viewBox="0 0 200 200">
  <rect x="10" y="10" width="180" height="180" rx="20" fill="#fff"/>
  <svg x="20" y="50" width="160" height="100" viewBox="0 0 273.68 120.18">
    <style>.st0{fill:#F26322;}</style>
    <g>
      <path d="M121.22,60.35c0,3.97,0.8,6.21,1.33,7.05h-9.84c-0.61-0.92-0.8-3.08-0.8-4.07c-3.58,2.9-7.78,4.42-12.58,4.42c-7.32,0-13.12-4.65-13.12-12.13c0-7.55,6.02-10.91,11.74-12.05l3.89-0.76c3.36-0.69,7.7-1.45,10.07-2.29v-1.14c0-3.81-3.28-4.88-7.32-4.88c-5.41,0-7.11,2.21-7.11,5.84h-9.33c0-9.08,6.62-13.4,16.43-13.01c8.31,0.34,16.63,1.68,16.63,12.66V60.35z M111.92,47.54c-1.22,0.61-2.75,1.07-4.42,1.37l-5.11,1.07c-3.51,0.69-6.41,1.68-6.41,5.34c0,2.9,2.67,4.8,6.02,4.8c4.35,0,9.91-2.14,9.91-7.09V47.54z"/>
      <path d="M154.58,39.56c-5.15-3.35-6.44-4.25-10.63-4.61c-4.33-0.37-7.09,1.45-7.09,3.74c0,6.71,24.33,0.99,24.33,15.56c0,9.3-8.31,13.5-17.16,13.5c-9.08,0-15.25-3.13-18.68-7.02l5.85-4.55c4.25,3.22,7.34,3.94,12.3,3.94c4.42,0,7.47-2.44,7.47-4.5c0-6.56-23.87-1.14-23.87-15.79c0-8.69,7.55-12.51,17.08-12.51c9.23,0,14.11,4.73,15.94,7.02L154.58,39.56z"/>
      <path d="M199.16,60.35c0,3.97,1.02,6.11,1.55,6.95h-9.84c-0.61-0.92-1.02-2.98-1.02-3.98c-3.58,2.9-7.78,4.42-12.58,4.42c-7.32,0-13.12-4.65-13.12-12.13c0-7.55,6.02-10.91,11.74-12.05l3.89-0.76c3.36-0.69,7.7-1.45,10.07-2.29v-1.14c0-3.81-3.28-4.88-7.32-4.88c-5.41,0-7.15,2.31-7.15,5.98l-9.33-0.05c0-9.08,6.81-13.5,16.47-13.1c8.31,0.34,16.63,1.68,16.63,12.66V60.35z M189.86,47.54c-1.22,0.61-2.75,1.07-4.42,1.37l-5.11,1.07c-3.51,0.69-6.41,1.68-6.41,5.34c0,2.9,2.67,4.8,6.02,4.8c4.35,0,9.91-2.14,9.91-7.09V47.54z"/>
      <path d="M212.88,49.75c0.15,5.72,4.96,9.25,9.99,9.46c7.12,0.29,10.24-2.17,12.64-4.66l6.35,3.75c-2.9,4.42-8.47,9.46-18.99,9.46c-12.51,0-19.75-8.69-19.75-20.21c0-11.52,7.24-20.21,19.75-20.21c12.89,0,18.53,8.62,18.53,22.42H212.88z M231.64,42.58c0-2.06-2.52-7.63-8.77-7.63c-5.41,0-9,3.51-9.99,7.63H231.64z"/>
    </g>
    <path class="st0" d="M82.59,30.09l-21.84,0.02c-3.19-4.92-6.96-7.5-8.88-8.57l2.16-6.4l-3.4,5.78l-0.01-0.01l0.01,0.01l-5.42,9.21l-23.05-0.05l21.79,2.15L41.8,36.1c-8.38-3.77-19.66-6-19.66-6s9.54,3.75,18.15,8.87l-15.49,28.5L52.8,49.35c5.77,7.01,12.99,17.91,12.99,17.91s3.04-12.46-0.42-26.04L82.59,30.09z M51.76,21.87c2.2,2.75,3.42,5.06,4.76,8.24l-7.54,0.01L51.76,21.87z M40.15,52.01l4.24-10.42c1.52,1.04,2.95,2.12,4.2,3.22c0.37,0.32,0.77,0.71,1.19,1.14L40.15,52.01z M45.71,38.06l2.37-5.53l9.34,0.5c0.58,0.96,2.19,5.77,2.37,6.6l-6.25,3.42C51.5,41.31,46.08,38.27,45.71,38.06z M61.32,51.15c0,0-0.71-1.82-3.86-4.73l3.24-2.08C61.45,49.56,61.32,51.15,61.32,51.15z M63.36,35.11c-0.27-0.66-0.55-1.28-0.85-1.89l6.94,0.34l-5.39,3.39C63.85,36.33,63.62,35.72,63.36,35.11z"/>
  </svg>
</svg>
